SplineFontDB: 3.2
FontName: FreeSansBold
FullName: FreeSans Bold
FamilyName: FreeSans
Weight: Demi
Copyright: Copyright 2002, 2003, 2005, 2008, 2009, 2010, 2012 GNU Freefont contributors.
Version: 0412.2261
ItalicAngle: 0
UnderlinePosition: -154
UnderlineWidth: 69
Ascent: 800
Descent: 200
InvalidEm: 0
sfntRevision: 0x019c39e1
LayerCount: 2
Layer: 0 1 "Arri+AOgA-re" 1
Layer: 1 1 "Avant" 0
XUID: [1021 728 -2093450016 2526393]
StyleMap: 0x0020
FSType: 0
OS2Version: 4
OS2_WeightWidthSlopeOnly: 0
OS2_UseTypoMetrics: 1
CreationTime: 1203284335
ModificationTime: 1624275021
PfmFamily: 17
TTFWeight: 600
TTFWidth: 5
LineGap: 100
VLineGap: 0
Panose: 2 11 7 4 2 2 2 2 2 4
OS2TypoAscent: 800
OS2TypoAOffset: 0
OS2TypoDescent: -200
OS2TypoDOffset: 0
OS2TypoLinegap: 100
OS2WinAscent: 900
OS2WinAOffset: 0
OS2WinDescent: 300
OS2WinDOffset: 0
HheadAscent: 900
HheadAOffset: 0
HheadDescent: -200
HheadDOffset: 0
OS2SubXSize: 650
OS2SubYSize: 666
OS2SubXOff: 0
OS2SubYOff: 200
OS2SupXSize: 650
OS2SupYSize: 666
OS2SupXOff: 0
OS2SupYOff: 390
OS2StrikeYSize: 49
OS2StrikeYPos: 258
OS2CapHeight: 729
OS2XHeight: 540
OS2FamilyClass: 2053
OS2Vendor: 'GNU '
OS2CodePages: 600001bf.00000000
OS2UnicodeRanges: e4028eff.4000e1ff.00001020.00000004
Lookup: 6 0 0 "'ccmp' Glyph Composition/Decomposition in Latin lookup 0" { "'ccmp' Glyph Composition/Decomposition in Latin lookup 0 subtable"  } ['ccmp' ('DFLT' <'dflt' > 'latn' <'dflt' > ) ]
Lookup: 1 0 0 "'smcp' Lowercase to Small Capitals in Latin lookup 1" { "'smcp' Lowercase to Small Capitals in Latin lookup 1 subtable"  } ['smcp' ('latn' <'TRK ' > ) ]
Lookup: 1 0 0 "'smcp' Lowercase to Small Capitals in Latin lookup 2" { "'smcp' Lowercase to Small Capitals in Latin lookup 2 subtable"  } ['smcp' ('latn' <'dflt' > ) ]
Lookup: 1 0 0 "'c2sc' Capitals to Small Capitals in Latin lookup 3" { "'c2sc' Capitals to Small Capitals in Latin lookup 3 subtable"  } ['c2sc' ('latn' <'TRK ' > ) ]

StartChar: .notdef
Encoding: 65536 -1 0
Width: 800
Flags: W
LayerCount: 2
Fore
SplineSet
154 441 m 1,0,1
 155 506 155 506 171.5 555 c 128,-1,2
 188 604 188 604 212.5 631.5 c 128,-1,3
 237 659 237 659 271 676 c 128,-1,4
 305 693 305 693 334.5 698.5 c 128,-1,5
 364 704 364 704 397 704 c 0,6,7
 507 704 507 704 576.5 640 c 128,-1,8
 646 576 646 576 646 474 c 0,9,10
 646 411 646 411 621 370 c 128,-1,11
 596 329 596 329 526 280 c 0,12,13
 481 248 481 248 470 229 c 128,-1,14
 459 210 459 210 459 161 c 1,15,-1
 335 161 l 1,16,-1
 335 175 l 2,17,18
 335 225 335 225 352.5 262.5 c 128,-1,19
 370 300 370 300 395 323 c 128,-1,20
 420 346 420 346 445 366 c 128,-1,21
 470 386 470 386 487.5 412 c 128,-1,22
 505 438 505 438 505 471 c 0,23,24
 505 520 505 520 475 553 c 128,-1,25
 445 586 445 586 400 586 c 0,26,27
 353 586 353 586 321.5 548 c 128,-1,28
 290 510 290 510 290 452 c 2,29,-1
 290 443 l 1,30,-1
 290 441 l 1,31,-1
 154 441 l 1,0,1
475 106 m 1,32,-1
 475 -40 l 1,33,-1
 325 -40 l 1,34,-1
 325 106 l 1,35,-1
 475 106 l 1,32,-1
35 -139 m 1,36,-1
 35 800 l 1,37,-1
 765 800 l 1,38,-1
 765 -139 l 1,39,-1
 35 -139 l 1,36,-1
118 -69 m 1,40,-1
 682 -69 l 1,41,-1
 682 730 l 1,42,-1
 118 730 l 1,43,-1
 118 -69 l 1,40,-1
EndSplineSet
EndChar

StartChar: exclam
Encoding: 33 33 4
Width: 333
GlyphClass: 2
Flags: W
LayerCount: 2
Fore
SplineSet
262 726 m 1,0,-1
 262 516 l 1,1,-1
 220 207 l 1,2,-1
 153 207 l 1,3,-1
 112 516 l 1,4,-1
 112 726 l 1,5,-1
 262 726 l 1,0,-1
262 146 m 1,6,-1
 262 0 l 1,7,-1
 112 0 l 1,8,-1
 112 146 l 1,9,-1
 262 146 l 1,6,-1
EndSplineSet
Substitution2: "'locl' Localized Forms lookup 43 subtable" indic_exclam
EndChar

StartChar: quotedbl
Encoding: 34 34 5
Width: 474
GlyphClass: 2
Flags: W
LayerCount: 2
Fore
SplineSet
188 729 m 1,0,-1
 188 599 l 1,1,-1
 146 470 l 1,2,-1
 90 470 l 1,3,-1
 50 599 l 1,4,-1
 50 729 l 1,5,-1
 188 729 l 1,0,-1
424 729 m 1,6,-1
 424 599 l 1,7,-1
 382 470 l 1,8,-1
 326 470 l 1,9,-1
 286 599 l 1,10,-1
 286 729 l 1,11,-1
 424 729 l 1,6,-1
EndSplineSet
EndChar

StartChar: numbersign
Encoding: 35 35 6
Width: 556
GlyphClass: 2
Flags: W
LayerCount: 2
Fore
SplineSet
146 -32 m 1,0,-1
 40 -32 l 1,1,-1
 80 172 l 1,2,-1
 3 172 l 1,3,-1
 3 271 l 1,4,-1
 100 271 l 1,5,-1
 130 424 l 1,6,-1
 31 424 l 1,7,-1
 31 523 l 1,8,-1
 150 523 l 1,9,-1
 184 697 l 1,10,-1
 289 697 l 1,11,-1
 255 523 l 1,12,-1
 358 523 l 1,13,-1
 392 697 l 1,14,-1
 497 697 l 1,15,-1
 463 523 l 1,16,-1
 553 523 l 1,17,-1
 553 424 l 1,18,-1
 444 424 l 1,19,-1
 413 271 l 1,20,-1
 513 271 l 1,21,-1
 513 172 l 1,22,-1
 394 172 l 1,23,-1
 354 -32 l 1,24,-1
 249 -32 l 1,25,-1
 289 172 l 1,26,-1
 186 172 l 1,27,-1
 146 -32 l 1,0,-1
205 271 m 1,28,-1
 308 271 l 1,29,-1
 338 424 l 1,30,-1
 235 424 l 1,31,-1
 205 271 l 1,28,-1
EndSplineSet
EndChar

StartChar: dollar
Encoding: 36 36 7
Width: 556
GlyphClass: 2
Flags: W
LayerCount: 2
Fore
SplineSet
243 -21 m 1,0,1
 137 -11 137 -11 79.5 48 c 128,-1,2
 22 107 22 107 22 198 c 2,3,-1
 22 207 l 1,4,-1
 153 207 l 1,5,6
 158 101 158 101 243 86 c 1,7,-1
 243 299 l 1,8,9
 39 346 39 346 39 512 c 0,10,11
 39 596 39 596 92.5 648 c 128,-1,12
 146 700 146 700 243 709 c 1,13,-1
 243 763 l 1,14,-1
 311 763 l 1,15,-1
 311 709 l 1,16,17
 406 704 406 704 461 648 c 128,-1,18
 516 592 516 592 517 498 c 1,19,-1
 389 498 l 1,20,-1
 389 504 l 2,21,22
 389 548 389 548 368.5 575.5 c 128,-1,23
 348 603 348 603 311 608 c 1,24,-1
 311 407 l 1,25,26
 427 375 427 375 477 326 c 128,-1,27
 527 277 527 277 527 195 c 0,28,29
 527 99 527 99 470.5 44.5 c 128,-1,30
 414 -10 414 -10 311 -21 c 1,31,-1
 311 -126 l 1,32,-1
 243 -126 l 1,33,-1
 243 -21 l 1,0,1
243 427 m 1,34,-1
 243 608 l 1,35,36
 162 592 162 592 162 516 c 0,37,38
 162 453 162 453 243 427 c 1,34,-1
311 282 m 1,39,-1
 311 86 l 1,40,41
 395 107 395 107 395 183 c 0,42,43
 395 256 395 256 311 282 c 1,39,-1
EndSplineSet
EndChar

StartChar: percent
Encoding: 37 37 8
Width: 889
GlyphClass: 2
Flags: W
LayerCount: 2
Fore
SplineSet
206 701 m 0,0,1
 283 701 283 701 336.5 647.5 c 128,-1,2
 390 594 390 594 390 517 c 0,3,4
 390 444 390 444 335.5 390.5 c 128,-1,5
 281 337 281 337 206 337 c 0,6,7
 130 337 130 337 76 390.5 c 128,-1,8
 22 444 22 444 22 519 c 128,-1,9
 22 594 22 594 76 647.5 c 128,-1,10
 130 701 130 701 206 701 c 0,0,1
206 602 m 128,-1,12
 171 602 171 602 146 577.5 c 128,-1,13
 121 553 121 553 121 519 c 0,14,15
 121 484 121 484 146 459.5 c 128,-1,16
 171 435 171 435 206 435 c 128,-1,17
 241 435 241 435 266 459.5 c 128,-1,18
 291 484 291 484 291 518 c 0,19,20
 291 553 291 553 266 577.5 c 128,-1,11
 241 602 241 602 206 602 c 128,-1,12
606 709 m 1,21,-1
 682 709 l 1,22,-1
 287 -20 l 1,23,-1
 210 -20 l 1,24,-1
 606 709 l 1,21,-1
679 352 m 0,25,26
 756 352 756 352 809.5 298.5 c 128,-1,27
 863 245 863 245 863 167 c 0,28,29
 863 94 863 94 808.5 40.5 c 128,-1,30
 754 -13 754 -13 679 -13 c 0,31,32
 603 -13 603 -13 549 40.5 c 128,-1,33
 495 94 495 94 495 170 c 0,34,35
 495 245 495 245 549 298.5 c 128,-1,36
 603 352 603 352 679 352 c 0,25,26
679 253 m 128,-1,38
 644 253 644 253 619 228.5 c 128,-1,39
 594 204 594 204 594 169 c 128,-1,40
 594 134 594 134 619 109.5 c 128,-1,41
 644 85 644 85 679 85 c 128,-1,42
 714 85 714 85 739 109.5 c 128,-1,43
 764 134 764 134 764 168 c 0,44,45
 764 203 764 203 739 228 c 128,-1,37
 714 253 714 253 679 253 c 128,-1,38
EndSplineSet
EndChar

StartChar: ampersand
Encoding: 38 38 9
Width: 722
GlyphClass: 2
Flags: W
LayerCount: 2
Fore
SplineSet
526 373 m 1,0,-1
 639 373 l 1,1,-1
 639 357 l 2,2,3
 637 299 637 299 619 243.5 c 128,-1,4
 601 188 601 188 571 154 c 1,5,-1
 694 0 l 1,6,-1
 533 0 l 1,7,-1
 487 56 l 1,8,9
 427 11 427 11 385 -6 c 128,-1,10
 343 -23 343 -23 292 -23 c 0,11,12
 185 -23 185 -23 120 36.5 c 128,-1,13
 55 96 55 96 55 193 c 0,14,15
 55 264 55 264 89.5 309.5 c 128,-1,16
 124 355 124 355 212 401 c 1,17,18
 203 413 203 413 200 416 c 2,19,-1
 172 450 l 2,20,21
 130 499 130 499 130 556 c 0,22,23
 130 627 130 627 184.5 675 c 128,-1,24
 239 723 239 723 319 723 c 128,-1,25
 399 723 399 723 448 680.5 c 128,-1,26
 497 638 497 638 497 568 c 0,27,28
 497 514 497 514 472 476 c 128,-1,29
 447 438 447 438 380 392 c 1,30,-1
 496 248 l 1,31,32
 526 305 526 305 526 363 c 2,33,-1
 526 373 l 1,0,-1
278 319 m 1,34,-1
 231 290 l 2,35,36
 188 261 188 261 188 210 c 0,37,38
 188 165 188 165 220.5 129 c 128,-1,39
 253 93 253 93 294 93 c 0,40,41
 342 93 342 93 414 148 c 1,42,-1
 278 319 l 1,34,-1
317 470 m 1,43,44
 377 503 377 503 377 556 c 0,45,46
 377 584 377 584 362 599 c 128,-1,47
 347 614 347 614 320 614 c 0,48,49
 295 614 295 614 278.5 600.5 c 128,-1,50
 262 587 262 587 262 566 c 0,51,52
 262 547 262 547 270.5 532.5 c 128,-1,53
 279 518 279 518 317 470 c 1,43,44
EndSplineSet
EndChar

StartChar: quotesingle
Encoding: 39 39 10
Width: 250
GlyphClass: 2
Flags: W
LayerCount: 2
Fore
SplineSet
194 729 m 1,0,-1
 194 599 l 1,1,-1
 152 470 l 1,2,-1
 96 470 l 1,3,-1
 56 599 l 1,4,-1
 56 729 l 1,5,-1
 194 729 l 1,0,-1
EndSplineSet
EndChar

StartChar: parenleft
Encoding: 40 40 11
Width: 333
GlyphClass: 2
Flags: W
LayerCount: 2
Fore
SplineSet
203 729 m 1,0,-1
 303 729 l 1,1,2
 224 576 224 576 193.5 475.5 c 128,-1,3
 163 375 163 375 163 265 c 128,-1,4
 163 155 163 155 193 55 c 128,-1,5
 223 -45 223 -45 303 -200 c 1,6,-1
 203 -200 l 1,7,8
 117 -70 117 -70 78.5 39.5 c 128,-1,9
 40 149 40 149 40 265 c 0,10,11
 40 380 40 380 78.5 490 c 128,-1,12
 117 600 117 600 203 729 c 1,0,-1
EndSplineSet
EndChar

StartChar: parenright
Encoding: 41 41 12
Width: 333
GlyphClass: 2
Flags: W
LayerCount: 2
Fore
SplineSet
122 -200 m 1,0,-1
 22 -200 l 1,1,2
 101 -47 101 -47 131.5 53.5 c 128,-1,3
 162 154 162 154 162 264 c 128,-1,4
 162 374 162 374 132 474 c 128,-1,5
 102 574 102 574 22 729 c 1,6,-1
 122 729 l 1,7,8
 208 599 208 599 246.5 489.5 c 128,-1,9
 285 380 285 380 285 264 c 0,10,11
 285 149 285 149 246.5 39 c 128,-1,12
 208 -71 208 -71 122 -200 c 1,0,-1
EndSplineSet
EndChar

StartChar: asterisk
Encoding: 42 42 13
Width: 389
GlyphClass: 2
Flags: W
LayerCount: 2
Fore
SplineSet
132 544 m 1,0,-1
 23 580 l 1,1,-1
 45 649 l 1,2,-1
 154 613 l 1,3,-1
 154 729 l 1,4,-1
 226 729 l 1,5,-1
 226 613 l 1,6,-1
 335 649 l 1,7,-1
 357 579 l 1,8,-1
 248 544 l 1,9,-1
 315 450 l 1,10,-1
 257 407 l 1,11,-1
 190 501 l 1,12,-1
 123 407 l 1,13,-1
 65 450 l 1,14,-1
 132 544 l 1,0,-1
EndSplineSet
EndChar

StartChar: plus
Encoding: 43 43 14
Width: 584
GlyphClass: 2
Flags: W
LayerCount: 2
Fore
SplineSet
533 291 m 1,0,-1
 533 172 l 1,1,-1
 351 172 l 1,2,-1
 351 -10 l 1,3,-1
 232 -10 l 1,4,-1
 232 172 l 1,5,-1
 50 172 l 1,6,-1
 50 291 l 1,7,-1
 232 291 l 1,8,-1
 232 473 l 1,9,-1
 351 473 l 1,10,-1
 351 291 l 1,11,-1
 533 291 l 1,0,-1
EndSplineSet
EndChar

StartChar: comma
Encoding: 44 44 15
Width: 250
GlyphClass: 2
Flags: W
LayerCount: 2
Fore
SplineSet
50 146 m 1,0,-1
 200 146 l 1,1,-1
 200 9 l 2,2,3
 200 -26 200 -26 195.5 -51 c 128,-1,4
 191 -76 191 -76 176.5 -104 c 128,-1,5
 162 -132 162 -132 130.5 -150 c 128,-1,6
 99 -168 99 -168 50 -174 c 1,7,-1
 50 -118 l 1,8,9
 94 -109 94 -109 110 -82 c 128,-1,10
 126 -55 126 -55 126 0 c 1,11,-1
 50 0 l 1,12,-1
 50 146 l 1,0,-1
EndSplineSet
EndChar

StartChar: hyphen
Encoding: 45 45 16
Width: 333
GlyphClass: 2
Flags: W
LayerCount: 2
Fore
SplineSet
298 342 m 1,0,-1
 298 207 l 1,1,-1
 26 207 l 1,2,-1
 26 342 l 1,3,-1
 298 342 l 1,0,-1
EndSplineSet
EndChar

StartChar: period
Encoding: 46 46 17
Width: 250
GlyphClass: 2
Flags: W
LayerCount: 2
Fore
SplineSet
200 146 m 1,0,-1
 200 0 l 1,1,-1
 50 0 l 1,2,-1
 50 146 l 1,3,-1
 200 146 l 1,0,-1
EndSplineSet
EndChar

StartChar: slash
Encoding: 47 47 18
Width: 278
GlyphClass: 2
Flags: W
LayerCount: 2
Fore
SplineSet
208 714 m 1,0,-1
 275 714 l 1,1,-1
 69 -14 l 1,2,-1
 2 -14 l 1,3,-1
 208 714 l 1,0,-1
EndSplineSet
EndChar

StartChar: zero
Encoding: 48 48 19
Width: 556
GlyphClass: 2
Flags: W
AnchorPoint: "Anchor-6" 274 343 basechar 0
LayerCount: 2
Fore
SplineSet
273 -23 m 128,-1,1
 202 -23 202 -23 153 5.5 c 128,-1,2
 104 34 104 34 77.5 87 c 128,-1,3
 51 140 51 140 40 203.5 c 128,-1,4
 29 267 29 267 29 350 c 0,5,6
 29 531 29 531 84 627.5 c 128,-1,7
 139 724 139 724 273 724 c 0,8,9
 343 724 343 724 391.5 697.5 c 128,-1,10
 440 671 440 671 467 619 c 128,-1,11
 494 567 494 567 505.5 501 c 128,-1,12
 517 435 517 435 517 346 c 0,13,14
 517 266 517 266 506 203.5 c 128,-1,15
 495 141 495 141 469 87.5 c 128,-1,16
 443 34 443 34 393.5 5.5 c 128,-1,0
 344 -23 344 -23 273 -23 c 128,-1,1
377 349 m 0,17,18
 377 494 377 494 350.5 552.5 c 128,-1,19
 324 611 324 611 273 611 c 0,20,21
 217 611 217 611 193 554.5 c 128,-1,22
 169 498 169 498 169 351 c 0,23,24
 169 249 169 249 182 191.5 c 128,-1,25
 195 134 195 134 216.5 115.5 c 128,-1,26
 238 97 238 97 273 97 c 0,27,28
 307 97 307 97 328.5 115 c 128,-1,29
 350 133 350 133 363.5 190.5 c 128,-1,30
 377 248 377 248 377 349 c 0,17,18
EndSplineSet
Substitution2: "'zero' Slashed Zero lookup 14 subtable" zeroslashed
Substitution2: "'pnum' Proportional Numbers lookup 13 subtable" fit.0
EndChar

StartChar: one
Encoding: 49 49 20
Width: 556
GlyphClass: 2
Flags: W
AnchorPoint: "Anchor-6" 291 343 basechar 0
LayerCount: 2
Fore
SplineSet
238 489 m 1,0,-1
 68 489 l 1,1,-1
 68 582 l 1,2,3
 252 582 252 582 285 709 c 1,4,-1
 378 709 l 1,5,-1
 378 0 l 1,6,-1
 238 0 l 1,7,-1
 238 489 l 1,0,-1
EndSplineSet
Substitution2: "'pnum' Proportional Numbers lookup 13 subtable" fit.1
EndChar

StartChar: two
Encoding: 50 50 21
Width: 556
GlyphClass: 2
Flags: W
AnchorPoint: "Anchor-6" 274 343 basechar 0
LayerCount: 2
Fore
SplineSet
515 499 m 0,0,1
 515 440 515 440 489.5 392 c 128,-1,2
 464 344 464 344 425 311.5 c 128,-1,3
 386 279 386 279 345 251.5 c 128,-1,4
 304 224 304 224 266 191.5 c 128,-1,5
 228 159 228 159 212 125 c 1,6,-1
 512 125 l 1,7,-1
 512 0 l 1,8,-1
 30 0 l 1,9,10
 35 98 35 98 69.5 155.5 c 128,-1,11
 104 213 104 213 194 276 c 0,12,13
 311 358 311 358 343 397.5 c 128,-1,14
 375 437 375 437 375 496 c 0,15,16
 375 549 375 549 348.5 579.5 c 128,-1,17
 322 610 322 610 275 610 c 0,18,19
 227 610 227 610 200.5 577 c 128,-1,20
 174 544 174 544 174 485 c 2,21,-1
 174 462 l 1,22,-1
 40 462 l 1,23,24
 39 473 39 473 39 487 c 0,25,26
 39 599 39 599 100.5 661.5 c 128,-1,27
 162 724 162 724 272 724 c 0,28,29
 384 724 384 724 449.5 663 c 128,-1,30
 515 602 515 602 515 499 c 0,0,1
EndSplineSet
Substitution2: "'pnum' Proportional Numbers lookup 13 subtable" fit.2
EndChar

StartChar: three
Encoding: 51 51 22
Width: 556
GlyphClass: 2
Flags: W
AnchorPoint: "Anchor-6" 274 343 basechar 0
LayerCount: 2
Fore
SplineSet
38 498 m 2,0,1
 38 553 38 553 53.5 595 c 128,-1,2
 69 637 69 637 92.5 661 c 128,-1,3
 116 685 116 685 148 699.5 c 128,-1,4
 180 714 180 714 208.5 719 c 128,-1,5
 237 724 237 724 268 724 c 0,6,7
 371 724 371 724 432 671.5 c 128,-1,8
 493 619 493 619 493 531 c 0,9,10
 493 482 493 482 471 446.5 c 128,-1,11
 449 411 449 411 400 380 c 1,12,13
 460 351 460 351 488 308.5 c 128,-1,14
 516 266 516 266 516 204 c 0,15,16
 516 100 516 100 448.5 38.5 c 128,-1,17
 381 -23 381 -23 268 -23 c 0,18,19
 159 -23 159 -23 94.5 39.5 c 128,-1,20
 30 102 30 102 29 208 c 1,21,-1
 165 208 l 1,22,23
 171 97 171 97 271 97 c 0,24,25
 317 97 317 97 346.5 127 c 128,-1,26
 376 157 376 157 376 204 c 0,27,28
 376 243 376 243 355 271.5 c 128,-1,29
 334 300 334 300 299 310 c 0,30,31
 271 317 271 317 217 317 c 1,32,-1
 217 411 l 1,33,-1
 229 411 l 2,34,35
 353 411 353 411 353 518 c 0,36,37
 353 562 353 562 330 586.5 c 128,-1,38
 307 611 307 611 265 611 c 0,39,40
 210 611 210 611 190 580 c 128,-1,41
 170 549 170 549 168 486 c 1,42,-1
 38 486 l 1,43,-1
 38 498 l 2,0,1
EndSplineSet
Substitution2: "'pnum' Proportional Numbers lookup 13 subtable" fit.3
EndChar

StartChar: four
Encoding: 52 52 23
Width: 556
GlyphClass: 2
Flags: W
AnchorPoint: "Anchor-6" 285 343 basechar 0
LayerCount: 2
Fore
SplineSet
522 273 m 1,0,-1
 522 157 l 1,1,-1
 448 157 l 1,2,-1
 448 0 l 1,3,-1
 308 0 l 1,4,-1
 308 157 l 1,5,-1
 24 157 l 1,6,-1
 24 275 l 1,7,-1
 283 709 l 1,8,-1
 448 709 l 1,9,-1
 448 273 l 1,10,-1
 522 273 l 1,0,-1
308 273 m 1,11,-1
 308 576 l 1,12,-1
 123 273 l 1,13,-1
 308 273 l 1,11,-1
EndSplineSet
Substitution2: "'pnum' Proportional Numbers lookup 13 subtable" fit.4
EndChar

StartChar: five
Encoding: 53 53 24
Width: 556
GlyphClass: 2
Flags: W
AnchorPoint: "Anchor-6" 274 343 basechar 0
LayerCount: 2
Fore
SplineSet
489 709 m 1,0,-1
 489 584 l 1,1,-1
 196 584 l 1,2,-1
 173 436 l 1,3,4
 230 479 230 479 296 479 c 0,5,6
 394 479 394 479 455.5 411 c 128,-1,7
 517 343 517 343 517 234 c 0,8,9
 517 119 517 119 446 48 c 128,-1,10
 375 -23 375 -23 261 -23 c 0,11,12
 158 -23 158 -23 93.5 34.5 c 128,-1,13
 29 92 29 92 27 185 c 1,14,-1
 165 185 l 1,15,16
 170 97 170 97 263 97 c 0,17,18
 316 97 316 97 346.5 133 c 128,-1,19
 377 169 377 169 377 231 c 0,20,21
 377 295 377 295 346.5 331.5 c 128,-1,22
 316 368 316 368 263 368 c 0,23,24
 196 368 196 368 173 314 c 1,25,-1
 47 314 l 1,26,-1
 110 709 l 1,27,-1
 489 709 l 1,0,-1
EndSplineSet
Substitution2: "'pnum' Proportional Numbers lookup 13 subtable" fit.5
EndChar

StartChar: six
Encoding: 54 54 25
Width: 556
GlyphClass: 2
Flags: W
AnchorPoint: "Anchor-6" 286 343 basechar 0
LayerCount: 2
Fore
SplineSet
32 337 m 0,0,1
 32 724 32 724 294 724 c 0,2,3
 313 724 313 724 331 722 c 128,-1,4
 349 720 349 720 379.5 710 c 128,-1,5
 410 700 410 700 433.5 683 c 128,-1,6
 457 666 457 666 478.5 631 c 128,-1,7
 500 596 500 596 507 548 c 1,8,-1
 377 548 l 1,9,10
 363 582 363 582 343.5 596.5 c 128,-1,11
 324 611 324 611 290 611 c 0,12,13
 255 611 255 611 231.5 596.5 c 128,-1,14
 208 582 208 582 196 551 c 128,-1,15
 184 520 184 520 179 487 c 128,-1,16
 174 454 174 454 172 404 c 1,17,18
 205 438 205 438 237 452.5 c 128,-1,19
 269 467 269 467 313 467 c 0,20,21
 404 467 404 467 461.5 403 c 128,-1,22
 519 339 519 339 519 237 c 0,23,24
 519 121 519 121 453.5 49 c 128,-1,25
 388 -23 388 -23 282 -23 c 0,26,27
 229 -23 229 -23 187 -7 c 128,-1,28
 145 9 145 9 108.5 47 c 128,-1,29
 72 85 72 85 52 158.5 c 128,-1,30
 32 232 32 232 32 337 c 0,0,1
279 357 m 128,-1,32
 230 357 230 357 200 320.5 c 128,-1,33
 170 284 170 284 170 225 c 0,34,35
 170 169 170 169 200 133 c 128,-1,36
 230 97 230 97 278 97 c 0,37,38
 325 97 325 97 355.5 134 c 128,-1,39
 386 171 386 171 386 228 c 0,40,41
 386 287 386 287 357 322 c 128,-1,31
 328 357 328 357 279 357 c 128,-1,32
EndSplineSet
Substitution2: "'pnum' Proportional Numbers lookup 13 subtable" fit.6
EndChar

StartChar: seven
Encoding: 55 55 26
Width: 556
GlyphClass: 2
Flags: W
AnchorPoint: "Anchor-6" 274 343 basechar 0
LayerCount: 2
Fore
SplineSet
528 709 m 1,0,-1
 528 599 l 1,1,2
 402 447 402 447 343 307.5 c 128,-1,3
 284 168 284 168 274 0 c 1,4,-1
 133 0 l 1,5,6
 157 188 157 188 212.5 316 c 128,-1,7
 268 444 268 444 382 584 c 1,8,-1
 29 584 l 1,9,-1
 29 709 l 1,10,-1
 528 709 l 1,0,-1
EndSplineSet
Substitution2: "'pnum' Proportional Numbers lookup 13 subtable" fit.7
EndChar

StartChar: eight
Encoding: 56 56 27
Width: 556
GlyphClass: 2
Flags: W
AnchorPoint: "Anchor-6" 274 343 basechar 0
LayerCount: 2
Fore
SplineSet
501 532 m 0,0,1
 501 476 501 476 476.5 442.5 c 128,-1,2
 452 409 452 409 409 386 c 1,3,4
 470 353 470 353 497.5 310 c 128,-1,5
 525 267 525 267 525 204 c 0,6,7
 525 104 525 104 455 40.5 c 128,-1,8
 385 -23 385 -23 274 -23 c 0,9,10
 162 -23 162 -23 92 40 c 128,-1,11
 22 103 22 103 22 204 c 0,12,13
 22 267 22 267 49.5 310 c 128,-1,14
 77 353 77 353 138 386 c 1,15,16
 90 412 90 412 68 446 c 128,-1,17
 46 480 46 480 46 531 c 0,18,19
 46 615 46 615 110.5 669.5 c 128,-1,20
 175 724 175 724 274 724 c 0,21,22
 372 724 372 724 436.5 669.5 c 128,-1,23
 501 615 501 615 501 532 c 0,0,1
275 611 m 128,-1,25
 228 611 228 611 198.5 585.5 c 128,-1,26
 169 560 169 560 169 519 c 128,-1,27
 169 478 169 478 198.5 451.5 c 128,-1,28
 228 425 228 425 275 425 c 0,29,30
 321 425 321 425 350.5 451 c 128,-1,31
 380 477 380 477 380 518 c 128,-1,32
 380 559 380 559 351 585 c 128,-1,24
 322 611 322 611 275 611 c 128,-1,25
273 330 m 0,33,34
 223 330 223 330 192.5 298 c 128,-1,35
 162 266 162 266 162 212 c 0,36,37
 162 159 162 159 192 128 c 128,-1,38
 222 97 222 97 273 97 c 128,-1,39
 324 97 324 97 354.5 128 c 128,-1,40
 385 159 385 159 385 210 c 0,41,42
 385 265 385 265 355 297.5 c 128,-1,43
 325 330 325 330 273 330 c 0,33,34
EndSplineSet
Substitution2: "'pnum' Proportional Numbers lookup 13 subtable" fit.8
EndChar

StartChar: nine
Encoding: 57 57 28
Width: 556
GlyphClass: 2
Flags: W
AnchorPoint: "Anchor-6" 274 343 basechar 0
LayerCount: 2
Fore
SplineSet
516 370 m 0,0,1
 516 274 516 274 499 201 c 128,-1,2
 482 128 482 128 456.5 86 c 128,-1,3
 431 44 431 44 395 18.5 c 128,-1,4
 359 -7 359 -7 326 -15.5 c 128,-1,5
 293 -24 293 -24 255 -24 c 0,6,7
 163 -24 163 -24 101.5 29.5 c 128,-1,8
 40 83 40 83 38 165 c 1,9,-1
 173 165 l 1,10,11
 175 134 175 134 198.5 115 c 128,-1,12
 222 96 222 96 259 96 c 0,13,14
 376 96 376 96 376 298 c 1,15,16
 375 297 375 297 368 288.5 c 128,-1,17
 361 280 361 280 356.5 275.5 c 128,-1,18
 352 271 352 271 343 262.5 c 128,-1,19
 334 254 334 254 324.5 249 c 128,-1,20
 315 244 315 244 302.5 238.5 c 128,-1,21
 290 233 290 233 274 230.5 c 128,-1,22
 258 228 258 228 240 228 c 0,23,24
 146 228 146 228 87 296 c 128,-1,25
 28 364 28 364 28 474 c 0,26,27
 28 585 28 585 94.5 654.5 c 128,-1,28
 161 724 161 724 267 724 c 0,29,30
 301 724 301 724 332 716.5 c 128,-1,31
 363 709 363 709 397.5 685.5 c 128,-1,32
 432 662 432 662 457.5 625 c 128,-1,33
 483 588 483 588 499.5 522 c 128,-1,34
 516 456 516 456 516 370 c 0,0,1
263 610 m 0,35,36
 216 610 216 610 188.5 573.5 c 128,-1,37
 161 537 161 537 161 476 c 128,-1,38
 161 415 161 415 189 379.5 c 128,-1,39
 217 344 217 344 265 344 c 128,-1,40
 313 344 313 344 343 380 c 128,-1,41
 373 416 373 416 373 474 c 0,42,43
 373 536 373 536 343.5 573 c 128,-1,44
 314 610 314 610 263 610 c 0,35,36
EndSplineSet
Substitution2: "'pnum' Proportional Numbers lookup 13 subtable" fit.9
EndChar

StartChar: colon
Encoding: 58 58 29
Width: 250
GlyphClass: 2
Flags: W
LayerCount: 2
Fore
SplineSet
200 146 m 1,0,-1
 200 0 l 1,1,-1
 50 0 l 1,2,-1
 50 146 l 1,3,-1
 200 146 l 1,0,-1
200 520 m 1,4,-1
 200 374 l 1,5,-1
 50 374 l 1,6,-1
 50 520 l 1,7,-1
 200 520 l 1,4,-1
EndSplineSet
EndChar

StartChar: semicolon
Encoding: 59 59 30
Width: 250
GlyphClass: 2
Flags: W
LayerCount: 2
Fore
SplineSet
50 146 m 1,0,-1
 200 146 l 1,1,-1
 200 9 l 2,2,3
 200 -26 200 -26 195.5 -51 c 128,-1,4
 191 -76 191 -76 176.5 -104 c 128,-1,5
 162 -132 162 -132 130.5 -150 c 128,-1,6
 99 -168 99 -168 50 -174 c 1,7,-1
 50 -118 l 1,8,9
 95 -109 95 -109 115.5 -81 c 128,-1,10
 136 -53 136 -53 136 0 c 1,11,-1
 50 0 l 1,12,-1
 50 146 l 1,0,-1
200 520 m 1,13,-1
 200 374 l 1,14,-1
 50 374 l 1,15,-1
 50 520 l 1,16,-1
 200 520 l 1,13,-1
EndSplineSet
EndChar

StartChar: less
Encoding: 60 60 31
Width: 584
GlyphClass: 2
Flags: W
LayerCount: 2
Fore
SplineSet
529 474 m 1,0,-1
 529 365 l 1,1,-1
 147 232 l 1,2,-1
 529 101 l 1,3,-1
 529 -10 l 1,4,-1
 40 172 l 1,5,-1
 40 293 l 1,6,-1
 529 474 l 1,0,-1
EndSplineSet
EndChar

StartChar: equal
Encoding: 61 61 32
Width: 584
GlyphClass: 2
Flags: W
LayerCount: 2
Fore
SplineSet
534 411 m 1,0,-1
 534 292 l 1,1,-1
 50 292 l 1,2,-1
 50 411 l 1,3,-1
 534 411 l 1,0,-1
534 171 m 1,4,-1
 534 52 l 1,5,-1
 50 52 l 1,6,-1
 50 171 l 1,7,-1
 534 171 l 1,4,-1
EndSplineSet
EndChar

StartChar: greater
Encoding: 62 62 33
Width: 584
GlyphClass: 2
Flags: W
LayerCount: 2
Fore
SplineSet
40 -10 m 1,0,-1
 40 99 l 1,1,-1
 422 232 l 1,2,-1
 40 363 l 1,3,-1
 40 474 l 1,4,-1
 529 292 l 1,5,-1
 529 171 l 1,6,-1
 40 -10 l 1,0,-1
EndSplineSet
EndChar

StartChar: question
Encoding: 63 63 34
Width: 611
GlyphClass: 2
Flags: W
LayerCount: 2
Fore
SplineSet
64 481 m 1,0,1
 65 546 65 546 81.5 595 c 128,-1,2
 98 644 98 644 122.5 671.5 c 128,-1,3
 147 699 147 699 181 716 c 128,-1,4
 215 733 215 733 244.5 738.5 c 128,-1,5
 274 744 274 744 307 744 c 0,6,7
 417 744 417 744 486.5 680 c 128,-1,8
 556 616 556 616 556 514 c 0,9,10
 556 451 556 451 531 410 c 128,-1,11
 506 369 506 369 436 320 c 0,12,13
 391 288 391 288 380 269 c 128,-1,14
 369 250 369 250 369 201 c 1,15,-1
 245 201 l 1,16,-1
 245 215 l 2,17,18
 245 265 245 265 262.5 302.5 c 128,-1,19
 280 340 280 340 305 363 c 128,-1,20
 330 386 330 386 355 406 c 128,-1,21
 380 426 380 426 397.5 452 c 128,-1,22
 415 478 415 478 415 511 c 0,23,24
 415 560 415 560 385 593 c 128,-1,25
 355 626 355 626 310 626 c 0,26,27
 263 626 263 626 231.5 588 c 128,-1,28
 200 550 200 550 200 492 c 2,29,-1
 200 483 l 1,30,-1
 200 481 l 1,31,-1
 64 481 l 1,0,1
385 146 m 1,32,-1
 385 0 l 1,33,-1
 235 0 l 1,34,-1
 235 146 l 1,35,-1
 385 146 l 1,32,-1
EndSplineSet
Substitution2: "'locl' Localized Forms lookup 43 subtable" indic_question
EndChar

StartChar: at
Encoding: 64 64 35
Width: 975
GlyphClass: 2
Flags: W
LayerCount: 2
Fore
SplineSet
258 227 m 0,0,1
 258 256 258 256 270.5 299.5 c 128,-1,2
 283 343 283 343 309.5 394.5 c 128,-1,3
 336 446 336 446 390 482 c 128,-1,4
 444 518 444 518 514 518 c 0,5,6
 555 518 555 518 581 501 c 128,-1,7
 607 484 607 484 625 446 c 1,8,-1
 641 508 l 1,9,-1
 734 508 l 1,10,-1
 656 228 l 2,11,12
 649 203 649 203 649 189 c 0,13,14
 649 142 649 142 697 142 c 0,15,16
 749 142 749 142 800.5 210 c 128,-1,17
 852 278 852 278 852 370 c 0,18,19
 852 484 852 484 748 571 c 128,-1,20
 644 658 644 658 511 658 c 0,21,22
 409 658 409 658 319.5 600 c 128,-1,23
 230 542 230 542 179.5 452 c 128,-1,24
 129 362 129 362 129 266 c 0,25,26
 129 174 129 174 181.5 99 c 128,-1,27
 234 24 234 24 315 -15.5 c 128,-1,28
 396 -55 396 -55 486 -55 c 0,29,30
 601 -55 601 -55 692 -14 c 1,31,-1
 721 -92 l 1,32,33
 620 -138 620 -138 484 -138 c 0,34,35
 278 -138 278 -138 152.5 -22.5 c 128,-1,36
 27 93 27 93 27 264 c 0,37,38
 27 390 27 390 94 501.5 c 128,-1,39
 161 613 161 613 274 679 c 128,-1,40
 387 745 387 745 516 745 c 0,41,42
 706 745 706 745 826.5 638.5 c 128,-1,43
 947 532 947 532 947 355 c 0,44,45
 947 288 947 288 923 230 c 128,-1,46
 899 172 899 172 861.5 135 c 128,-1,47
 824 98 824 98 780.5 77 c 128,-1,48
 737 56 737 56 697 56 c 0,49,50
 647 56 647 56 615 76.5 c 128,-1,51
 583 97 583 97 572 129 c 1,52,53
 511 56 511 56 422 56 c 0,54,55
 354 56 354 56 306 106 c 128,-1,56
 258 156 258 156 258 227 c 0,0,1
444 140 m 0,57,58
 504 140 504 140 548 209 c 128,-1,59
 592 278 592 278 592 345 c 0,60,61
 592 392 592 392 571 418 c 128,-1,62
 550 444 550 444 511 444 c 0,63,64
 453 444 453 444 407.5 382.5 c 128,-1,65
 362 321 362 321 362 244 c 0,66,67
 362 198 362 198 384.5 169 c 128,-1,68
 407 140 407 140 444 140 c 0,57,58
EndSplineSet
EndChar

StartChar: A
Encoding: 65 65 36
Width: 697
GlyphClass: 2
Flags: W
AnchorPoint: "Anchor-6" 350 258 basechar 0
AnchorPoint: "Anchor-4" 620 0 basechar 0 {150-150 9} {}
AnchorPoint: "Anchor-3" 345 730 basechar 0
AnchorPoint: "Anchor-2" 344 0 basechar 0
LayerCount: 2
Fore
SplineSet
485 147 m 1,0,-1
 212 147 l 1,1,-1
 163 0 l 1,2,-1
 10 0 l 1,3,-1
 269 729 l 1,4,-1
 435 729 l 1,5,-1
 687 0 l 1,6,-1
 533 0 l 1,7,-1
 485 147 l 1,0,-1
444 272 m 1,8,-1
 349 557 l 1,9,-1
 254 272 l 1,10,-1
 444 272 l 1,8,-1
EndSplineSet
Substitution2: "'c2sc' Capitals to Small Capitals in Latin lookup 4 subtable" sc.a
EndChar

StartChar: B
Encoding: 66 66 37
Width: 704
GlyphClass: 2
Flags: W
AnchorPoint: "Anchor-6" 364 377 basechar 0
AnchorPoint: "Anchor-3" 369 730 basechar 0
AnchorPoint: "Anchor-2" 372 0 basechar 0
LayerCount: 2
Fore
SplineSet
664 210 m 0,0,1
 664 174 664 174 652 140 c 128,-1,2
 640 106 640 106 613.5 73 c 128,-1,3
 587 40 587 40 534 20 c 128,-1,4
 481 0 481 0 408 0 c 2,5,-1
 80 0 l 1,6,-1
 80 729 l 1,7,-1
 405 729 l 2,8,9
 473 729 473 729 522.5 709 c 128,-1,10
 572 689 572 689 596.5 657.5 c 128,-1,11
 621 626 621 626 632 596 c 128,-1,12
 643 566 643 566 643 537 c 0,13,14
 643 490 643 490 620 455.5 c 128,-1,15
 597 421 597 421 543 387 c 1,16,17
 664 316 664 316 664 210 c 0,0,1
230 604 m 1,18,-1
 230 439 l 1,19,-1
 393 439 l 2,20,21
 499 439 499 439 499 521 c 0,22,23
 499 604 499 604 393 604 c 2,24,-1
 230 604 l 1,18,-1
230 314 m 1,25,-1
 230 125 l 1,26,-1
 409 125 l 2,27,28
 520 125 520 125 520 219 c 0,29,30
 520 314 520 314 409 314 c 2,31,-1
 230 314 l 1,25,-1
EndSplineSet
Substitution2: "'c2sc' Capitals to Small Capitals in Latin lookup 4 subtable" sc.b
EndChar

StartChar: C
Encoding: 67 67 38
Width: 721
GlyphClass: 2
Flags: W
AnchorPoint: "Anchor-6" 375 377 basechar 0
AnchorPoint: "Anchor-3" 371 740 basechar 0
AnchorPoint: "Anchor-2" 374 0 basechar 0
LayerCount: 2
Fore
SplineSet
535 482 m 1,0,1
 507 613 507 613 379 613 c 0,2,3
 290 613 290 613 240 545 c 128,-1,4
 190 477 190 477 190 356 c 0,5,6
 190 237 190 237 238.5 170 c 128,-1,7
 287 103 287 103 374 103 c 0,8,9
 444 103 444 103 486 141 c 128,-1,10
 528 179 528 179 535 249 c 1,11,-1
 681 249 l 1,12,13
 674 124 674 124 590 50.5 c 128,-1,14
 506 -23 506 -23 370 -23 c 0,15,16
 218 -23 218 -23 129 79.5 c 128,-1,17
 40 182 40 182 40 358 c 0,18,19
 40 535 40 535 130 638 c 128,-1,20
 220 741 220 741 374 741 c 0,21,22
 503 741 503 741 585.5 672 c 128,-1,23
 668 603 668 603 678 482 c 1,24,-1
 535 482 l 1,0,1
EndSplineSet
Substitution2: "'c2sc' Capitals to Small Capitals in Latin lookup 4 subtable" sc.c
EndChar

StartChar: D
Encoding: 68 68 39
Width: 724
GlyphClass: 2
Flags: W
AnchorPoint: "Anchor-6" 369 377 basechar 0
AnchorPoint: "Anchor-3" 328 730 basechar 0
AnchorPoint: "Anchor-2" 346 0 basechar 0
LayerCount: 2
Fore
SplineSet
80 0 m 1,0,-1
 80 729 l 1,1,-1
 365 729 l 2,2,3
 449 729 449 729 503.5 709 c 128,-1,4
 558 689 558 689 595 645 c 0,5,6
 684 539 684 539 684 365 c 0,7,8
 684 189 684 189 595 85 c 0,9,10
 524 0 524 0 365 0 c 2,11,-1
 80 0 l 1,0,-1
230 125 m 1,12,-1
 365 125 l 2,13,14
 534 125 534 125 534 364 c 0,15,16
 534 604 534 604 365 604 c 2,17,-1
 230 604 l 1,18,-1
 230 125 l 1,12,-1
EndSplineSet
Substitution2: "'c2sc' Capitals to Small Capitals in Latin lookup 4 subtable" sc.d
EndChar

StartChar: E
Encoding: 69 69 40
Width: 665
GlyphClass: 2
Flags: W
AnchorPoint: "Anchor-6" 367 377 basechar 0
AnchorPoint: "Anchor-4" 584 0 basechar 0
AnchorPoint: "Anchor-3" 359 730 basechar 0
AnchorPoint: "Anchor-2" 361 0 basechar 0
LayerCount: 2
Fore
SplineSet
230 314 m 1,0,-1
 230 125 l 1,1,-1
 625 125 l 1,2,-1
 625 0 l 1,3,-1
 80 0 l 1,4,-1
 80 729 l 1,5,-1
 607 729 l 1,6,-1
 607 604 l 1,7,-1
 230 604 l 1,8,-1
 230 439 l 1,9,-1
 579 439 l 1,10,-1
 579 314 l 1,11,-1
 230 314 l 1,0,-1
EndSplineSet
Substitution2: "'c2sc' Capitals to Small Capitals in Latin lookup 4 subtable" sc.e
EndChar

StartChar: F
Encoding: 70 70 41
Width: 632
GlyphClass: 2
Flags: W
AnchorPoint: "Anchor-6" 345 377 basechar 0
AnchorPoint: "Anchor-3" 347 730 basechar 0
AnchorPoint: "Anchor-2" 333 0 basechar 0
LayerCount: 2
Fore
SplineSet
230 314 m 1,0,-1
 230 0 l 1,1,-1
 80 0 l 1,2,-1
 80 729 l 1,3,-1
 592 729 l 1,4,-1
 592 604 l 1,5,-1
 230 604 l 1,6,-1
 230 439 l 1,7,-1
 549 439 l 1,8,-1
 549 314 l 1,9,-1
 230 314 l 1,0,-1
EndSplineSet
Substitution2: "'c2sc' Capitals to Small Capitals in Latin lookup 4 subtable" sc.f
EndChar

StartChar: G
Encoding: 71 71 42
Width: 769
GlyphClass: 2
Flags: W
AnchorPoint: "Anchor-6" 385 377 basechar 0
AnchorPoint: "Anchor-3" 395 730 basechar 0
AnchorPoint: "Anchor-2" 385 0 basechar 0
LayerCount: 2
Fore
SplineSet
568 498 m 1,0,1
 528 615 528 615 394 615 c 0,2,3
 299 615 299 615 244.5 548 c 128,-1,4
 190 481 190 481 190 363 c 0,5,6
 190 251 190 251 248.5 179 c 128,-1,7
 307 107 307 107 398 107 c 0,8,9
 412 107 412 107 430.5 110.5 c 128,-1,10
 449 114 449 114 475 124.5 c 128,-1,11
 501 135 501 135 523 152 c 128,-1,12
 545 169 545 169 562 199.5 c 128,-1,13
 579 230 579 230 583 269 c 1,14,-1
 417 269 l 1,15,-1
 417 394 l 1,16,-1
 709 394 l 1,17,-1
 709 0 l 1,18,-1
 619 0 l 1,19,-1
 601 96 l 1,20,21
 559 35 559 35 507 7 c 128,-1,22
 455 -21 455 -21 381 -21 c 0,23,24
 233 -21 233 -21 136.5 87 c 128,-1,25
 40 195 40 195 40 361 c 0,26,27
 40 531 40 531 138 637 c 128,-1,28
 236 743 236 743 393 743 c 0,29,30
 525 743 525 743 610 677 c 128,-1,31
 695 611 695 611 709 498 c 1,32,-1
 568 498 l 1,0,1
EndSplineSet
Substitution2: "'c2sc' Capitals to Small Capitals in Latin lookup 4 subtable" sc.g
EndChar

StartChar: H
Encoding: 72 72 43
Width: 749
GlyphClass: 2
Flags: W
AnchorPoint: "Anchor-6" 369 377 basechar 0
AnchorPoint: "Anchor-3" 373 730 basechar 0
AnchorPoint: "Anchor-2" 372 0 basechar 0
LayerCount: 2
Fore
SplineSet
519 331 m 1,0,-1
 230 331 l 1,1,-1
 230 0 l 1,2,-1
 80 0 l 1,3,-1
 80 729 l 1,4,-1
 230 729 l 1,5,-1
 230 456 l 1,6,-1
 518 456 l 1,7,-1
 518 729 l 1,8,-1
 669 729 l 1,9,-1
 669 0 l 1,10,-1
 519 0 l 1,11,-1
 519 331 l 1,0,-1
EndSplineSet
Substitution2: "'c2sc' Capitals to Small Capitals in Latin lookup 4 subtable" sc.h
EndChar

StartChar: I
Encoding: 73 73 44
Width: 310
GlyphClass: 2
Flags: W
AnchorPoint: "Anchor-6" 161 377 basechar 0
AnchorPoint: "Anchor-4" 197 0 basechar 0
AnchorPoint: "Anchor-3" 164 730 basechar 0
AnchorPoint: "Anchor-2" 159 0 basechar 0
LayerCount: 2
Fore
SplineSet
230 729 m 1,0,-1
 230 0 l 1,1,-1
 80 0 l 1,2,-1
 80 729 l 1,3,-1
 230 729 l 1,0,-1
EndSplineSet
Substitution2: "'c2sc' Capitals to Small Capitals in Latin lookup 4 subtable" sc.i
EndChar

StartChar: J
Encoding: 74 74 45
Width: 310
GlyphClass: 2
Flags: W
AnchorPoint: "Anchor-2" 159 0 basechar 0
AnchorPoint: "Anchor-3" 164 730 basechar 0
AnchorPoint: "Anchor-4" 197 0 basechar 0
AnchorPoint: "Anchor-6" 161 377 basechar 0
LayerCount: 2
Fore
SplineSet
230 729 m 5,0,-1
 230 0 l 5,1,-1
 80 0 l 5,2,-1
 80 729 l 5,3,-1
 230 729 l 5,0,-1
EndSplineSet
Substitution2: "'c2sc' Capitals to Small Capitals in Latin lookup 4 subtable" sc.j
EndChar

StartChar: K
Encoding: 75 75 46
Width: 728
GlyphClass: 2
Flags: W
AnchorPoint: "Anchor-6" 314 377 basechar 0
AnchorPoint: "Anchor-3" 326 730 basechar 0
AnchorPoint: "Anchor-2" 332 0 basechar 0
LayerCount: 2
Fore
SplineSet
230 244 m 1,0,-1
 230 0 l 1,1,-1
 80 0 l 1,2,-1
 80 729 l 1,3,-1
 230 729 l 1,4,-1
 230 409 l 1,5,-1
 515 729 l 1,6,-1
 692 729 l 1,7,-1
 401 415 l 1,8,-1
 723 0 l 1,9,-1
 544 0 l 1,10,-1
 305 322 l 1,11,-1
 230 244 l 1,0,-1
EndSplineSet
Substitution2: "'c2sc' Capitals to Small Capitals in Latin lookup 4 subtable" sc.k
EndChar

StartChar: L
Encoding: 76 76 47
Width: 619
GlyphClass: 2
Flags: W
AnchorPoint: "Anchor-6" 313 377 basechar 0
AnchorPoint: "Anchor-3" 320 730 basechar 0
AnchorPoint: "Anchor-2" 319 0 basechar 0
LayerCount: 2
Fore
SplineSet
230 729 m 1,0,-1
 230 125 l 1,1,-1
 579 125 l 1,2,-1
 579 0 l 1,3,-1
 80 0 l 1,4,-1
 80 729 l 1,5,-1
 230 729 l 1,0,-1
EndSplineSet
Substitution2: "'c2sc' Capitals to Small Capitals in Latin lookup 4 subtable" sc.l
EndChar

StartChar: M
Encoding: 77 77 48
Width: 870
GlyphClass: 2
Flags: W
AnchorPoint: "Anchor-6" 437 377 basechar 0
AnchorPoint: "Anchor-3" 438 730 basechar 0
AnchorPoint: "Anchor-2" 438 0 basechar 0
LayerCount: 2
Fore
SplineSet
230 568 m 1,0,-1
 230 0 l 1,1,-1
 80 0 l 1,2,-1
 80 729 l 1,3,-1
 304 729 l 1,4,-1
 436 149 l 1,5,-1
 564 729 l 1,6,-1
 790 729 l 1,7,-1
 790 0 l 1,8,-1
 640 0 l 1,9,-1
 640 568 l 1,10,-1
 511 0 l 1,11,-1
 361 0 l 1,12,-1
 230 568 l 1,0,-1
EndSplineSet
Substitution2: "'c2sc' Capitals to Small Capitals in Latin lookup 4 subtable" sc.m
EndChar

StartChar: N
Encoding: 78 78 49
Width: 753
GlyphClass: 2
Flags: W
AnchorPoint: "Anchor-6" 378 377 basechar 0
AnchorPoint: "Anchor-3" 377 730 basechar 0
AnchorPoint: "Anchor-2" 371 0 basechar 0
LayerCount: 2
Fore
SplineSet
523 0 m 1,0,-1
 230 504 l 1,1,-1
 230 0 l 1,2,-1
 80 0 l 1,3,-1
 80 729 l 1,4,-1
 234 729 l 1,5,-1
 523 233 l 1,6,-1
 523 729 l 1,7,-1
 673 729 l 1,8,-1
 673 0 l 1,9,-1
 523 0 l 1,0,-1
EndSplineSet
Substitution2: "'c2sc' Capitals to Small Capitals in Latin lookup 4 subtable" sc.n
EndChar

StartChar: O
Encoding: 79 79 50
Width: 782
GlyphClass: 2
Flags: W
AnchorPoint: "Anchor-6" 388 377 basechar 0
AnchorPoint: "Anchor-4" 463 0 basechar 0
AnchorPoint: "Anchor-3" 391 730 basechar 0
AnchorPoint: "Anchor-2" 394 0 basechar 0
LayerCount: 2
Fore
SplineSet
40 359 m 128,-1,1
 40 527 40 527 136.5 634 c 128,-1,2
 233 741 233 741 390 741 c 0,3,4
 548 741 548 741 645 634.5 c 128,-1,5
 742 528 742 528 742 354 c 0,6,7
 742 192 742 192 646.5 84.5 c 128,-1,8
 551 -23 551 -23 391 -23 c 0,9,10
 232 -23 232 -23 136 84 c 128,-1,0
 40 191 40 191 40 359 c 128,-1,1
391 613 m 0,11,12
 300 613 300 613 245 543.5 c 128,-1,13
 190 474 190 474 190 359 c 128,-1,14
 190 244 190 244 245 174.5 c 128,-1,15
 300 105 300 105 391 105 c 0,16,17
 481 105 481 105 536.5 174 c 128,-1,18
 592 243 592 243 592 355 c 0,19,20
 592 473 592 473 537.5 543 c 128,-1,21
 483 613 483 613 391 613 c 0,11,12
EndSplineSet
Substitution2: "'c2sc' Capitals to Small Capitals in Latin lookup 4 subtable" sc.o
EndChar

StartChar: P
Encoding: 80 80 51
Width: 677
GlyphClass: 2
Flags: W
AnchorPoint: "Anchor-6" 344 377 basechar 0
AnchorPoint: "Anchor-3" 347 730 basechar 0
AnchorPoint: "Anchor-2" 326 0 basechar 0
LayerCount: 2
Fore
SplineSet
230 260 m 1,0,-1
 230 0 l 1,1,-1
 80 0 l 1,2,-1
 80 729 l 1,3,-1
 402 729 l 2,4,5
 516 729 516 729 576.5 671 c 128,-1,6
 637 613 637 613 637 503 c 0,7,8
 637 392 637 392 577 326 c 128,-1,9
 517 260 517 260 417 260 c 2,10,-1
 230 260 l 1,0,-1
230 385 m 1,11,-1
 370 385 l 2,12,13
 487 385 487 385 487 494 c 0,14,15
 487 550 487 550 458.5 577 c 128,-1,16
 430 604 430 604 370 604 c 2,17,-1
 230 604 l 1,18,-1
 230 385 l 1,11,-1
EndSplineSet
Substitution2: "'c2sc' Capitals to Small Capitals in Latin lookup 4 subtable" sc.p
EndChar

StartChar: Q
Encoding: 81 81 52
Width: 782
GlyphClass: 2
Flags: W
AnchorPoint: "Anchor-6" 386 377 basechar 0
AnchorPoint: "Anchor-3" 387 730 basechar 0
AnchorPoint: "Anchor-2" 392 0 basechar 0
LayerCount: 2
Fore
SplineSet
391 741 m 0,0,1
 550 741 550 741 646 633 c 128,-1,2
 742 525 742 525 742 361 c 0,3,4
 742 287 742 287 720.5 217.5 c 128,-1,5
 699 148 699 148 662 103 c 1,6,-1
 742 27 l 1,7,-1
 666 -54 l 1,8,-1
 580 27 l 1,9,10
 497 -23 497 -23 391 -23 c 0,11,12
 233 -23 233 -23 136.5 84.5 c 128,-1,13
 40 192 40 192 40 359 c 128,-1,14
 40 526 40 526 136.5 633.5 c 128,-1,15
 233 741 233 741 391 741 c 0,0,1
477 278 m 1,16,-1
 559 200 l 1,17,18
 592 266 592 266 592 358 c 0,19,20
 592 474 592 474 537.5 543.5 c 128,-1,21
 483 613 483 613 391 613 c 0,22,23
 300 613 300 613 245 543.5 c 128,-1,24
 190 474 190 474 190 359 c 128,-1,25
 190 244 190 244 245 174.5 c 128,-1,26
 300 105 300 105 390 105 c 0,27,28
 442 105 442 105 478 124 c 1,29,-1
 401 197 l 1,30,-1
 477 278 l 1,16,-1
EndSplineSet
Substitution2: "'c2sc' Capitals to Small Capitals in Latin lookup 4 subtable" sc.q
EndChar

StartChar: R
Encoding: 82 82 53
Width: 722
GlyphClass: 2
Flags: W
AnchorPoint: "Anchor-6" 366 377 basechar 0
AnchorPoint: "Anchor-3" 371 730 basechar 0
AnchorPoint: "Anchor-2" 356 0 basechar 0
LayerCount: 2
Fore
SplineSet
493 125 m 0,0,1
 493 155 493 155 494 172 c 128,-1,2
 495 189 495 189 495 202 c 0,3,4
 495 248 495 248 473 268.5 c 128,-1,5
 451 289 451 289 402 289 c 2,6,-1
 230 289 l 1,7,-1
 230 0 l 1,8,-1
 80 0 l 1,9,-1
 80 729 l 1,10,-1
 471 729 l 2,11,12
 527 729 527 729 567.5 710 c 128,-1,13
 608 691 608 691 628.5 660 c 128,-1,14
 649 629 649 629 658 597.5 c 128,-1,15
 667 566 667 566 667 532 c 0,16,17
 667 400 667 400 544 352 c 1,18,19
 571 341 571 341 584 334.5 c 128,-1,20
 597 328 597 328 610.5 313 c 128,-1,21
 624 298 624 298 628.5 286 c 128,-1,22
 633 274 633 274 637.5 242 c 128,-1,23
 642 210 642 210 643 179 c 128,-1,24
 644 148 644 148 645 87 c 0,25,26
 645 45 645 45 677 27 c 1,27,-1
 677 0 l 1,28,-1
 516 0 l 1,29,30
 502 26 502 26 497.5 50 c 128,-1,31
 493 74 493 74 493 125 c 0,0,1
517 511 m 0,32,33
 517 567 517 567 491 585.5 c 128,-1,34
 465 604 465 604 411 604 c 2,35,-1
 230 604 l 1,36,-1
 230 414 l 1,37,-1
 411 414 l 2,38,39
 464 414 464 414 490.5 433 c 128,-1,40
 517 452 517 452 517 511 c 0,32,33
EndSplineSet
Substitution2: "'c2sc' Capitals to Small Capitals in Latin lookup 4 subtable" sc.r
EndChar

StartChar: S
Encoding: 83 83 54
Width: 681
GlyphClass: 2
Flags: W
AnchorPoint: "Anchor-6" 336 377 basechar 0
AnchorPoint: "Anchor-3" 328 730 basechar 0
AnchorPoint: "Anchor-2" 346 0 basechar 0
LayerCount: 2
Fore
SplineSet
615 507 m 1,0,-1
 475 507 l 1,1,2
 467 621 467 621 322 621 c 0,3,4
 264 621 264 621 230 596.5 c 128,-1,5
 196 572 196 572 196 531 c 0,6,7
 196 491 196 491 225 471.5 c 128,-1,8
 254 452 254 452 334 436 c 2,9,-1
 448 414 l 2,10,11
 549 394 549 394 595 346.5 c 128,-1,12
 641 299 641 299 641 213 c 0,13,14
 641 102 641 102 562 39.5 c 128,-1,15
 483 -23 483 -23 342 -23 c 0,16,17
 202 -23 202 -23 124.5 39 c 128,-1,18
 47 101 47 101 40 218 c 1,19,-1
 186 218 l 1,20,21
 190 159 190 159 232 128 c 128,-1,22
 274 97 274 97 350 97 c 0,23,24
 418 97 418 97 457.5 123 c 128,-1,25
 497 149 497 149 497 195 c 0,26,27
 497 239 497 239 466 263 c 128,-1,28
 435 287 435 287 360 301 c 2,29,-1
 258 321 l 2,30,31
 147 342 147 342 100 387 c 128,-1,32
 53 432 53 432 53 517 c 0,33,34
 53 624 53 624 125.5 682.5 c 128,-1,35
 198 741 198 741 329 741 c 0,36,37
 367 741 367 741 402.5 736 c 128,-1,38
 438 731 438 731 478 715.5 c 128,-1,39
 518 700 518 700 547 675.5 c 128,-1,40
 576 651 576 651 595.5 607.5 c 128,-1,41
 615 564 615 564 615 507 c 1,0,-1
EndSplineSet
Substitution2: "'c2sc' Capitals to Small Capitals in Latin lookup 4 subtable" sc.s
EndChar

StartChar: T
Encoding: 84 84 55
Width: 644
GlyphClass: 2
Flags: W
AnchorPoint: "Anchor-6" 325 377 basechar 0
AnchorPoint: "Anchor-3" 328 730 basechar 0
AnchorPoint: "Anchor-2" 325 0 basechar 0
LayerCount: 2
Fore
SplineSet
401 604 m 1,0,-1
 401 0 l 1,1,-1
 251 0 l 1,2,-1
 251 604 l 1,3,-1
 30 604 l 1,4,-1
 30 729 l 1,5,-1
 614 729 l 1,6,-1
 614 604 l 1,7,-1
 401 604 l 1,0,-1
EndSplineSet
Substitution2: "'c2sc' Capitals to Small Capitals in Latin lookup 4 subtable" sc.t
EndChar

StartChar: U
Encoding: 85 85 56
Width: 663
GlyphClass: 2
Flags: W
AnchorPoint: "Anchor-2" 328 0 basechar 0
AnchorPoint: "Anchor-3" 337 730 basechar 0
AnchorPoint: "Anchor-6" 331 377 basechar 0
LayerCount: 2
Fore
SplineSet
393 0 m 5,0,-1
 266 0 l 5,1,-1
 20 729 l 5,2,-1
 171 729 l 5,3,-1
 333 180 l 5,4,-1
 492 729 l 5,5,-1
 643 729 l 5,6,-1
 393 0 l 5,0,-1
EndSplineSet
Substitution2: "'c2sc' Capitals to Small Capitals in Latin lookup 4 subtable" sc.u
EndChar

StartChar: V
Encoding: 86 86 57
Width: 663
GlyphClass: 2
Flags: W
AnchorPoint: "Anchor-6" 331 377 basechar 0
AnchorPoint: "Anchor-3" 337 730 basechar 0
AnchorPoint: "Anchor-2" 328 0 basechar 0
LayerCount: 2
Fore
SplineSet
393 0 m 1,0,-1
 266 0 l 1,1,-1
 20 729 l 1,2,-1
 171 729 l 1,3,-1
 333 180 l 1,4,-1
 492 729 l 1,5,-1
 643 729 l 1,6,-1
 393 0 l 1,0,-1
EndSplineSet
Substitution2: "'c2sc' Capitals to Small Capitals in Latin lookup 4 subtable" sc.v
EndChar

StartChar: W
Encoding: 87 87 58
Width: 959
GlyphClass: 2
Flags: W
AnchorPoint: "Anchor-6" 477 377 basechar 0
AnchorPoint: "Anchor-3" 475 730 basechar 0
AnchorPoint: "Anchor-2" 479 0 basechar 0
LayerCount: 2
Fore
SplineSet
737 0 m 1,0,-1
 602 0 l 1,1,-1
 480 569 l 1,2,-1
 361 0 l 1,3,-1
 226 0 l 1,4,-1
 20 729 l 1,5,-1
 179 729 l 1,6,-1
 292 183 l 1,7,-1
 405 729 l 1,8,-1
 553 729 l 1,9,-1
 671 182 l 1,10,-1
 780 729 l 1,11,-1
 939 729 l 1,12,-1
 737 0 l 1,0,-1
EndSplineSet
Substitution2: "'c2sc' Capitals to Small Capitals in Latin lookup 4 subtable" sc.w
EndChar

StartChar: X
Encoding: 88 88 59
Width: 675
GlyphClass: 2
Flags: W
AnchorPoint: "Anchor-6" 339 377 basechar 0
AnchorPoint: "Anchor-3" 344 730 basechar 0
AnchorPoint: "Anchor-2" 337 0 basechar 0
LayerCount: 2
Fore
SplineSet
419 372 m 1,0,-1
 653 0 l 1,1,-1
 475 0 l 1,2,-1
 335 253 l 1,3,-1
 196 0 l 1,4,-1
 22 0 l 1,5,-1
 252 367 l 1,6,-1
 30 729 l 1,7,-1
 208 729 l 1,8,-1
 336 489 l 1,9,-1
 470 729 l 1,10,-1
 644 729 l 1,11,-1
 419 372 l 1,0,-1
EndSplineSet
Substitution2: "'c2sc' Capitals to Small Capitals in Latin lookup 4 subtable" sc.x
EndChar

StartChar: Y
Encoding: 89 89 60
Width: 643
GlyphClass: 2
Flags: W
AnchorPoint: "Anchor-6" 324 377 basechar 0
AnchorPoint: "Anchor-4" 370 0 basechar 0
AnchorPoint: "Anchor-3" 325 730 basechar 0
AnchorPoint: "Anchor-2" 330 0 basechar 0
LayerCount: 2
Fore
SplineSet
402 270 m 1,0,-1
 402 0 l 1,1,-1
 252 0 l 1,2,-1
 252 270 l 1,3,-1
 10 729 l 1,4,-1
 177 729 l 1,5,-1
 326 407 l 1,6,-1
 465 729 l 1,7,-1
 633 729 l 1,8,-1
 402 270 l 1,0,-1
EndSplineSet
Substitution2: "'c2sc' Capitals to Small Capitals in Latin lookup 4 subtable" sc.y
EndChar

StartChar: Z
Encoding: 90 90 61
Width: 608
GlyphClass: 2
Flags: W
AnchorPoint: "Anchor-6" 317 377 basechar 0
AnchorPoint: "Anchor-3" 320 730 basechar 0
AnchorPoint: "Anchor-2" 301 0 basechar 0
LayerCount: 2
Fore
SplineSet
578 729 m 1,0,-1
 578 604 l 1,1,-1
 206 125 l 1,2,-1
 578 125 l 1,3,-1
 578 0 l 1,4,-1
 30 0 l 1,5,-1
 30 125 l 1,6,-1
 403 604 l 1,7,-1
 30 604 l 1,8,-1
 30 729 l 1,9,-1
 578 729 l 1,0,-1
EndSplineSet
Substitution2: "'c2sc' Capitals to Small Capitals in Latin lookup 4 subtable" sc.z
EndChar

StartChar: bracketleft
Encoding: 91 91 62
Width: 333
GlyphClass: 2
Flags: W
LayerCount: 2
Fore
SplineSet
308 729 m 1,0,-1
 308 627 l 1,1,-1
 196 627 l 1,2,-1
 196 -98 l 1,3,-1
 308 -98 l 1,4,-1
 308 -200 l 1,5,-1
 66 -200 l 1,6,-1
 66 729 l 1,7,-1
 308 729 l 1,0,-1
EndSplineSet
EndChar

StartChar: backslash
Encoding: 92 92 63
Width: 278
GlyphClass: 2
Flags: W
LayerCount: 2
Fore
SplineSet
55 714 m 1,0,-1
 289 -14 l 1,1,-1
 222 -14 l 1,2,-1
 -12 714 l 1,3,-1
 55 714 l 1,0,-1
EndSplineSet
EndChar

StartChar: bracketright
Encoding: 93 93 64
Width: 333
GlyphClass: 2
Flags: W
LayerCount: 2
Fore
SplineSet
18 -200 m 1,0,-1
 18 -98 l 1,1,-1
 130 -98 l 1,2,-1
 130 627 l 1,3,-1
 18 627 l 1,4,-1
 18 729 l 1,5,-1
 260 729 l 1,6,-1
 260 -200 l 1,7,-1
 18 -200 l 1,0,-1
EndSplineSet
EndChar

StartChar: asciicircum
Encoding: 94 94 65
Width: 584
GlyphClass: 2
Flags: W
LayerCount: 2
Fore
SplineSet
522 270 m 1,0,-1
 409 270 l 1,1,-1
 288 570 l 1,2,-1
 173 270 l 1,3,-1
 61 270 l 1,4,-1
 226 695 l 1,5,-1
 351 695 l 1,6,-1
 522 270 l 1,0,-1
EndSplineSet
EndChar

StartChar: underscore
Encoding: 95 95 66
Width: 556
GlyphClass: 2
Flags: W
LayerCount: 2
Fore
SplineSet
578 -120 m 1,0,-1
 578 -200 l 1,1,-1
 -22 -200 l 1,2,-1
 -22 -120 l 1,3,-1
 578 -120 l 1,0,-1
EndSplineSet
EndChar

StartChar: grave
Encoding: 96 96 67
Width: 250
GlyphClass: 2
Flags: W
LayerCount: 2
Fore
SplineSet
17 757 m 1,0,-1
 143 757 l 1,1,-1
 213 607 l 1,2,-1
 143 607 l 1,3,-1
 17 757 l 1,0,-1
EndSplineSet
EndChar

StartChar: a
Encoding: 97 97 68
Width: 566
GlyphClass: 2
Flags: W
AnchorPoint: "Anchor-6" 285 293 basechar 0
AnchorPoint: "Anchor-5" 425 550 basechar 0
AnchorPoint: "Anchor-4" 463 0 basechar 0 {150-150 0} {}
AnchorPoint: "Anchor-3" 286 550 basechar 0
AnchorPoint: "Anchor-2" 266 0 basechar 0
LayerCount: 2
Fore
SplineSet
204 -23 m 0,0,1
 130 -23 130 -23 85 21.5 c 128,-1,2
 40 66 40 66 40 139 c 0,3,4
 40 282 40 282 199 309 c 2,5,-1
 255 319 l 2,6,7
 257 319 257 319 275 321.5 c 128,-1,8
 293 324 293 324 298 325.5 c 128,-1,9
 303 327 303 327 317.5 330 c 128,-1,10
 332 333 332 333 338 337 c 128,-1,11
 344 341 344 341 352.5 347.5 c 128,-1,12
 361 354 361 354 364 362.5 c 128,-1,13
 367 371 367 371 367 382 c 0,14,15
 367 436 367 436 286 436 c 0,16,17
 234 436 234 436 213 420 c 128,-1,18
 192 404 192 404 187 362 c 1,19,-1
 52 362 l 1,20,21
 65 549 65 549 283 549 c 0,22,23
 504 549 504 549 504 383 c 2,24,-1
 504 83 l 2,25,26
 504 46 504 46 536 17 c 1,27,-1
 536 0 l 1,28,-1
 384 0 l 1,29,30
 368 20 368 20 368 54 c 1,31,32
 294 -23 294 -23 204 -23 c 0,0,1
367 217 m 2,33,-1
 367 255 l 1,34,35
 348 246 348 246 308 238 c 2,36,-1
 260 229 l 2,37,38
 216 220 216 220 198 203 c 128,-1,39
 180 186 180 186 180 155 c 0,40,41
 180 125 180 125 200.5 107.5 c 128,-1,42
 221 90 221 90 256 90 c 0,43,44
 309 90 309 90 338 123 c 128,-1,45
 367 156 367 156 367 217 c 2,33,-1
EndSplineSet
Substitution2: "'smcp' Lowercase to Small Capitals in Latin lookup 2 subtable" sc.a
EndChar

StartChar: b
Encoding: 98 98 69
Width: 621
GlyphClass: 2
Flags: W
AnchorPoint: "Anchor-6" 328 293 basechar 0
AnchorPoint: "Anchor-5" 465 550 basechar 0
AnchorPoint: "Anchor-3" 326 730 basechar 0
AnchorPoint: "Anchor-2" 330 0 basechar 0
LayerCount: 2
Fore
SplineSet
354 549 m 0,0,1
 451 549 451 549 516 468.5 c 128,-1,2
 581 388 581 388 581 263 c 0,3,4
 581 141 581 141 516 59 c 128,-1,5
 451 -23 451 -23 354 -23 c 0,6,7
 255 -23 255 -23 205 55 c 1,8,-1
 205 0 l 1,9,-1
 65 0 l 1,10,-1
 65 729 l 1,11,-1
 205 729 l 1,12,-1
 205 470 l 1,13,14
 255 549 255 549 354 549 c 0,0,1
323 432 m 128,-1,16
 271 432 271 432 238 385.5 c 128,-1,17
 205 339 205 339 205 265 c 0,18,19
 205 188 205 188 237.5 141 c 128,-1,20
 270 94 270 94 323 94 c 0,21,22
 375 94 375 94 408 141 c 128,-1,23
 441 188 441 188 441 262 c 0,24,25
 441 337 441 337 408 384.5 c 128,-1,15
 375 432 375 432 323 432 c 128,-1,16
EndSplineSet
Substitution2: "'smcp' Lowercase to Small Capitals in Latin lookup 2 subtable" sc.b
EndChar

StartChar: c
Encoding: 99 99 70
Width: 558
GlyphClass: 2
Flags: W
AnchorPoint: "Anchor-6" 292 293 basechar 0
AnchorPoint: "Anchor-5" 425 550 basechar 0
AnchorPoint: "Anchor-3" 295 550 basechar 0
AnchorPoint: "Anchor-2" 295 0 basechar 0
LayerCount: 2
Fore
SplineSet
294 436 m 0,0,1
 180 436 180 436 180 259 c 0,2,3
 180 180 180 180 210.5 135 c 128,-1,4
 241 90 241 90 294 90 c 0,5,6
 335 90 335 90 358 112.5 c 128,-1,7
 381 135 381 135 394 187 c 1,8,-1
 528 187 l 1,9,10
 518 90 518 90 454.5 33.5 c 128,-1,11
 391 -23 391 -23 293 -23 c 0,12,13
 173 -23 173 -23 106.5 51 c 128,-1,14
 40 125 40 125 40 259 c 0,15,16
 40 397 40 397 107 473 c 128,-1,17
 174 549 174 549 295 549 c 0,18,19
 396 549 396 549 458.5 493 c 128,-1,20
 521 437 521 437 528 338 c 1,21,-1
 394 338 l 1,22,23
 382 391 382 391 359.5 413.5 c 128,-1,24
 337 436 337 436 294 436 c 0,0,1
EndSplineSet
Substitution2: "'smcp' Lowercase to Small Capitals in Latin lookup 2 subtable" sc.c
EndChar

StartChar: d
Encoding: 100 100 71
Width: 621
GlyphClass: 2
Flags: W
AnchorPoint: "Anchor-6" 294 293 basechar 0
AnchorPoint: "Anchor-5" 605 550 basechar 0
AnchorPoint: "Anchor-3" 299 730 basechar 0
AnchorPoint: "Anchor-2" 282 0 basechar 0
LayerCount: 2
Fore
SplineSet
267 -23 m 0,0,1
 167 -23 167 -23 103.5 59 c 128,-1,2
 40 141 40 141 40 262 c 0,3,4
 40 384 40 384 105 466.5 c 128,-1,5
 170 549 170 549 267 549 c 0,6,7
 365 549 365 549 416 470 c 1,8,-1
 416 729 l 1,9,-1
 556 729 l 1,10,-1
 556 0 l 1,11,-1
 416 0 l 1,12,-1
 416 55 l 1,13,14
 364 -23 364 -23 267 -23 c 0,0,1
298 432 m 0,15,16
 246 432 246 432 213 384.5 c 128,-1,17
 180 337 180 337 180 262 c 0,18,19
 180 188 180 188 213 141 c 128,-1,20
 246 94 246 94 298 94 c 128,-1,21
 350 94 350 94 383 140 c 128,-1,22
 416 186 416 186 416 260 c 0,23,24
 416 337 416 337 383.5 384.5 c 128,-1,25
 351 432 351 432 298 432 c 0,15,16
EndSplineSet
Substitution2: "'smcp' Lowercase to Small Capitals in Latin lookup 2 subtable" sc.d
EndChar

StartChar: e
Encoding: 101 101 72
Width: 583
GlyphClass: 2
Flags: W
AnchorPoint: "Anchor-6" 291 293 basechar 0
AnchorPoint: "Anchor-5" 455 550 basechar 0
AnchorPoint: "Anchor-4" 355 0 basechar 0
AnchorPoint: "Anchor-3" 292 550 basechar 0
AnchorPoint: "Anchor-2" 292 0 basechar 0
LayerCount: 2
Fore
SplineSet
290 549 m 0,0,1
 325 549 325 549 358 541 c 128,-1,2
 391 533 391 533 425.5 512 c 128,-1,3
 460 491 460 491 485.5 458.5 c 128,-1,4
 511 426 511 426 527 372.5 c 128,-1,5
 543 319 543 319 543 250 c 0,6,7
 543 238 543 238 542 226 c 1,8,-1
 180 226 l 1,9,10
 181 195 181 195 185.5 172.5 c 128,-1,11
 190 150 190 150 201.5 128.5 c 128,-1,12
 213 107 213 107 235.5 95.5 c 128,-1,13
 258 84 258 84 292 84 c 0,14,15
 372 84 372 84 399 152 c 1,16,-1
 537 152 l 1,17,18
 514 72 514 72 446 24.5 c 128,-1,19
 378 -23 378 -23 287 -23 c 0,20,21
 172 -23 172 -23 106 51.5 c 128,-1,22
 40 126 40 126 40 256 c 0,23,24
 40 392 40 392 107 470.5 c 128,-1,25
 174 549 174 549 290 549 c 0,0,1
397 319 m 1,26,27
 392 378 392 378 364.5 410 c 128,-1,28
 337 442 337 442 288 442 c 0,29,30
 196 442 196 442 182 319 c 1,31,-1
 397 319 l 1,26,27
EndSplineSet
Substitution2: "'smcp' Lowercase to Small Capitals in Latin lookup 2 subtable" sc.e
EndChar

StartChar: f
Encoding: 102 102 73
Width: 343
GlyphClass: 2
Flags: W
AnchorPoint: "Anchor-6" 165 293 basechar 0
AnchorPoint: "Anchor-5" 345 550 basechar 0
AnchorPoint: "Anchor-3" 229 730 basechar 0
AnchorPoint: "Anchor-2" 161 0 basechar 0
LayerCount: 2
Fore
SplineSet
313 529 m 1,0,-1
 313 436 l 1,1,-1
 230 436 l 1,2,-1
 230 0 l 1,3,-1
 90 0 l 1,4,-1
 90 436 l 1,5,-1
 14 436 l 1,6,-1
 14 529 l 1,7,-1
 90 529 l 1,8,-1
 90 594 l 2,9,10
 90 729 90 729 228 729 c 0,11,12
 269 729 269 729 308 726 c 1,13,-1
 308 621 l 1,14,15
 290 624 290 624 268 624 c 0,16,17
 230 624 230 624 230 582 c 2,18,-1
 230 529 l 1,19,-1
 313 529 l 1,0,-1
EndSplineSet
Substitution2: "'smcp' Lowercase to Small Capitals in Latin lookup 2 subtable" sc.f
EndChar

StartChar: g
Encoding: 103 103 74
Width: 612
GlyphClass: 2
Flags: W
AnchorPoint: "Anchor-6" 292 293 basechar 0
AnchorPoint: "Anchor-5" 435 550 basechar 0
AnchorPoint: "Anchor-3" 285 550 basechar 0
AnchorPoint: "Anchor-2" 295 -200 basechar 0
LayerCount: 2
Fore
SplineSet
414 540 m 1,0,-1
 547 540 l 1,1,-1
 547 -18 l 2,2,3
 547 -113 547 -113 479.5 -165.5 c 128,-1,4
 412 -218 412 -218 290 -218 c 0,5,6
 182 -218 182 -218 117 -176.5 c 128,-1,7
 52 -135 52 -135 51 -65 c 1,8,-1
 196 -65 l 1,9,10
 213 -128 213 -128 295 -128 c 0,11,12
 348 -128 348 -128 381 -97.5 c 128,-1,13
 414 -67 414 -67 414 -18 c 2,14,-1
 414 55 l 1,15,16
 375 11 375 11 341.5 -6 c 128,-1,17
 308 -23 308 -23 261 -23 c 0,18,19
 161 -23 161 -23 100.5 54 c 128,-1,20
 40 131 40 131 40 257 c 0,21,22
 40 382 40 382 104 465.5 c 128,-1,23
 168 549 168 549 264 549 c 0,24,25
 354 549 354 549 414 457 c 1,26,-1
 414 540 l 1,0,-1
294 432 m 0,27,28
 243 432 243 432 211.5 384 c 128,-1,29
 180 336 180 336 180 259 c 0,30,31
 180 186 180 186 211 140 c 128,-1,32
 242 94 242 94 292 94 c 0,33,34
 347 94 347 94 381.5 140 c 128,-1,35
 416 186 416 186 416 259 c 0,36,37
 416 334 416 334 381.5 383 c 128,-1,38
 347 432 347 432 294 432 c 0,27,28
EndSplineSet
Substitution2: "'smcp' Lowercase to Small Capitals in Latin lookup 2 subtable" sc.g
EndChar

StartChar: h
Encoding: 104 104 75
Width: 604
GlyphClass: 2
Flags: W
AnchorPoint: "Anchor-6" 303 293 basechar 0
AnchorPoint: "Anchor-5" 435 550 basechar 0
AnchorPoint: "Anchor-3" 318 730 basechar 0
AnchorPoint: "Anchor-2" 302 0 basechar 0
LayerCount: 2
Fore
SplineSet
399 330 m 2,0,1
 399 430 399 430 313 430 c 0,2,3
 266 430 266 430 235.5 400 c 128,-1,4
 205 370 205 370 205 324 c 2,5,-1
 205 0 l 1,6,-1
 65 0 l 1,7,-1
 65 729 l 1,8,-1
 205 729 l 1,9,-1
 205 462 l 1,10,11
 263 549 263 549 363 549 c 0,12,13
 395 549 395 549 423.5 540.5 c 128,-1,14
 452 532 452 532 479.5 512.5 c 128,-1,15
 507 493 507 493 523 454 c 128,-1,16
 539 415 539 415 539 362 c 2,17,-1
 539 0 l 1,18,-1
 399 0 l 1,19,-1
 399 330 l 2,0,1
EndSplineSet
Substitution2: "'smcp' Lowercase to Small Capitals in Latin lookup 2 subtable" sc.h
EndChar

StartChar: i
Encoding: 105 105 76
Width: 280
GlyphClass: 2
Flags: W
AnchorPoint: "Anchor-6" 140 293 basechar 0
AnchorPoint: "Anchor-5" 265 574 basechar 0
AnchorPoint: "Anchor-4" 167 0 basechar 0
AnchorPoint: "Anchor-2" 137 0 basechar 0
LayerCount: 2
Fore
SplineSet
210 564 m 5,0,-1
 210 0 l 5,1,-1
 70 0 l 5,2,-1
 70 564 l 5,3,-1
 210 564 l 5,0,-1
EndSplineSet
Substitution2: "'smcp' Lowercase to Small Capitals in Latin lookup 2 subtable" sc.i
Substitution2: "'smcp' Lowercase to Small Capitals in Latin lookup 1 subtable" sc.i_dot
EndChar

StartChar: j
Encoding: 106 106 77
Width: 280
GlyphClass: 2
Flags: W
AnchorPoint: "Anchor-2" 137 0 basechar 0
AnchorPoint: "Anchor-4" 167 0 basechar 0
AnchorPoint: "Anchor-6" 140 293 basechar 0
AnchorPoint: "Anchor-5" 265 574 basechar 0
LayerCount: 2
Fore
SplineSet
210 564 m 5,0,-1
 210 0 l 5,1,-1
 70 0 l 5,2,-1
 70 564 l 5,3,-1
 210 564 l 5,0,-1
70 564 m 1,4,-1
 210 564 l 1025,5,-1
EndSplineSet
Substitution2: "'smcp' Lowercase to Small Capitals in Latin lookup 2 subtable" sc.j
EndChar

StartChar: k
Encoding: 107 107 78
Width: 564
GlyphClass: 2
Flags: W
AnchorPoint: "Anchor-6" 262 293 basechar 0
AnchorPoint: "Anchor-5" 425 550 basechar 0
AnchorPoint: "Anchor-3" 304 730 basechar 0
AnchorPoint: "Anchor-2" 279 0 basechar 0
LayerCount: 2
Fore
SplineSet
205 330 m 1,0,-1
 382 540 l 1,1,-1
 541 540 l 1,2,-1
 357 336 l 1,3,-1
 554 0 l 1,4,-1
 390 0 l 1,5,-1
 261 238 l 1,6,-1
 205 177 l 1,7,-1
 205 0 l 1,8,-1
 65 0 l 1,9,-1
 65 729 l 1,10,-1
 205 729 l 1,11,-1
 205 330 l 1,0,-1
EndSplineSet
Substitution2: "'smcp' Lowercase to Small Capitals in Latin lookup 2 subtable" sc.k
EndChar

StartChar: l
Encoding: 108 108 79
Width: 270
GlyphClass: 2
Flags: W
AnchorPoint: "Anchor-6" 136 293 basechar 0
AnchorPoint: "Anchor-5" 265 550 basechar 0
AnchorPoint: "Anchor-3" 141 730 basechar 0
AnchorPoint: "Anchor-2" 132 0 basechar 0
LayerCount: 2
Fore
SplineSet
205 729 m 1,0,-1
 205 0 l 1,1,-1
 65 0 l 1,2,-1
 65 729 l 1,3,-1
 205 729 l 1,0,-1
EndSplineSet
Substitution2: "'smcp' Lowercase to Small Capitals in Latin lookup 2 subtable" sc.l
EndChar

StartChar: m
Encoding: 109 109 80
Width: 894
GlyphClass: 2
Flags: W
AnchorPoint: "Anchor-6" 450 293 basechar 0
AnchorPoint: "Anchor-5" 725 550 basechar 0
AnchorPoint: "Anchor-3" 446 550 basechar 0
AnchorPoint: "Anchor-2" 446 0 basechar 0
LayerCount: 2
Fore
SplineSet
65 540 m 1,0,-1
 204 540 l 1,1,-1
 204 473 l 1,2,3
 239 514 239 514 272.5 531.5 c 128,-1,4
 306 549 306 549 352 549 c 0,5,6
 458 549 458 549 499 469 c 1,7,8
 559 549 559 549 657 549 c 0,9,10
 738 549 738 549 783.5 505 c 128,-1,11
 829 461 829 461 829 382 c 2,12,-1
 829 0 l 1,13,-1
 689 0 l 1,14,-1
 689 360 l 2,15,16
 689 392 689 392 668.5 411 c 128,-1,17
 648 430 648 430 613 430 c 0,18,19
 568 430 568 430 542.5 402 c 128,-1,20
 517 374 517 374 517 324 c 2,21,-1
 517 0 l 1,22,-1
 377 0 l 1,23,-1
 377 360 l 2,24,25
 377 392 377 392 356.5 411 c 128,-1,26
 336 430 336 430 301 430 c 0,27,28
 256 430 256 430 230.5 402 c 128,-1,29
 205 374 205 374 205 324 c 2,30,-1
 205 0 l 1,31,-1
 65 0 l 1,32,-1
 65 540 l 1,0,-1
EndSplineSet
Substitution2: "'smcp' Lowercase to Small Capitals in Latin lookup 2 subtable" sc.m
EndChar

StartChar: n
Encoding: 110 110 81
Width: 613
GlyphClass: 2
Flags: W
AnchorPoint: "Anchor-6" 309 293 basechar 0
AnchorPoint: "Anchor-5" 445 550 basechar 0
AnchorPoint: "Anchor-3" 335 550 basechar 0
AnchorPoint: "Anchor-2" 304 0 basechar 0
LayerCount: 2
Fore
SplineSet
65 540 m 1,0,-1
 205 540 l 1,1,-1
 205 462 l 1,2,3
 263 549 263 549 367 549 c 0,4,5
 453 549 453 549 500.5 500 c 128,-1,6
 548 451 548 451 548 362 c 2,7,-1
 548 0 l 1,8,-1
 408 0 l 1,9,-1
 408 333 l 2,10,11
 408 430 408 430 318 430 c 0,12,13
 267 430 267 430 236 401 c 128,-1,14
 205 372 205 372 205 324 c 2,15,-1
 205 0 l 1,16,-1
 65 0 l 1,17,-1
 65 540 l 1,0,-1
EndSplineSet
Substitution2: "'smcp' Lowercase to Small Capitals in Latin lookup 2 subtable" sc.n
EndChar

StartChar: o
Encoding: 111 111 82
Width: 614
GlyphClass: 2
Flags: W
AnchorPoint: "Anchor-6" 305 293 basechar 0
AnchorPoint: "Anchor-5" 455 550 basechar 0
AnchorPoint: "Anchor-4" 384 0 basechar 0
AnchorPoint: "Anchor-3" 310 550 basechar 0
AnchorPoint: "Anchor-2" 312 0 basechar 0
LayerCount: 2
Fore
SplineSet
306 549 m 0,0,1
 433 549 433 549 503.5 472.5 c 128,-1,2
 574 396 574 396 574 259 c 0,3,4
 574 129 574 129 502 53 c 128,-1,5
 430 -23 430 -23 307 -23 c 0,6,7
 182 -23 182 -23 111 53.5 c 128,-1,8
 40 130 40 130 40 263 c 128,-1,9
 40 396 40 396 111 472.5 c 128,-1,10
 182 549 182 549 306 549 c 0,0,1
307 436 m 0,11,12
 250 436 250 436 215 388 c 128,-1,13
 180 340 180 340 180 263 c 128,-1,14
 180 186 180 186 215 138 c 128,-1,15
 250 90 250 90 307 90 c 0,16,17
 363 90 363 90 398.5 137.5 c 128,-1,18
 434 185 434 185 434 261 c 0,19,20
 434 341 434 341 399.5 388.5 c 128,-1,21
 365 436 365 436 307 436 c 0,11,12
EndSplineSet
Substitution2: "'smcp' Lowercase to Small Capitals in Latin lookup 2 subtable" sc.o
EndChar

StartChar: p
Encoding: 112 112 83
Width: 621
GlyphClass: 2
Flags: W
AnchorPoint: "Anchor-6" 322 293 basechar 0
AnchorPoint: "Anchor-5" 465 550 basechar 0
AnchorPoint: "Anchor-3" 321 550 basechar 0
AnchorPoint: "Anchor-2" 362 -200 basechar 0
LayerCount: 2
Fore
SplineSet
355 549 m 0,0,1
 457 549 457 549 519 467 c 128,-1,2
 581 385 581 385 581 262 c 128,-1,3
 581 139 581 139 516.5 57.5 c 128,-1,4
 452 -24 452 -24 355 -24 c 0,5,6
 255 -24 255 -24 205 64 c 1,7,-1
 205 -218 l 1,8,-1
 65 -218 l 1,9,-1
 65 540 l 1,10,-1
 205 540 l 1,11,-1
 205 460 l 1,12,13
 255 549 255 549 355 549 c 0,0,1
323 432 m 128,-1,15
 270 432 270 432 237.5 385 c 128,-1,16
 205 338 205 338 205 262 c 128,-1,17
 205 186 205 186 237.5 139.5 c 128,-1,18
 270 93 270 93 323 93 c 0,19,20
 375 93 375 93 408 140 c 128,-1,21
 441 187 441 187 441 260 c 0,22,23
 441 337 441 337 408.5 384.5 c 128,-1,14
 376 432 376 432 323 432 c 128,-1,15
EndSplineSet
Substitution2: "'smcp' Lowercase to Small Capitals in Latin lookup 2 subtable" sc.p
EndChar

StartChar: q
Encoding: 113 113 84
Width: 621
GlyphClass: 2
Flags: W
AnchorPoint: "Anchor-6" 285 293 basechar 0
AnchorPoint: "Anchor-5" 445 550 basechar 0
AnchorPoint: "Anchor-3" 278 550 basechar 0
AnchorPoint: "Anchor-2" 301 -200 basechar 0
LayerCount: 2
Fore
SplineSet
265 -24 m 0,0,1
 165 -24 165 -24 102.5 57 c 128,-1,2
 40 138 40 138 40 262 c 128,-1,3
 40 386 40 386 104.5 467.5 c 128,-1,4
 169 549 169 549 266 549 c 0,5,6
 366 549 366 549 416 460 c 1,7,-1
 416 540 l 1,8,-1
 556 540 l 1,9,-1
 556 -218 l 1,10,-1
 416 -218 l 1,11,-1
 416 64 l 1,12,13
 367 -24 367 -24 265 -24 c 0,0,1
298 432 m 128,-1,15
 245 432 245 432 212.5 385 c 128,-1,16
 180 338 180 338 180 262 c 128,-1,17
 180 186 180 186 212.5 139.5 c 128,-1,18
 245 93 245 93 298 93 c 0,19,20
 350 93 350 93 383 139 c 128,-1,21
 416 185 416 185 416 259 c 0,22,23
 416 338 416 338 383.5 385 c 128,-1,14
 351 432 351 432 298 432 c 128,-1,15
EndSplineSet
Substitution2: "'smcp' Lowercase to Small Capitals in Latin lookup 2 subtable" sc.q
EndChar

StartChar: r
Encoding: 114 114 85
Width: 392
GlyphClass: 2
Flags: W
AnchorPoint: "Anchor-6" 134 293 basechar 0
AnchorPoint: "Anchor-5" 315 550 basechar 0
AnchorPoint: "Anchor-3" 223 550 basechar 0
AnchorPoint: "Anchor-2" 137 0 basechar 0
LayerCount: 2
Fore
SplineSet
65 540 m 1,0,-1
 205 540 l 1,1,-1
 205 434 l 1,2,3
 227 489 227 489 267 519 c 128,-1,4
 307 549 307 549 355 549 c 0,5,6
 364 549 364 549 372 548 c 1,7,-1
 372 406 l 1,8,9
 347 410 347 410 328 410 c 0,10,11
 205 410 205 410 205 287 c 2,12,-1
 205 0 l 1,13,-1
 65 0 l 1,14,-1
 65 540 l 1,0,-1
EndSplineSet
Substitution2: "'smcp' Lowercase to Small Capitals in Latin lookup 2 subtable" sc.r
EndChar

StartChar: s
Encoding: 115 115 86
Width: 556
GlyphClass: 2
Flags: W
AnchorPoint: "Anchor-6" 280 293 basechar 0
AnchorPoint: "Anchor-5" 415 550 basechar 0
AnchorPoint: "Anchor-3" 273 550 basechar 0
AnchorPoint: "Anchor-2" 290 0 basechar 0
LayerCount: 2
Fore
SplineSet
167 157 m 1,0,1
 174 123 174 123 195.5 105 c 128,-1,2
 217 87 217 87 277 87 c 0,3,4
 326 87 326 87 353.5 101 c 128,-1,5
 381 115 381 115 381 140 c 0,6,7
 381 156 381 156 370.5 166 c 128,-1,8
 360 176 360 176 334 184 c 2,9,-1
 167 236 l 2,10,11
 166 236 166 236 155 239.5 c 128,-1,12
 144 243 144 243 139.5 245 c 128,-1,13
 135 247 135 247 123 251.5 c 128,-1,14
 111 256 111 256 104.5 261 c 128,-1,15
 98 266 98 266 88 273.5 c 128,-1,16
 78 281 78 281 72.5 290 c 128,-1,17
 67 299 67 299 61 310.5 c 128,-1,18
 55 322 55 322 52 337 c 128,-1,19
 49 352 49 352 49 369 c 0,20,21
 49 452 49 452 108.5 500.5 c 128,-1,22
 168 549 168 549 271 549 c 0,23,24
 380 549 380 549 442 500.5 c 128,-1,25
 504 452 504 452 506 366 c 1,26,-1
 371 366 l 1,27,28
 370 439 370 439 270 439 c 0,29,30
 233 439 233 439 211 425.5 c 128,-1,31
 189 412 189 412 189 389 c 0,32,33
 189 373 189 373 199 364.5 c 128,-1,34
 209 356 209 356 238 347 c 2,35,-1
 415 296 l 2,36,37
 521 265 521 265 521 160 c 0,38,39
 521 129 521 129 510 99.5 c 128,-1,40
 499 70 499 70 474.5 41 c 128,-1,41
 450 12 450 12 401 -5.5 c 128,-1,42
 352 -23 352 -23 285 -23 c 0,43,44
 36 -23 36 -23 30 157 c 1,45,-1
 167 157 l 1,0,1
EndSplineSet
Substitution2: "'smcp' Lowercase to Small Capitals in Latin lookup 2 subtable" sc.s
EndChar

StartChar: t
Encoding: 116 116 87
Width: 338
GlyphClass: 2
Flags: W
AnchorPoint: "Anchor-6" 160 293 basechar 0
AnchorPoint: "Anchor-5" 325 550 basechar 0
AnchorPoint: "Anchor-3" 162 674 basechar 0
AnchorPoint: "Anchor-2" 216 0 basechar 0
LayerCount: 2
Fore
SplineSet
308 529 m 1,0,-1
 308 436 l 1,1,-1
 230 436 l 1,2,-1
 230 142 l 2,3,4
 230 106 230 106 239 94.5 c 128,-1,5
 248 83 248 83 276 83 c 0,6,7
 287 83 287 83 308 86 c 1,8,-1
 308 -12 l 1,9,10
 274 -23 274 -23 227 -23 c 0,11,12
 90 -23 90 -23 90 104 c 2,13,-1
 90 436 l 1,14,-1
 21 436 l 1,15,-1
 21 529 l 1,16,-1
 90 529 l 1,17,-1
 90 674 l 1,18,-1
 230 674 l 1,19,-1
 230 529 l 1,20,-1
 308 529 l 1,0,-1
EndSplineSet
Substitution2: "'smcp' Lowercase to Small Capitals in Latin lookup 2 subtable" sc.t
EndChar

StartChar: u
Encoding: 117 117 88
Width: 542
GlyphClass: 2
Flags: W
AnchorPoint: "Anchor-2" 273 0 basechar 0
AnchorPoint: "Anchor-3" 272 539 basechar 0
AnchorPoint: "Anchor-5" 415 550 basechar 0
AnchorPoint: "Anchor-6" 270 293 basechar 0
LayerCount: 2
Fore
SplineSet
346 0 m 5,0,-1
 199 0 l 5,1,-1
 10 540 l 5,2,-1
 158 540 l 5,3,-1
 275 145 l 5,4,-1
 384 540 l 5,5,-1
 532 540 l 5,6,-1
 346 0 l 5,0,-1
EndSplineSet
Substitution2: "'smcp' Lowercase to Small Capitals in Latin lookup 2 subtable" sc.u
EndChar

StartChar: v
Encoding: 118 118 89
Width: 542
GlyphClass: 2
Flags: W
AnchorPoint: "Anchor-6" 270 293 basechar 0
AnchorPoint: "Anchor-5" 415 550 basechar 0
AnchorPoint: "Anchor-3" 272 539 basechar 0
AnchorPoint: "Anchor-2" 273 0 basechar 0
LayerCount: 2
Fore
SplineSet
346 0 m 1,0,-1
 199 0 l 1,1,-1
 10 540 l 1,2,-1
 158 540 l 1,3,-1
 275 145 l 1,4,-1
 384 540 l 1,5,-1
 532 540 l 1,6,-1
 346 0 l 1,0,-1
EndSplineSet
Substitution2: "'smcp' Lowercase to Small Capitals in Latin lookup 2 subtable" sc.v
EndChar

StartChar: w
Encoding: 119 119 90
Width: 781
GlyphClass: 2
Flags: W
AnchorPoint: "Anchor-6" 391 293 basechar 0
AnchorPoint: "Anchor-5" 675 550 basechar 0
AnchorPoint: "Anchor-3" 390 539 basechar 0
AnchorPoint: "Anchor-2" 392 0 basechar 0
LayerCount: 2
Fore
SplineSet
618 0 m 1,0,-1
 473 0 l 1,1,-1
 392 381 l 1,2,-1
 306 0 l 1,3,-1
 162 0 l 1,4,-1
 10 540 l 1,5,-1
 155 540 l 1,6,-1
 241 162 l 1,7,-1
 323 540 l 1,8,-1
 463 540 l 1,9,-1
 544 162 l 1,10,-1
 626 540 l 1,11,-1
 771 540 l 1,12,-1
 618 0 l 1,0,-1
EndSplineSet
Substitution2: "'smcp' Lowercase to Small Capitals in Latin lookup 2 subtable" sc.w
EndChar

StartChar: x
Encoding: 120 120 91
Width: 549
GlyphClass: 2
Flags: W
AnchorPoint: "Anchor-6" 272 293 basechar 0
AnchorPoint: "Anchor-5" 415 550 basechar 0
AnchorPoint: "Anchor-3" 282 539 basechar 0
AnchorPoint: "Anchor-2" 277 0 basechar 0
LayerCount: 2
Fore
SplineSet
354 272 m 1,0,-1
 534 0 l 1,1,-1
 366 0 l 1,2,-1
 275 168 l 1,3,-1
 183 0 l 1,4,-1
 15 0 l 1,5,-1
 195 272 l 1,6,-1
 19 540 l 1,7,-1
 187 540 l 1,8,-1
 275 377 l 1,9,-1
 362 540 l 1,10,-1
 530 540 l 1,11,-1
 354 272 l 1,0,-1
EndSplineSet
Substitution2: "'smcp' Lowercase to Small Capitals in Latin lookup 2 subtable" sc.x
EndChar

StartChar: y
Encoding: 121 121 92
Width: 549
GlyphClass: 2
Flags: W
AnchorPoint: "Anchor-6" 274 293 basechar 0
AnchorPoint: "Anchor-5" 425 550 basechar 0
AnchorPoint: "Anchor-4" 438 0 basechar 0 {150-150 -112} {}
AnchorPoint: "Anchor-3" 279 550 basechar 0
AnchorPoint: "Anchor-2" 456 0 basechar 0
LayerCount: 2
Fore
SplineSet
211 -26 m 2,0,-1
 211 -22 l 1,1,-1
 10 540 l 1,2,-1
 164 540 l 1,3,-1
 283 147 l 1,4,-1
 395 540 l 1,5,-1
 539 540 l 1,6,-1
 317 -99 l 2,7,8
 317 -100 317 -100 313 -112.5 c 128,-1,9
 309 -125 309 -125 306.5 -129.5 c 128,-1,10
 304 -134 304 -134 298.5 -146.5 c 128,-1,11
 293 -159 293 -159 287 -164.5 c 128,-1,12
 281 -170 281 -170 271 -180.5 c 128,-1,13
 261 -191 261 -191 248.5 -196.5 c 128,-1,14
 236 -202 236 -202 220 -208 c 128,-1,15
 204 -214 204 -214 183 -216.5 c 128,-1,16
 162 -219 162 -219 137 -219 c 0,17,18
 115 -219 115 -219 87 -215 c 1,19,-1
 87 -110 l 1,20,21
 109 -116 109 -116 124 -116 c 0,22,23
 161 -116 161 -116 186 -90 c 128,-1,24
 211 -64 211 -64 211 -26 c 2,0,-1
EndSplineSet
Substitution2: "'smcp' Lowercase to Small Capitals in Latin lookup 2 subtable" sc.y
EndChar

StartChar: z
Encoding: 122 122 93
Width: 507
GlyphClass: 2
Flags: W
AnchorPoint: "Anchor-6" 260 293 basechar 0
AnchorPoint: "Anchor-5" 385 550 basechar 0
AnchorPoint: "Anchor-3" 259 539 basechar 0
AnchorPoint: "Anchor-2" 252 0 basechar 0
LayerCount: 2
Fore
SplineSet
468 540 m 1,0,-1
 468 427 l 1,1,-1
 203 113 l 1,2,-1
 477 113 l 1,3,-1
 477 0 l 1,4,-1
 30 0 l 1,5,-1
 30 113 l 1,6,-1
 297 427 l 1,7,-1
 48 427 l 1,8,-1
 48 540 l 1,9,-1
 468 540 l 1,0,-1
EndSplineSet
Substitution2: "'smcp' Lowercase to Small Capitals in Latin lookup 2 subtable" sc.z
EndChar

StartChar: braceleft
Encoding: 123 123 94
Width: 389
GlyphClass: 2
Flags: W
LayerCount: 2
Fore
SplineSet
118 150 m 2,0,1
 118 194 118 194 102.5 208 c 128,-1,2
 87 222 87 222 41 222 c 1,3,-1
 37 223 l 1,4,-1
 37 315 l 1,5,-1
 53 315 l 2,6,7
 118 316 118 316 118 378 c 2,8,-1
 118 589 l 2,9,10
 118 650 118 650 152.5 689.5 c 128,-1,11
 187 729 187 729 241 729 c 2,12,-1
 317 729 l 1,13,-1
 317 630 l 1,14,-1
 280 630 l 2,15,16
 235 630 235 630 235 573 c 2,17,-1
 235 378 l 2,18,19
 235 323 235 323 214.5 300 c 128,-1,20
 194 277 194 277 138 269 c 1,21,22
 194 260 194 260 214.5 237 c 128,-1,23
 235 214 235 214 235 159 c 2,24,-1
 235 -36 l 2,25,26
 235 -73 235 -73 245 -87 c 128,-1,27
 255 -101 255 -101 280 -101 c 2,28,-1
 317 -101 l 1,29,-1
 317 -200 l 1,30,-1
 241 -200 l 2,31,32
 187 -200 187 -200 152.5 -160.5 c 128,-1,33
 118 -121 118 -121 118 -60 c 2,34,-1
 118 150 l 2,0,1
EndSplineSet
EndChar

StartChar: bar
Encoding: 124 124 95
Width: 280
GlyphClass: 2
Flags: W
LayerCount: 2
Fore
SplineSet
180 729 m 1,0,-1
 180 -200 l 1,1,-1
 100 -200 l 1,2,-1
 100 729 l 1,3,-1
 180 729 l 1,0,-1
EndSplineSet
EndChar

StartChar: braceright
Encoding: 125 125 96
Width: 389
GlyphClass: 2
Flags: W
LayerCount: 2
Fore
SplineSet
271 379 m 2,0,1
 271 335 271 335 286.5 321 c 128,-1,2
 302 307 302 307 348 307 c 1,3,-1
 352 306 l 1,4,-1
 352 214 l 1,5,-1
 336 214 l 2,6,7
 271 213 271 213 271 151 c 2,8,-1
 271 -60 l 2,9,10
 271 -121 271 -121 236.5 -160.5 c 128,-1,11
 202 -200 202 -200 148 -200 c 2,12,-1
 72 -200 l 1,13,-1
 72 -101 l 1,14,-1
 109 -101 l 2,15,16
 154 -101 154 -101 154 -44 c 2,17,-1
 154 151 l 2,18,19
 154 206 154 206 174.5 229 c 128,-1,20
 195 252 195 252 251 260 c 1,21,22
 195 269 195 269 174.5 292 c 128,-1,23
 154 315 154 315 154 370 c 2,24,-1
 154 565 l 2,25,26
 154 602 154 602 144 616 c 128,-1,27
 134 630 134 630 109 630 c 2,28,-1
 72 630 l 1,29,-1
 72 729 l 1,30,-1
 148 729 l 2,31,32
 202 729 202 729 236.5 689.5 c 128,-1,33
 271 650 271 650 271 589 c 2,34,-1
 271 379 l 2,0,1
EndSplineSet
EndChar

StartChar: asciitilde
Encoding: 126 126 97
Width: 500
GlyphClass: 2
Flags: W
LayerCount: 2
Fore
SplineSet
348 222 m 0,0,1
 381 222 381 222 390.5 237.5 c 128,-1,2
 400 253 400 253 401 288 c 1,3,-1
 479 288 l 1,4,5
 470 142 470 142 352 142 c 0,6,7
 307 142 307 142 269 168 c 2,8,-1
 212 210 l 2,9,10
 180 234 180 234 151 234 c 0,11,12
 119 234 119 234 109.5 219 c 128,-1,13
 100 204 100 204 98 169 c 1,14,-1
 20 169 l 1,15,16
 27 314 27 314 147 314 c 0,17,18
 195 314 195 314 230 289 c 2,19,-1
 287 247 l 2,20,21
 321 222 321 222 348 222 c 0,0,1
EndSplineSet
EndChar

StartChar: cent
Encoding: 162 162 100
Width: 556
GlyphClass: 2
Flags: W
LayerCount: 2
Fore
SplineSet
303 435 m 1,0,-1
 303 91 l 1,1,2
 337 96 337 96 357 118.5 c 128,-1,3
 377 141 377 141 388 187 c 1,4,-1
 522 187 l 1,5,6
 514 97 514 97 453 39 c 128,-1,7
 392 -19 392 -19 303 -23 c 1,8,-1
 303 -124 l 1,9,-1
 259 -124 l 1,10,-1
 259 -22 l 1,11,12
 155 -15 155 -15 95.5 59.5 c 128,-1,13
 36 134 36 134 36 259 c 0,14,15
 36 388 36 388 93 462.5 c 128,-1,16
 150 537 150 537 259 548 c 1,17,-1
 259 634 l 1,18,-1
 303 634 l 1,19,-1
 303 549 l 1,20,21
 395 548 395 548 455.5 489.5 c 128,-1,22
 516 431 516 431 522 338 c 1,23,-1
 388 338 l 1,24,25
 378 384 378 384 358 407 c 128,-1,26
 338 430 338 430 303 435 c 1,0,-1
259 94 m 1,27,-1
 259 433 l 1,28,29
 176 411 176 411 176 260 c 0,30,31
 176 119 176 119 259 94 c 1,27,-1
EndSplineSet
EndChar

StartChar: sterling
Encoding: 163 163 101
Width: 556
GlyphClass: 2
Flags: W
LayerCount: 2
Fore
SplineSet
179 513 m 0,0,1
 179 497 179 497 187.5 476 c 128,-1,2
 196 455 196 455 211.5 423.5 c 128,-1,3
 227 392 227 392 236 371 c 1,4,-1
 375 371 l 1,5,-1
 375 316 l 1,6,-1
 253 316 l 1,7,8
 268 284 268 284 268 257 c 0,9,10
 268 213 268 213 242 174.5 c 128,-1,11
 216 136 216 136 152 86 c 1,12,13
 230 123 230 123 264 123 c 0,14,15
 286 123 286 123 326 112.5 c 128,-1,16
 366 102 366 102 391 102 c 0,17,18
 438 102 438 102 496 131 c 1,19,-1
 537 22 l 1,20,21
 461 -23 461 -23 392 -23 c 0,22,23
 357 -23 357 -23 293.5 -7 c 128,-1,24
 230 9 230 9 195 9 c 0,25,26
 146 9 146 9 86 -21 c 1,27,-1
 31 80 l 1,28,29
 94 123 94 123 117.5 155 c 128,-1,30
 141 187 141 187 141 231 c 0,31,32
 141 265 141 265 120 316 c 1,33,-1
 31 316 l 1,34,-1
 31 371 l 1,35,-1
 91 371 l 1,36,37
 57 430 57 430 47.5 456.5 c 128,-1,38
 38 483 38 483 38 516 c 0,39,40
 38 600 38 600 103 657.5 c 128,-1,41
 168 715 168 715 276 715 c 0,42,43
 336 715 336 715 381 699.5 c 128,-1,44
 426 684 426 684 451 662 c 128,-1,45
 476 640 476 640 492 606.5 c 128,-1,46
 508 573 508 573 513.5 546 c 128,-1,47
 519 519 519 519 522 484 c 1,48,-1
 390 484 l 1,49,-1
 389 495 l 2,50,51
 386 516 386 516 381 531.5 c 128,-1,52
 376 547 376 547 365 565.5 c 128,-1,53
 354 584 354 584 331.5 594 c 128,-1,54
 309 604 309 604 277 604 c 0,55,56
 234 604 234 604 206.5 578.5 c 128,-1,57
 179 553 179 553 179 513 c 0,0,1
EndSplineSet
EndChar

StartChar: currency
Encoding: 164 164 102
Width: 556
GlyphClass: 2
Flags: W
LayerCount: 2
Fore
SplineSet
388 528 m 1,0,-1
 461 601 l 1,1,-1
 530 532 l 1,2,-1
 455 457 l 1,3,4
 482 403 482 403 482 354 c 0,5,6
 482 297 482 297 453 246 c 1,7,-1
 530 170 l 1,8,-1
 461 102 l 1,9,-1
 386 177 l 1,10,11
 352 158 352 158 332.5 152.5 c 128,-1,12
 313 147 313 147 286 147 c 0,13,14
 217 147 217 147 175 178 c 1,15,-1
 96 100 l 1,16,-1
 28 169 l 1,17,-1
 106 246 l 1,18,19
 76 301 76 301 76 352 c 0,20,21
 76 411 76 411 105 457 c 1,22,-1
 26 536 l 1,23,-1
 95 604 l 1,24,-1
 172 527 l 1,25,26
 223 558 223 558 281 558 c 0,27,28
 340 558 340 558 388 528 c 1,0,-1
280 460 m 0,29,30
 235 460 235 460 203.5 429 c 128,-1,31
 172 398 172 398 172 352 c 0,32,33
 172 308 172 308 203.5 276.5 c 128,-1,34
 235 245 235 245 279 245 c 128,-1,35
 323 245 323 245 354.5 276.5 c 128,-1,36
 386 308 386 308 386 353 c 0,37,38
 386 397 386 397 354.5 428.5 c 128,-1,39
 323 460 323 460 280 460 c 0,29,30
EndSplineSet
EndChar

StartChar: yen
Encoding: 165 165 103
Width: 556
GlyphClass: 2
Flags: W
LayerCount: 2
Fore
SplineSet
497 351 m 1,0,-1
 497 292 l 1,1,-1
 355 292 l 1,2,-1
 355 239 l 1,3,-1
 497 239 l 1,4,-1
 497 180 l 1,5,-1
 355 180 l 1,6,-1
 355 0 l 1,7,-1
 215 0 l 1,8,-1
 215 180 l 1,9,-1
 70 180 l 1,10,-1
 70 239 l 1,11,-1
 215 239 l 1,12,-1
 215 292 l 1,13,-1
 70 292 l 1,14,-1
 70 351 l 1,15,-1
 208 351 l 1,16,-1
 5 704 l 1,17,-1
 144 704 l 1,18,-1
 283 450 l 1,19,-1
 417 704 l 1,20,-1
 552 704 l 1,21,-1
 360 351 l 1,22,-1
 497 351 l 1,0,-1
EndSplineSet
EndChar

StartChar: brokenbar
Encoding: 166 166 104
Width: 280
GlyphClass: 2
Flags: W
LayerCount: 2
Fore
SplineSet
180 729 m 1,0,-1
 180 340 l 1,1,-1
 100 340 l 1,2,-1
 100 729 l 1,3,-1
 180 729 l 1,0,-1
180 189 m 1,4,-1
 180 -200 l 1,5,-1
 100 -200 l 1,6,-1
 100 189 l 1,7,-1
 180 189 l 1,4,-1
EndSplineSet
EndChar

StartChar: section
Encoding: 167 167 105
Width: 556
GlyphClass: 2
Flags: W
LayerCount: 2
Fore
SplineSet
125 428 m 1,0,1
 124 429 124 429 116.5 436 c 128,-1,2
 109 443 109 443 106.5 446 c 128,-1,3
 104 449 104 449 97 457 c 128,-1,4
 90 465 90 465 87 471 c 128,-1,5
 84 477 84 477 78.5 486.5 c 128,-1,6
 73 496 73 496 70.5 505 c 128,-1,7
 68 514 68 514 66 526 c 128,-1,8
 64 538 64 538 64 551 c 0,9,10
 64 626 64 626 123 674.5 c 128,-1,11
 182 723 182 723 273 723 c 0,12,13
 310 723 310 723 341 715.5 c 128,-1,14
 372 708 372 708 402.5 690 c 128,-1,15
 433 672 433 672 452 634.5 c 128,-1,16
 471 597 471 597 473 544 c 1,17,-1
 346 544 l 1,18,19
 336 621 336 621 268 621 c 0,20,21
 239 621 239 621 221.5 607 c 128,-1,22
 204 593 204 593 204 570 c 0,23,24
 204 549 204 549 222.5 531.5 c 128,-1,25
 241 514 241 514 294 485 c 2,26,-1
 421 415 l 2,27,28
 518 361 518 361 518 262 c 0,29,30
 518 212 518 212 496 179.5 c 128,-1,31
 474 147 474 147 424 124 c 1,32,33
 494 75 494 75 494 -10 c 128,-1,34
 494 -95 494 -95 434 -148 c 128,-1,35
 374 -201 374 -201 276 -201 c 0,36,37
 67 -201 67 -201 65 0 c 1,38,-1
 196 0 l 1,39,-1
 196 -10 l 2,40,41
 198 -49 198 -49 216 -69.5 c 128,-1,42
 234 -90 234 -90 277 -90 c 0,43,44
 311 -90 311 -90 332 -73 c 128,-1,45
 353 -56 353 -56 353 -29 c 0,46,47
 353 -21 353 -21 351 -13.5 c 128,-1,48
 349 -6 349 -6 347.5 -1 c 128,-1,49
 346 4 346 4 340 10 c 128,-1,50
 334 16 334 16 331.5 19 c 128,-1,51
 329 22 329 22 320.5 27.5 c 128,-1,52
 312 33 312 33 309.5 34.5 c 128,-1,53
 307 36 307 36 296 42 c 128,-1,54
 285 48 285 48 283 49 c 2,55,-1
 112 149 l 2,56,57
 33 195 33 195 33 281 c 0,58,59
 33 326 33 326 52.5 356.5 c 128,-1,60
 72 387 72 387 125 428 c 1,0,1
337 306 m 2,61,-1
 194 382 l 1,62,63
 152 357 152 357 152 317 c 0,64,65
 152 294 152 294 163.5 279 c 128,-1,66
 175 264 175 264 205 247 c 2,67,-1
 352 167 l 1,68,69
 398 199 398 199 398 232 c 0,70,71
 398 256 398 256 385 271.5 c 128,-1,72
 372 287 372 287 337 306 c 2,61,-1
EndSplineSet
EndChar

StartChar: copyright
Encoding: 169 169 107
Width: 737
GlyphClass: 2
Flags: W
LayerCount: 2
Fore
SplineSet
552 431 m 1,0,-1
 462 431 l 1,1,2
 446 509 446 509 369 509 c 0,3,4
 316 509 316 509 285.5 469 c 128,-1,5
 255 429 255 429 255 359 c 128,-1,6
 255 289 255 289 284.5 250 c 128,-1,7
 314 211 314 211 366 211 c 0,8,9
 454 211 454 211 462 297 c 1,10,-1
 554 297 l 1,11,12
 550 218 550 218 499 173 c 128,-1,13
 448 128 448 128 364 128 c 0,14,15
 272 128 272 128 217.5 191 c 128,-1,16
 163 254 163 254 163 360 c 0,17,18
 163 467 163 467 218 529.5 c 128,-1,19
 273 592 273 592 367 592 c 0,20,21
 445 592 445 592 495.5 550 c 128,-1,22
 546 508 546 508 552 431 c 1,0,-1
369 743 m 128,-1,24
 527 743 527 743 639 631 c 128,-1,25
 751 519 751 519 751 361 c 0,26,27
 751 201 751 201 638.5 89.5 c 128,-1,28
 526 -22 526 -22 364 -22 c 0,29,30
 209 -22 209 -22 97.5 91 c 128,-1,31
 -14 204 -14 204 -14 361 c 0,32,33
 -14 519 -14 519 98.5 631 c 128,-1,23
 211 743 211 743 369 743 c 128,-1,24
368 671 m 0,34,35
 243 671 243 671 153.5 580 c 128,-1,36
 64 489 64 489 64 361 c 0,37,38
 64 234 64 234 153 142 c 128,-1,39
 242 50 242 50 365 50 c 0,40,41
 494 50 494 50 583.5 140.5 c 128,-1,42
 673 231 673 231 673 361 c 0,43,44
 673 489 673 489 583.5 580 c 128,-1,45
 494 671 494 671 368 671 c 0,34,35
EndSplineSet
EndChar

StartChar: ordfeminine
Encoding: 170 170 108
Width: 370
GlyphClass: 2
Flags: W
LayerCount: 2
Fore
SplineSet
321 340 m 1,0,-1
 321 262 l 1,1,-1
 37 262 l 1,2,-1
 37 340 l 1,3,-1
 321 340 l 1,0,-1
329 410 m 1,4,-1
 329 400 l 1,5,-1
 237 400 l 1,6,7
 228 411 228 411 227 432 c 1,8,9
 184 386 184 386 129 386 c 0,10,11
 85 386 85 386 58 413 c 128,-1,12
 31 440 31 440 31 484 c 0,13,14
 31 571 31 571 126 587 c 2,15,-1
 160 593 l 2,16,17
 163 594 163 594 172 595 c 128,-1,18
 181 596 181 596 185.5 597 c 128,-1,19
 190 598 190 598 198 600 c 128,-1,20
 206 602 206 602 210 604.5 c 128,-1,21
 214 607 214 607 218.5 610.5 c 128,-1,22
 223 614 223 614 225 619 c 128,-1,23
 227 624 227 624 227 630 c 0,24,25
 227 661 227 661 178 661 c 0,26,27
 148 661 148 661 135 651 c 128,-1,28
 122 641 122 641 119 617 c 1,29,-1
 41 617 l 1,30,31
 43 729 43 729 176 729 c 128,-1,32
 309 729 309 729 309 629 c 2,33,-1
 309 450 l 2,34,35
 309 428 309 428 329 410 c 1,4,-1
227 530 m 2,36,-1
 227 553 l 1,37,38
 216 547 216 547 192 543 c 2,39,-1
 163 537 l 2,40,41
 137 532 137 532 126 522 c 128,-1,42
 115 512 115 512 115 493 c 0,43,44
 115 454 115 454 161 454 c 0,45,46
 192 454 192 454 209.5 474 c 128,-1,47
 227 494 227 494 227 530 c 2,36,-1
EndSplineSet
EndChar

StartChar: guillemotleft
Encoding: 171 171 109
Width: 556
GlyphClass: 2
Flags: W
LayerCount: 2
Fore
SplineSet
88 218 m 1,0,-1
 88 332 l 1,1,-1
 255 481 l 1,2,-1
 255 364 l 1,3,-1
 154 275 l 1,4,-1
 255 186 l 1,5,-1
 255 72 l 1,6,-1
 88 218 l 1,0,-1
301 218 m 1,7,-1
 301 332 l 1,8,-1
 468 481 l 1,9,-1
 468 364 l 1,10,-1
 367 275 l 1,11,-1
 468 186 l 1,12,-1
 468 72 l 1,13,-1
 301 218 l 1,7,-1
EndSplineSet
EndChar

StartChar: logicalnot
Encoding: 172 172 110
Width: 584
GlyphClass: 2
Flags: W
LayerCount: 2
Fore
SplineSet
39 376 m 1,0,-1
 543 376 l 1,1,-1
 544 86 l 1,2,-1
 425 86 l 1,3,-1
 425 256 l 1,4,-1
 40 256 l 1,5,-1
 39 376 l 1,0,-1
EndSplineSet
EndChar

StartChar: registered
Encoding: 174 174 112
Width: 737
GlyphClass: 2
Flags: W
LayerCount: 2
Fore
SplineSet
288 313 m 1,0,-1
 288 140 l 1,1,-1
 192 140 l 1,2,-1
 192 583 l 1,3,-1
 430 583 l 2,4,5
 487 583 487 583 519 551 c 128,-1,6
 551 519 551 519 551 462 c 0,7,8
 551 388 551 388 481 354 c 1,9,10
 499 346 499 346 507 339.5 c 128,-1,11
 515 333 515 333 522.5 325 c 128,-1,12
 530 317 530 317 532 298.5 c 128,-1,13
 534 280 534 280 535.5 259.5 c 128,-1,14
 537 239 537 239 538 195 c 0,15,16
 538 171 538 171 557 161 c 1,17,-1
 557 140 l 1,18,-1
 454 140 l 1,19,20
 440 167 440 167 440 221 c 0,21,22
 440 225 440 225 440.5 233.5 c 128,-1,23
 441 242 441 242 441 247 c 2,24,-1
 441 264 l 2,25,26
 441 313 441 313 380 313 c 2,27,-1
 288 313 l 1,0,-1
288 394 m 1,28,-1
 391 394 l 2,29,30
 427 394 427 394 441 405.5 c 128,-1,31
 455 417 455 417 455 448 c 128,-1,32
 455 479 455 479 441 490.5 c 128,-1,33
 427 502 427 502 391 502 c 2,34,-1
 288 502 l 1,35,-1
 288 394 l 1,28,-1
369 743 m 128,-1,37
 527 743 527 743 639 631 c 128,-1,38
 751 519 751 519 751 361 c 0,39,40
 751 201 751 201 638.5 89.5 c 128,-1,41
 526 -22 526 -22 364 -22 c 0,42,43
 209 -22 209 -22 97.5 91 c 128,-1,44
 -14 204 -14 204 -14 361 c 0,45,46
 -14 519 -14 519 98.5 631 c 128,-1,36
 211 743 211 743 369 743 c 128,-1,37
368 671 m 0,47,48
 243 671 243 671 153.5 580 c 128,-1,49
 64 489 64 489 64 361 c 0,50,51
 64 234 64 234 153 142 c 128,-1,52
 242 50 242 50 365 50 c 0,53,54
 494 50 494 50 583.5 140.5 c 128,-1,55
 673 231 673 231 673 361 c 0,56,57
 673 489 673 489 583.5 580 c 128,-1,58
 494 671 494 671 368 671 c 0,47,48
EndSplineSet
EndChar

StartChar: macron
Encoding: 175 175 113
Width: 333
GlyphClass: 2
Flags: W
LayerCount: 2
Fore
SplineSet
315 699 m 1,0,-1
 315 620 l 1,1,-1
 16 620 l 1,2,-1
 16 699 l 1,3,-1
 315 699 l 1,0,-1
EndSplineSet
EndChar

StartChar: degree
Encoding: 176 176 114
Width: 606
GlyphClass: 2
Flags: W
LayerCount: 2
Fore
SplineSet
303 686 m 0,0,1
 365 686 365 686 409.5 641.5 c 128,-1,2
 454 597 454 597 454 535 c 0,3,4
 454 471 454 471 409.5 427 c 128,-1,5
 365 383 365 383 301 383 c 0,6,7
 240 383 240 383 195.5 428 c 128,-1,8
 151 473 151 473 151 535 c 128,-1,9
 151 597 151 597 195.5 641.5 c 128,-1,10
 240 686 240 686 303 686 c 0,0,1
303 623 m 0,11,12
 266 623 266 623 240 597 c 128,-1,13
 214 571 214 571 214 534 c 0,14,15
 214 499 214 499 240 472.5 c 128,-1,16
 266 446 266 446 301 446 c 0,17,18
 339 446 339 446 365 472 c 128,-1,19
 391 498 391 498 391 535 c 0,20,21
 391 571 391 571 365 597 c 128,-1,22
 339 623 339 623 303 623 c 0,11,12
EndSplineSet
EndChar

StartChar: twosuperior
Encoding: 178 178 116
Width: 351
GlyphClass: 2
Flags: W
LayerCount: 2
Fore
SplineSet
328 690 m 0,0,1
 328 648 328 648 308 617 c 128,-1,2
 288 586 288 586 262 569 c 128,-1,3
 236 552 236 552 199 525 c 128,-1,4
 162 498 162 498 139 471 c 1,5,-1
 326 471 l 1,6,-1
 326 390 l 1,7,-1
 16 390 l 1,8,9
 18 436 18 436 34.5 472 c 128,-1,10
 51 508 51 508 75 527.5 c 128,-1,11
 99 547 99 547 127 566 c 128,-1,12
 155 585 155 585 178.5 599 c 128,-1,13
 202 613 202 613 217.5 635 c 128,-1,14
 233 657 233 657 233 686 c 0,15,16
 233 716 233 716 217 733 c 128,-1,17
 201 750 201 750 172 750 c 128,-1,18
 143 750 143 750 127.5 731.5 c 128,-1,19
 112 713 112 713 112 679 c 0,20,21
 112 677 112 677 114 663 c 1,22,-1
 22 663 l 1,23,24
 21 671 21 671 21 681 c 0,25,26
 21 750 21 750 61.5 787 c 128,-1,27
 102 824 102 824 177 824 c 0,28,29
 250 824 250 824 289 789.5 c 128,-1,30
 328 755 328 755 328 690 c 0,0,1
EndSplineSet
EndChar

StartChar: threesuperior
Encoding: 179 179 117
Width: 351
GlyphClass: 2
Flags: W
LayerCount: 2
Fore
SplineSet
22 671 m 1,0,1
 28 818 28 818 170 818 c 0,2,3
 236 818 236 818 275.5 786 c 128,-1,4
 315 754 315 754 315 701 c 0,5,6
 315 644 315 644 263 612 c 1,7,8
 329 580 329 580 329 509 c 0,9,10
 329 446 329 446 285.5 408.5 c 128,-1,11
 242 371 242 371 170 371 c 0,12,13
 97 371 97 371 56.5 408.5 c 128,-1,14
 16 446 16 446 15 514 c 1,15,-1
 107 514 l 1,16,17
 111 448 111 448 172 448 c 0,18,19
 199 448 199 448 216.5 465 c 128,-1,20
 234 482 234 482 234 508 c 0,21,22
 234 569 234 569 150 571 c 2,23,-1
 134 571 l 1,24,-1
 134 633 l 1,25,-1
 145 633 l 2,26,27
 220 633 220 633 220 691 c 0,28,29
 220 716 220 716 205.5 730.5 c 128,-1,30
 191 745 191 745 167 745 c 0,31,32
 134 745 134 745 122 726 c 128,-1,33
 110 707 110 707 110 671 c 1,34,-1
 22 671 l 1,0,1
EndSplineSet
EndChar

StartChar: acute
Encoding: 180 180 118
Width: 333
GlyphClass: 2
Flags: W
LayerCount: 2
Fore
SplineSet
317 757 m 1,0,-1
 191 607 l 1,1,-1
 121 607 l 1,2,-1
 191 757 l 1,3,-1
 317 757 l 1,0,-1
EndSplineSet
EndChar

StartChar: micro
Encoding: 181 181 119
Width: 611
GlyphClass: 2
Flags: W
LayerCount: 2
Fore
SplineSet
198 206 m 2,0,1
 198 96 198 96 282 96 c 0,2,3
 326 96 326 96 354.5 126 c 128,-1,4
 383 156 383 156 383 202 c 2,5,-1
 383 540 l 1,6,-1
 523 540 l 1,7,-1
 523 150 l 2,8,9
 523 106 523 106 529 91.5 c 128,-1,10
 535 77 535 77 553 77 c 0,11,12
 560 77 560 77 573 81 c 1,13,-1
 573 -6 l 1,14,15
 540 -23 540 -23 503 -23 c 0,16,17
 468 -23 468 -23 447 -11 c 128,-1,18
 426 1 426 1 408 31 c 1,19,20
 379 1 379 1 353 -11 c 128,-1,21
 327 -23 327 -23 292 -23 c 0,22,23
 231 -23 231 -23 192 15 c 1,24,-1
 192 -220 l 1,25,-1
 58 -220 l 1,26,-1
 58 540 l 1,27,-1
 198 540 l 1,28,-1
 198 206 l 2,0,1
EndSplineSet
EndChar

StartChar: paragraph
Encoding: 182 182 120
Width: 556
GlyphClass: 2
Flags: W
LayerCount: 2
Fore
SplineSet
19 495 m 0,0,1
 19 594 19 594 78.5 661.5 c 128,-1,2
 138 729 138 729 226 729 c 2,3,-1
 529 729 l 1,4,-1
 529 657 l 1,5,-1
 486 657 l 1,6,-1
 486 -191 l 1,7,-1
 388 -191 l 1,8,-1
 388 657 l 1,9,-1
 325 657 l 1,10,-1
 325 -191 l 1,11,-1
 227 -191 l 1,12,-1
 227 267 l 1,13,14
 135 271 135 271 77 335 c 128,-1,15
 19 399 19 399 19 495 c 0,0,1
EndSplineSet
EndChar

StartChar: middot
Encoding: 183 183 121
Width: 278
GlyphClass: 2
Flags: W
LayerCount: 2
Fore
SplineSet
64 292 m 1,0,-1
 188 292 l 1,1,-1
 188 169 l 1,2,-1
 64 169 l 1,3,-1
 64 292 l 1,0,-1
EndSplineSet
EndChar

StartChar: cedilla
Encoding: 184 184 122
Width: 333
GlyphClass: 2
Flags: W
LayerCount: 2
Fore
SplineSet
162 0 m 1,0,-1
 205 0 l 1,1,-1
 176 -63 l 1,2,3
 197 -56 197 -56 218 -56 c 0,4,5
 253 -56 253 -56 273.5 -75 c 128,-1,6
 294 -94 294 -94 294 -127 c 0,7,8
 294 -172 294 -172 260.5 -196 c 128,-1,9
 227 -220 227 -220 165 -220 c 0,10,11
 110 -220 110 -220 27 -192 c 1,12,-1
 46 -140 l 1,13,14
 115 -170 115 -170 151 -170 c 0,15,16
 175 -170 175 -170 191.5 -158 c 128,-1,17
 208 -146 208 -146 208 -129 c 0,18,19
 208 -113 208 -113 194 -103.5 c 128,-1,20
 180 -94 180 -94 157 -94 c 0,21,22
 133 -94 133 -94 108 -106 c 1,23,-1
 162 0 l 1,0,-1
EndSplineSet
EndChar

StartChar: onesuperior
Encoding: 185 185 123
Width: 300
GlyphClass: 2
Flags: W
LayerCount: 2
Fore
SplineSet
147 678 m 1,0,-1
 40 678 l 1,1,-1
 40 739 l 1,2,3
 157 739 157 739 178 814 c 1,4,-1
 242 814 l 1,5,-1
 242 389 l 1,6,-1
 147 389 l 1,7,-1
 147 678 l 1,0,-1
EndSplineSet
EndChar

StartChar: ordmasculine
Encoding: 186 186 124
Width: 365
GlyphClass: 2
Flags: W
LayerCount: 2
Fore
SplineSet
334 340 m 1,0,-1
 334 262 l 1,1,-1
 33 262 l 1,2,-1
 33 340 l 1,3,-1
 334 340 l 1,0,-1
183 729 m 0,4,5
 259 729 259 729 301 683 c 128,-1,6
 343 637 343 637 343 555 c 0,7,8
 343 477 343 477 300 431.5 c 128,-1,9
 257 386 257 386 183 386 c 128,-1,10
 109 386 109 386 66 432 c 128,-1,11
 23 478 23 478 23 557 c 0,12,13
 23 637 23 637 66 683 c 128,-1,14
 109 729 109 729 183 729 c 0,4,5
183 661 m 128,-1,16
 149 661 149 661 128 632.5 c 128,-1,17
 107 604 107 604 107 558 c 128,-1,18
 107 512 107 512 128 483 c 128,-1,19
 149 454 149 454 183 454 c 128,-1,20
 217 454 217 454 238 482.5 c 128,-1,21
 259 511 259 511 259 556 c 0,22,23
 259 603 259 603 238 632 c 128,-1,15
 217 661 217 661 183 661 c 128,-1,16
EndSplineSet
EndChar

StartChar: guillemotright
Encoding: 187 187 125
Width: 556
GlyphClass: 2
Flags: W
LayerCount: 2
Fore
SplineSet
255 335 m 1,0,-1
 255 220 l 1,1,-1
 88 72 l 1,2,-1
 88 189 l 1,3,-1
 189 278 l 1,4,-1
 88 367 l 1,5,-1
 88 481 l 1,6,-1
 255 335 l 1,0,-1
462 335 m 1,7,-1
 462 220 l 1,8,-1
 295 72 l 1,9,-1
 295 189 l 1,10,-1
 396 278 l 1,11,-1
 295 367 l 1,12,-1
 295 481 l 1,13,-1
 462 335 l 1,7,-1
EndSplineSet
EndChar

StartChar: onequarter
Encoding: 188 188 126
Width: 869
GlyphClass: 2
Flags: W
LayerCount: 2
Fore
SplineSet
147 606 m 1,0,-1
 40 606 l 1,1,-1
 40 667 l 1,2,3
 157 667 157 667 178 742 c 1,4,-1
 242 742 l 1,5,-1
 242 317 l 1,6,-1
 147 317 l 1,7,-1
 147 606 l 1,0,-1
593 715 m 1,8,-1
 680 715 l 1,9,-1
 257 -20 l 1,10,-1
 170 -20 l 1,11,-1
 593 715 l 1,8,-1
850 168 m 1,12,-1
 850 93 l 1,13,-1
 804 93 l 1,14,-1
 804 0 l 1,15,-1
 709 0 l 1,16,-1
 709 93 l 1,17,-1
 530 93 l 1,18,-1
 530 167 l 1,19,-1
 695 425 l 1,20,-1
 804 425 l 1,21,-1
 804 168 l 1,22,-1
 850 168 l 1,12,-1
709 168 m 1,23,-1
 709 332 l 1,24,-1
 603 168 l 1,25,-1
 709 168 l 1,23,-1
EndSplineSet
EndChar

StartChar: onehalf
Encoding: 189 189 127
Width: 869
GlyphClass: 2
Flags: W
LayerCount: 2
Fore
SplineSet
147 608 m 1,0,-1
 40 608 l 1,1,-1
 40 669 l 1,2,3
 157 669 157 669 178 744 c 1,4,-1
 242 744 l 1,5,-1
 242 319 l 1,6,-1
 147 319 l 1,7,-1
 147 608 l 1,0,-1
587 715 m 1,8,-1
 674 715 l 1,9,-1
 251 -20 l 1,10,-1
 164 -20 l 1,11,-1
 587 715 l 1,8,-1
846 300 m 0,12,13
 846 258 846 258 826 227 c 128,-1,14
 806 196 806 196 780 179 c 128,-1,15
 754 162 754 162 717 135 c 128,-1,16
 680 108 680 108 657 81 c 1,17,-1
 844 81 l 1,18,-1
 844 0 l 1,19,-1
 534 0 l 1,20,21
 536 46 536 46 552.5 82 c 128,-1,22
 569 118 569 118 593 137.5 c 128,-1,23
 617 157 617 157 645 176 c 128,-1,24
 673 195 673 195 696.5 209 c 128,-1,25
 720 223 720 223 735.5 245 c 128,-1,26
 751 267 751 267 751 296 c 0,27,28
 751 326 751 326 735 343 c 128,-1,29
 719 360 719 360 690 360 c 128,-1,30
 661 360 661 360 645.5 341.5 c 128,-1,31
 630 323 630 323 630 289 c 0,32,33
 630 287 630 287 632 273 c 1,34,-1
 540 273 l 1,35,36
 539 281 539 281 539 291 c 0,37,38
 539 360 539 360 579.5 397 c 128,-1,39
 620 434 620 434 695 434 c 0,40,41
 768 434 768 434 807 399.5 c 128,-1,42
 846 365 846 365 846 300 c 0,12,13
EndSplineSet
EndChar

StartChar: threequarters
Encoding: 190 190 128
Width: 869
GlyphClass: 2
Flags: W
LayerCount: 2
Fore
SplineSet
22 594 m 1,0,1
 28 741 28 741 170 741 c 0,2,3
 236 741 236 741 275.5 709 c 128,-1,4
 315 677 315 677 315 624 c 0,5,6
 315 567 315 567 263 535 c 1,7,8
 329 504 329 504 329 432 c 0,9,10
 329 369 329 369 285.5 331.5 c 128,-1,11
 242 294 242 294 170 294 c 0,12,13
 97 294 97 294 56.5 331.5 c 128,-1,14
 16 369 16 369 15 437 c 1,15,-1
 107 437 l 1,16,17
 111 371 111 371 172 371 c 0,18,19
 199 371 199 371 216.5 388 c 128,-1,20
 234 405 234 405 234 431 c 0,21,22
 234 492 234 492 150 494 c 2,23,-1
 134 494 l 1,24,-1
 134 556 l 1,25,-1
 145 556 l 2,26,27
 220 556 220 556 220 614 c 0,28,29
 220 639 220 639 205.5 653.5 c 128,-1,30
 191 668 191 668 167 668 c 0,31,32
 134 668 134 668 122 649 c 128,-1,33
 110 630 110 630 110 594 c 1,34,-1
 22 594 l 1,0,1
625 715 m 1,35,-1
 712 715 l 1,36,-1
 289 -20 l 1,37,-1
 202 -20 l 1,38,-1
 625 715 l 1,35,-1
850 168 m 1,39,-1
 850 93 l 1,40,-1
 804 93 l 1,41,-1
 804 0 l 1,42,-1
 709 0 l 1,43,-1
 709 93 l 1,44,-1
 530 93 l 1,45,-1
 530 167 l 1,46,-1
 695 425 l 1,47,-1
 804 425 l 1,48,-1
 804 168 l 1,49,-1
 850 168 l 1,39,-1
709 168 m 1,50,-1
 709 332 l 1,51,-1
 603 168 l 1,52,-1
 709 168 l 1,50,-1
EndSplineSet
EndChar

StartChar: AE
Encoding: 198 198 136
Width: 1015
GlyphClass: 2
Flags: W
AnchorPoint: "Anchor-2" 509 0 basechar 0
LayerCount: 2
Fore
SplineSet
439 152 m 1,0,-1
 216 152 l 1,1,-1
 163 0 l 1,2,-1
 10 0 l 1,3,-1
 273 729 l 1,4,-1
 955 729 l 1,5,-1
 955 604 l 1,6,-1
 589 604 l 1,7,-1
 589 439 l 1,8,-1
 928 439 l 1,9,-1
 928 314 l 1,10,-1
 589 314 l 1,11,-1
 589 125 l 1,12,-1
 975 125 l 1,13,-1
 975 0 l 1,14,-1
 439 0 l 1,15,-1
 439 152 l 1,0,-1
439 277 m 1,16,-1
 439 604 l 1,17,-1
 372 604 l 1,18,-1
 258 277 l 1,19,-1
 439 277 l 1,16,-1
EndSplineSet
Substitution2: "'c2sc' Capitals to Small Capitals in Latin lookup 4 subtable" sc.ae
EndChar

StartChar: Ccedilla
Encoding: 199 199 137
Width: 721
GlyphClass: 2
Flags: W
AnchorPoint: "Anchor-3" 371 740 basechar 0
LayerCount: 2
Fore
SplineSet
535 482 m 1,0,1
 507 613 507 613 379 613 c 0,2,3
 290 613 290 613 240 545 c 128,-1,4
 190 477 190 477 190 356 c 0,5,6
 190 237 190 237 238.5 170 c 128,-1,7
 287 103 287 103 374 103 c 0,8,9
 444 103 444 103 486 141 c 128,-1,10
 528 179 528 179 535 249 c 1,11,-1
 681 249 l 1,12,13
 675 125 675 125 593.5 52.5 c 128,-1,14
 512 -20 512 -20 375 -23 c 1,15,-1
 356 -63 l 1,16,17
 376 -56 376 -56 398 -56 c 0,18,19
 433 -56 433 -56 453.5 -75 c 128,-1,20
 474 -94 474 -94 474 -127 c 0,21,22
 474 -172 474 -172 440.5 -196 c 128,-1,23
 407 -220 407 -220 345 -220 c 0,24,25
 290 -220 290 -220 207 -192 c 1,26,-1
 226 -140 l 1,27,28
 295 -170 295 -170 331 -170 c 0,29,30
 355 -170 355 -170 371.5 -158 c 128,-1,31
 388 -146 388 -146 388 -129 c 0,32,33
 388 -113 388 -113 374 -103.5 c 128,-1,34
 360 -94 360 -94 337 -94 c 0,35,36
 313 -94 313 -94 288 -106 c 1,37,-1
 331 -23 l 1,38,39
 262 -11 262 -11 224.5 5.5 c 128,-1,40
 187 22 187 22 151 56 c 0,41,42
 40 162 40 162 40 358 c 0,43,44
 40 535 40 535 130 638 c 128,-1,45
 220 741 220 741 374 741 c 0,46,47
 503 741 503 741 585.5 672 c 128,-1,48
 668 603 668 603 678 482 c 1,49,-1
 535 482 l 1,0,1
EndSplineSet
EndChar

StartChar: Eth
Encoding: 208 208 146
Width: 741
GlyphClass: 2
Flags: W
AnchorPoint: "Anchor-2" 359 0 basechar 0
LayerCount: 2
Fore
SplineSet
97 339 m 1,0,-1
 20 339 l 1,1,-1
 20 419 l 1,2,-1
 97 419 l 1,3,-1
 97 729 l 1,4,-1
 382 729 l 2,5,6
 469 729 469 729 523 709.5 c 128,-1,7
 577 690 577 690 613 645 c 0,8,9
 655 594 655 594 678 520 c 128,-1,10
 701 446 701 446 701 365 c 128,-1,11
 701 284 701 284 677.5 210.5 c 128,-1,12
 654 137 654 137 613 85 c 0,13,14
 577 40 577 40 522.5 20 c 128,-1,15
 468 0 468 0 382 0 c 2,16,-1
 97 0 l 1,17,-1
 97 339 l 1,0,-1
557 364 m 0,18,19
 557 493 557 493 512 548.5 c 128,-1,20
 467 604 467 604 382 604 c 2,21,-1
 247 604 l 1,22,-1
 247 419 l 1,23,-1
 397 419 l 1,24,-1
 397 339 l 1,25,-1
 247 339 l 1,26,-1
 247 125 l 1,27,-1
 382 125 l 2,28,29
 464 125 464 125 510.5 178 c 128,-1,30
 557 231 557 231 557 364 c 0,18,19
EndSplineSet
Substitution2: "'c2sc' Capitals to Small Capitals in Latin lookup 4 subtable" sc.eth
EndChar

StartChar: multiply
Encoding: 215 215 153
Width: 584
GlyphClass: 2
Flags: W
LayerCount: 2
Fore
SplineSet
421 444 m 1,0,-1
 505 360 l 1,1,-1
 376 231 l 1,2,-1
 504 102 l 1,3,-1
 420 18 l 1,4,-1
 292 147 l 1,5,-1
 164 19 l 1,6,-1
 80 103 l 1,7,-1
 208 231 l 1,8,-1
 79 359 l 1,9,-1
 163 444 l 1,10,-1
 292 315 l 1,11,-1
 421 444 l 1,0,-1
EndSplineSet
EndChar

StartChar: Oslash
Encoding: 216 216 154
Width: 783
GlyphClass: 2
Flags: W
LayerCount: 2
Fore
SplineSet
745 357 m 0,0,1
 745 194 745 194 649 85.5 c 128,-1,2
 553 -23 553 -23 393 -23 c 0,3,4
 257 -23 257 -23 170 52 c 1,5,-1
 87 -39 l 1,6,-1
 36 7 l 1,7,-1
 122 102 l 1,8,9
 40 212 40 212 40 359 c 0,10,11
 40 526 40 526 137 633.5 c 128,-1,12
 234 741 234 741 393 741 c 0,13,14
 530 741 530 741 625 657 c 1,15,-1
 708 749 l 1,16,-1
 760 704 l 1,17,-1
 671 605 l 1,18,19
 745 504 745 504 745 357 c 0,0,1
572 497 m 1,20,-1
 261 153 l 1,21,22
 311 105 311 105 393 105 c 0,23,24
 485 105 485 105 540 175 c 128,-1,25
 595 245 595 245 595 361 c 0,26,27
 595 436 595 436 572 497 c 1,20,-1
219 209 m 1,28,-1
 533 555 l 1,29,30
 478 613 478 613 393 613 c 0,31,32
 300 613 300 613 245 543 c 128,-1,33
 190 473 190 473 190 356 c 0,34,35
 190 273 190 273 219 209 c 1,28,-1
EndSplineSet
Substitution2: "'c2sc' Capitals to Small Capitals in Latin lookup 4 subtable" sc.oslash
EndChar

StartChar: Thorn
Encoding: 222 222 160
Width: 677
GlyphClass: 2
Flags: W
LayerCount: 2
Fore
SplineSet
402 609 m 2,0,1
 637 609 637 609 637 382 c 0,2,3
 637 270 637 270 577.5 205 c 128,-1,4
 518 140 518 140 417 140 c 2,5,-1
 230 140 l 1,6,-1
 230 0 l 1,7,-1
 80 0 l 1,8,-1
 80 729 l 1,9,-1
 230 729 l 1,10,-1
 230 609 l 1,11,-1
 402 609 l 2,0,1
230 265 m 1,12,-1
 370 265 l 2,13,14
 487 265 487 265 487 374 c 0,15,16
 487 430 487 430 458.5 457 c 128,-1,17
 430 484 430 484 370 484 c 2,18,-1
 230 484 l 1,19,-1
 230 265 l 1,12,-1
EndSplineSet
Substitution2: "'c2sc' Capitals to Small Capitals in Latin lookup 4 subtable" sc.thorn
EndChar

StartChar: ssharp
Encoding: 223 223 161
Width: 611
GlyphClass: 2
Flags: W
LayerCount: 2
Fore
SplineSet
445 411 m 1,0,1
 463 407 463 407 480.5 399.5 c 128,-1,2
 498 392 498 392 522 374 c 128,-1,3
 546 356 546 356 560.5 320.5 c 128,-1,4
 575 285 575 285 575 236 c 0,5,6
 575 114 575 114 520 45.5 c 128,-1,7
 465 -23 465 -23 367 -23 c 0,8,9
 341 -23 341 -23 285 -11 c 1,10,-1
 285 94 l 1,11,12
 304 87 304 87 328 87 c 0,13,14
 378 87 378 87 406.5 126.5 c 128,-1,15
 435 166 435 166 435 222 c 0,16,17
 435 284 435 284 396.5 316.5 c 128,-1,18
 358 349 358 349 285 349 c 1,19,-1
 285 444 l 1,20,21
 334 444 334 444 363 467 c 128,-1,22
 392 490 392 490 392 533 c 0,23,24
 392 572 392 572 366 594 c 128,-1,25
 340 616 340 616 294 616 c 0,26,27
 253 616 253 616 230 595 c 128,-1,28
 207 574 207 574 207 537 c 2,29,-1
 207 0 l 1,30,-1
 67 0 l 1,31,-1
 67 518 l 2,32,33
 67 614 67 614 119.5 671.5 c 128,-1,34
 172 729 172 729 303 729 c 0,35,36
 404 729 404 729 468 678 c 128,-1,37
 532 627 532 627 532 547 c 0,38,39
 532 445 532 445 445 411 c 1,0,1
EndSplineSet
Substitution2: "'smcp' Lowercase to Small Capitals in Latin lookup 2 subtable" sc.ssharp
EndChar

StartChar: ae
Encoding: 230 230 168
Width: 889
GlyphClass: 2
Flags: W
AnchorPoint: "Anchor-2" 419 0 basechar 0
LayerCount: 2
Fore
SplineSet
495 226 m 1,0,1
 495 84 495 84 609 84 c 0,2,3
 645 84 645 84 674.5 103.5 c 128,-1,4
 704 123 704 123 713 152 c 1,5,-1
 851 152 l 1,6,7
 828 72 828 72 760 24.5 c 128,-1,8
 692 -23 692 -23 601 -23 c 0,9,10
 465 -23 465 -23 401 81 c 1,11,12
 312 -24 312 -24 196 -24 c 0,13,14
 119 -24 119 -24 73.5 20.5 c 128,-1,15
 28 65 28 65 28 141 c 0,16,17
 28 286 28 286 187 312 c 2,18,-1
 243 322 l 2,19,20
 248 323 248 323 265.5 325.5 c 128,-1,21
 283 328 283 328 289 329.5 c 128,-1,22
 295 331 295 331 309 334.5 c 128,-1,23
 323 338 323 338 328.5 341.5 c 128,-1,24
 334 345 334 345 341.5 351 c 128,-1,25
 349 357 349 357 352 365 c 128,-1,26
 355 373 355 373 355 383 c 0,27,28
 355 436 355 436 270 436 c 0,29,30
 223 436 223 436 201.5 419.5 c 128,-1,31
 180 403 180 403 175 362 c 1,32,-1
 44 362 l 1,33,34
 47 549 47 549 272 549 c 0,35,36
 389 549 389 549 447 499 c 1,37,38
 509 549 509 549 602 549 c 0,39,40
 648 549 648 549 690 535 c 128,-1,41
 732 521 732 521 771.5 489.5 c 128,-1,42
 811 458 811 458 834.5 396.5 c 128,-1,43
 858 335 858 335 858 250 c 0,44,45
 858 238 858 238 857 226 c 1,46,-1
 495 226 l 1,0,1
355 216 m 2,47,-1
 355 254 l 1,48,49
 333 241 333 241 296 235 c 2,50,-1
 248 228 l 2,51,52
 168 217 168 217 168 155 c 0,53,54
 168 124 168 124 188.5 106.5 c 128,-1,55
 209 89 209 89 244 89 c 0,56,57
 298 89 298 89 326.5 121.5 c 128,-1,58
 355 154 355 154 355 216 c 2,47,-1
496 319 m 1,59,-1
 712 319 l 1,60,61
 701 442 701 442 603 442 c 128,-1,62
 505 442 505 442 496 319 c 1,59,-1
EndSplineSet
Substitution2: "'smcp' Lowercase to Small Capitals in Latin lookup 2 subtable" sc.ae
EndChar

StartChar: ccedilla
Encoding: 231 231 169
Width: 558
GlyphClass: 2
Flags: W
LayerCount: 2
Fore
SplineSet
180 260 m 0,0,1
 180 218 180 218 189 182.5 c 128,-1,2
 198 147 198 147 225 118.5 c 128,-1,3
 252 90 252 90 295 90 c 0,4,5
 335 90 335 90 358 112.5 c 128,-1,6
 381 135 381 135 394 187 c 1,7,-1
 528 187 l 1,8,9
 520 94 520 94 456 35.5 c 128,-1,10
 392 -23 392 -23 299 -23 c 2,11,-1
 297 -23 l 1,12,-1
 280 -63 l 1,13,14
 298 -56 298 -56 321 -56 c 0,15,16
 357 -56 357 -56 377.5 -75 c 128,-1,17
 398 -94 398 -94 398 -127 c 0,18,19
 398 -172 398 -172 364.5 -196 c 128,-1,20
 331 -220 331 -220 269 -220 c 0,21,22
 211 -220 211 -220 131 -192 c 1,23,-1
 150 -140 l 1,24,25
 217 -170 217 -170 254 -170 c 0,26,27
 278 -170 278 -170 295 -158 c 128,-1,28
 312 -146 312 -146 312 -129 c 0,29,30
 312 -113 312 -113 298 -103.5 c 128,-1,31
 284 -94 284 -94 261 -94 c 0,32,33
 236 -94 236 -94 211 -106 c 1,34,-1
 254 -21 l 1,35,36
 150 -7 150 -7 95 65 c 128,-1,37
 40 137 40 137 40 259 c 0,38,39
 40 397 40 397 107 473 c 128,-1,40
 174 549 174 549 295 549 c 0,41,42
 396 549 396 549 458.5 493 c 128,-1,43
 521 437 521 437 528 338 c 1,44,-1
 394 338 l 1,45,46
 382 391 382 391 359.5 413.5 c 128,-1,47
 337 436 337 436 294 436 c 0,48,49
 180 436 180 436 180 260 c 0,0,1
EndSplineSet
EndChar

StartChar: eth
Encoding: 240 240 178
Width: 614
GlyphClass: 2
Flags: W
LayerCount: 2
Fore
SplineSet
197 741 m 1,0,1
 234 727 234 727 262.5 711 c 128,-1,2
 291 695 291 695 299 692 c 1,3,-1
 386 744 l 1,4,-1
 437 710 l 1,5,-1
 353 660 l 1,6,7
 466 583 466 583 520 488 c 128,-1,8
 574 393 574 393 574 269 c 0,9,10
 574 131 574 131 503.5 54 c 128,-1,11
 433 -23 433 -23 307 -23 c 0,12,13
 182 -23 182 -23 111 53.5 c 128,-1,14
 40 130 40 130 40 265 c 0,15,16
 40 386 40 386 106 460 c 128,-1,17
 172 534 172 534 279 534 c 0,18,19
 315 534 315 534 364 515 c 1,20,21
 324 579 324 579 269 611 c 1,22,-1
 192 565 l 1,23,-1
 150 602 l 1,24,-1
 220 646 l 1,25,26
 182 669 182 669 130 694 c 1,27,-1
 197 741 l 1,0,1
307 429 m 0,28,29
 250 429 250 429 215.5 382.5 c 128,-1,30
 181 336 181 336 181 260 c 0,31,32
 181 183 181 183 215.5 136.5 c 128,-1,33
 250 90 250 90 307 90 c 128,-1,34
 364 90 364 90 398.5 136 c 128,-1,35
 433 182 433 182 433 257 c 0,36,37
 433 336 433 336 399 382.5 c 128,-1,38
 365 429 365 429 307 429 c 0,28,29
EndSplineSet
Substitution2: "'smcp' Lowercase to Small Capitals in Latin lookup 2 subtable" sc.eth
EndChar

StartChar: divide
Encoding: 247 247 185
Width: 584
GlyphClass: 2
Flags: W
LayerCount: 2
Fore
SplineSet
534 291 m 1,0,-1
 534 172 l 1,1,-1
 50 172 l 1,2,-1
 50 291 l 1,3,-1
 534 291 l 1,0,-1
230 474 m 1,4,-1
 354 474 l 1,5,-1
 354 351 l 1,6,-1
 230 351 l 1,7,-1
 230 474 l 1,4,-1
230 112 m 1,8,-1
 354 112 l 1,9,-1
 354 -11 l 1,10,-1
 230 -11 l 1,11,-1
 230 112 l 1,8,-1
EndSplineSet
EndChar

StartChar: oslash
Encoding: 248 248 186
Width: 614
GlyphClass: 2
Flags: W
LayerCount: 2
Fore
SplineSet
128 35 m 1,0,-1
 56 -38 l 1,1,-1
 13 2 l 1,2,-1
 88 79 l 1,3,4
 38 151 38 151 38 263 c 0,5,6
 38 396 38 396 110 472.5 c 128,-1,7
 182 549 182 549 307 549 c 0,8,9
 414 549 414 549 489 487 c 1,10,-1
 557 557 l 1,11,-1
 600 516 l 1,12,-1
 528 443 l 1,13,14
 575 370 575 370 575 263 c 0,15,16
 575 130 575 130 503.5 53.5 c 128,-1,17
 432 -23 432 -23 308 -23 c 0,18,19
 192 -23 192 -23 128 35 c 1,0,-1
423 336 m 1,20,-1
 222 132 l 1,21,22
 258 90 258 90 308 90 c 0,23,24
 363 90 363 90 399 138 c 128,-1,25
 435 186 435 186 435 260 c 0,26,27
 435 300 435 300 423 336 c 1,20,-1
192 184 m 1,28,-1
 394 390 l 1,29,30
 355 437 355 437 305 437 c 0,31,32
 249 437 249 437 213.5 389 c 128,-1,33
 178 341 178 341 178 266 c 0,34,35
 178 220 178 220 192 184 c 1,28,-1
EndSplineSet
Substitution2: "'smcp' Lowercase to Small Capitals in Latin lookup 2 subtable" sc.oslash
EndChar

StartChar: thorn
Encoding: 254 254 192
Width: 621
GlyphClass: 2
Flags: W
LayerCount: 2
Fore
SplineSet
205 729 m 1,0,-1
 205 460 l 1,1,2
 255 549 255 549 355 549 c 0,3,4
 452 549 452 549 516.5 467.5 c 128,-1,5
 581 386 581 386 581 262 c 0,6,7
 581 140 581 140 516.5 58.5 c 128,-1,8
 452 -23 452 -23 355 -23 c 0,9,10
 255 -23 255 -23 205 64 c 1,11,-1
 205 -218 l 1,12,-1
 65 -218 l 1,13,-1
 65 729 l 1,14,-1
 205 729 l 1,0,-1
323 432 m 128,-1,16
 270 432 270 432 237.5 385 c 128,-1,17
 205 338 205 338 205 262 c 0,18,19
 205 187 205 187 237.5 140.5 c 128,-1,20
 270 94 270 94 323 94 c 0,21,22
 375 94 375 94 408 140.5 c 128,-1,23
 441 187 441 187 441 260 c 0,24,25
 441 337 441 337 408.5 384.5 c 128,-1,15
 376 432 376 432 323 432 c 128,-1,16
EndSplineSet
Substitution2: "'smcp' Lowercase to Small Capitals in Latin lookup 2 subtable" sc.thorn
EndChar

StartChar: Aogonek
Encoding: 260 260 198
Width: 717
GlyphClass: 2
Flags: W
AnchorPoint: "Anchor-3" 355 730 basechar 0
LayerCount: 2
Fore
SplineSet
495 147 m 1,0,-1
 222 147 l 1,1,-1
 173 0 l 1,2,-1
 20 0 l 1,3,-1
 279 729 l 1,4,-1
 446 729 l 1,5,-1
 697 0 l 1,6,7
 645 -23 645 -23 614.5 -57.5 c 128,-1,8
 584 -92 584 -92 584 -129 c 0,9,10
 584 -182 584 -182 660 -182 c 0,11,12
 687 -182 687 -182 717 -177 c 1,13,-1
 717 -224 l 1,14,15
 681 -233 681 -233 642 -233 c 0,16,17
 572 -233 572 -233 533 -208 c 128,-1,18
 494 -183 494 -183 494 -138 c 0,19,20
 494 -94 494 -94 526.5 -57.5 c 128,-1,21
 559 -21 559 -21 618 0 c 1,22,-1
 543 0 l 1,23,-1
 495 147 l 1,0,-1
455 272 m 1,24,-1
 360 557 l 1,25,-1
 264 272 l 1,26,-1
 455 272 l 1,24,-1
EndSplineSet
EndChar

StartChar: aogonek
Encoding: 261 261 199
Width: 556
GlyphClass: 2
Flags: W
AnchorPoint: "Anchor-3" 293 550 basechar 0
LayerCount: 2
Fore
SplineSet
204 -23 m 0,0,1
 130 -23 130 -23 85 21.5 c 128,-1,2
 40 66 40 66 40 139 c 0,3,4
 40 282 40 282 199 309 c 2,5,-1
 255 319 l 2,6,7
 257 319 257 319 275 321.5 c 128,-1,8
 293 324 293 324 298 325.5 c 128,-1,9
 303 327 303 327 317.5 330 c 128,-1,10
 332 333 332 333 338 337 c 128,-1,11
 344 341 344 341 352.5 347.5 c 128,-1,12
 361 354 361 354 364 362.5 c 128,-1,13
 367 371 367 371 367 382 c 0,14,15
 367 436 367 436 286 436 c 0,16,17
 234 436 234 436 213 420 c 128,-1,18
 192 404 192 404 187 362 c 1,19,-1
 52 362 l 1,20,21
 65 549 65 549 283 549 c 0,22,23
 504 549 504 549 504 383 c 2,24,-1
 504 83 l 2,25,26
 504 46 504 46 536 17 c 1,27,-1
 536 0 l 1,28,29
 427 -58 427 -58 427 -129 c 0,30,31
 427 -182 427 -182 503 -182 c 0,32,33
 528 -182 528 -182 560 -177 c 1,34,-1
 560 -224 l 1,35,36
 524 -233 524 -233 485 -233 c 0,37,38
 415 -233 415 -233 376 -208 c 128,-1,39
 337 -183 337 -183 337 -139 c 128,-1,40
 337 -95 337 -95 370 -57.5 c 128,-1,41
 403 -20 403 -20 461 0 c 1,42,-1
 384 0 l 1,43,44
 368 20 368 20 368 54 c 1,45,46
 294 -23 294 -23 204 -23 c 0,0,1
367 217 m 2,47,-1
 367 255 l 1,48,49
 348 246 348 246 308 238 c 2,50,-1
 260 229 l 2,51,52
 216 220 216 220 198 203 c 128,-1,53
 180 186 180 186 180 155 c 0,54,55
 180 125 180 125 200.5 107.5 c 128,-1,56
 221 90 221 90 256 90 c 0,57,58
 309 90 309 90 338 123 c 128,-1,59
 367 156 367 156 367 217 c 2,47,-1
EndSplineSet
EndChar

StartChar: dcroat
Encoding: 273 273 211
Width: 626
GlyphClass: 2
Flags: W
AnchorPoint: "Anchor-2" 300 0 basechar 0
LayerCount: 2
Fore
SplineSet
416 596 m 1,0,-1
 283 596 l 1,1,-1
 283 663 l 1,2,-1
 416 663 l 1,3,-1
 416 729 l 1,4,-1
 556 729 l 1,5,-1
 556 663 l 1,6,-1
 616 663 l 1,7,-1
 616 596 l 1,8,-1
 556 596 l 1,9,-1
 556 0 l 1,10,-1
 416 0 l 1,11,-1
 416 55 l 1,12,13
 364 -23 364 -23 267 -23 c 128,-1,14
 170 -23 170 -23 105 59 c 128,-1,15
 40 141 40 141 40 262 c 0,16,17
 40 384 40 384 105 466.5 c 128,-1,18
 170 549 170 549 267 549 c 0,19,20
 365 549 365 549 416 470 c 1,21,-1
 416 596 l 1,0,-1
298 432 m 0,22,23
 246 432 246 432 213 384.5 c 128,-1,24
 180 337 180 337 180 262 c 0,25,26
 180 188 180 188 213 141 c 128,-1,27
 246 94 246 94 298 94 c 128,-1,28
 350 94 350 94 383 140 c 128,-1,29
 416 186 416 186 416 260 c 0,30,31
 416 337 416 337 383.5 384.5 c 128,-1,32
 351 432 351 432 298 432 c 0,22,23
EndSplineSet
EndChar

StartChar: Eogonek
Encoding: 280 280 218
Width: 665
GlyphClass: 2
Flags: W
AnchorPoint: "Anchor-3" 362 730 basechar 0
LayerCount: 2
Fore
SplineSet
230 314 m 1,0,-1
 230 125 l 1,1,-1
 625 125 l 1,2,-1
 625 0 l 1,3,4
 516 -58 516 -58 516 -129 c 0,5,6
 516 -182 516 -182 592 -182 c 0,7,8
 619 -182 619 -182 649 -177 c 1,9,-1
 649 -224 l 1,10,11
 608 -233 608 -233 575 -233 c 0,12,13
 504 -233 504 -233 465 -208 c 128,-1,14
 426 -183 426 -183 426 -138 c 0,15,16
 426 -57 426 -57 551 0 c 1,17,-1
 80 0 l 1,18,-1
 80 729 l 1,19,-1
 607 729 l 1,20,-1
 607 604 l 1,21,-1
 230 604 l 1,22,-1
 230 439 l 1,23,-1
 579 439 l 1,24,-1
 579 314 l 1,25,-1
 230 314 l 1,0,-1
EndSplineSet
EndChar

StartChar: eogonek
Encoding: 281 281 219
Width: 584
GlyphClass: 2
Flags: W
AnchorPoint: "Anchor-3" 300 550 basechar 0
LayerCount: 2
Fore
SplineSet
537 152 m 1,0,1
 525 110 525 110 495 69 c 128,-1,2
 465 28 465 28 437 2 c 128,-1,3
 409 -24 409 -24 386.5 -60 c 128,-1,4
 364 -96 364 -96 364 -131 c 0,5,6
 364 -183 364 -183 440 -183 c 0,7,8
 468 -183 468 -183 497 -177 c 1,9,-1
 497 -224 l 1,10,11
 458 -234 458 -234 418 -234 c 0,12,13
 351 -234 351 -234 312.5 -208 c 128,-1,14
 274 -182 274 -182 274 -137 c 0,15,16
 274 -103 274 -103 295 -75.5 c 128,-1,17
 316 -48 316 -48 369 -11 c 1,18,19
 322 -24 322 -24 287 -24 c 0,20,21
 173 -24 173 -24 106.5 51 c 128,-1,22
 40 126 40 126 40 256 c 0,23,24
 40 392 40 392 107 470.5 c 128,-1,25
 174 549 174 549 290 549 c 0,26,27
 336 549 336 549 377.5 535 c 128,-1,28
 419 521 419 521 458 489.5 c 128,-1,29
 497 458 497 458 520.5 396.5 c 128,-1,30
 544 335 544 335 544 250 c 0,31,32
 544 238 544 238 543 226 c 1,33,-1
 181 226 l 1,34,35
 184 157 184 157 207 120 c 128,-1,36
 230 83 230 83 293 83 c 0,37,38
 372 83 372 83 399 152 c 1,39,-1
 537 152 l 1,0,1
398 319 m 1,40,41
 393 379 393 379 364.5 410.5 c 128,-1,42
 336 442 336 442 289 442 c 0,43,44
 196 442 196 442 182 319 c 1,45,-1
 398 319 l 1,40,41
EndSplineSet
EndChar

StartChar: Hbar
Encoding: 294 294 232
Width: 729
GlyphClass: 2
Flags: W
LayerCount: 2
Fore
SplineSet
659 599 m 1,0,-1
 719 599 l 1,1,-1
 719 532 l 1,2,-1
 659 532 l 1,3,-1
 659 0 l 1,4,-1
 509 0 l 1,5,-1
 509 331 l 1,6,-1
 220 331 l 1,7,-1
 220 0 l 1,8,-1
 70 0 l 1,9,-1
 70 532 l 1,10,-1
 10 532 l 1,11,-1
 10 599 l 1,12,-1
 70 599 l 1,13,-1
 70 729 l 1,14,-1
 220 729 l 1,15,-1
 220 599 l 1,16,-1
 508 599 l 1,17,-1
 508 729 l 1,18,-1
 659 729 l 1,19,-1
 659 599 l 1,0,-1
508 532 m 1,20,-1
 220 532 l 1,21,-1
 220 456 l 1,22,-1
 508 456 l 1,23,-1
 508 532 l 1,20,-1
EndSplineSet
EndChar

StartChar: hbar
Encoding: 295 295 233
Width: 606
GlyphClass: 2
Flags: W
LayerCount: 2
Fore
SplineSet
401 330 m 2,0,1
 401 430 401 430 315 430 c 0,2,3
 268 430 268 430 237.5 400 c 128,-1,4
 207 370 207 370 207 324 c 2,5,-1
 207 0 l 1,6,-1
 67 0 l 1,7,-1
 67 596 l 1,8,-1
 8 596 l 1,9,-1
 8 663 l 1,10,-1
 67 663 l 1,11,-1
 67 729 l 1,12,-1
 207 729 l 1,13,-1
 207 663 l 1,14,-1
 341 663 l 1,15,-1
 341 596 l 1,16,-1
 207 596 l 1,17,-1
 207 462 l 1,18,19
 265 549 265 549 365 549 c 0,20,21
 397 549 397 549 425.5 540.5 c 128,-1,22
 454 532 454 532 481.5 512.5 c 128,-1,23
 509 493 509 493 525 454 c 128,-1,24
 541 415 541 415 541 362 c 2,25,-1
 541 0 l 1,26,-1
 401 0 l 1,27,-1
 401 330 l 2,0,1
EndSplineSet
EndChar

StartChar: Iogonek
Encoding: 302 302 240
Width: 310
GlyphClass: 2
Flags: W
AnchorPoint: "Anchor-3" 156 730 basechar 0
LayerCount: 2
Fore
SplineSet
228 729 m 1,0,-1
 228 0 l 1,1,2
 139 -64 139 -64 139 -131 c 0,3,4
 139 -153 139 -153 156.5 -167.5 c 128,-1,5
 174 -182 174 -182 202 -182 c 0,6,7
 225 -182 225 -182 252 -177 c 1,8,-1
 252 -224 l 1,9,10
 213 -233 213 -233 182 -233 c 0,11,12
 120 -233 120 -233 84.5 -207 c 128,-1,13
 49 -181 49 -181 49 -136 c 0,14,15
 49 -60 49 -60 162 0 c 1,16,-1
 78 0 l 1,17,-1
 78 729 l 1,18,-1
 228 729 l 1,0,-1
EndSplineSet
EndChar

StartChar: iogonek
Encoding: 303 303 241
Width: 280
GlyphClass: 2
Flags: W
AnchorPoint: "Anchor-3" 140 730 basechar 0
LayerCount: 2
Fore
SplineSet
125 -128 m 0,0,1
 125 -158 125 -158 144 -170 c 128,-1,2
 163 -182 163 -182 188 -182 c 0,3,4
 203 -182 203 -182 232 -177 c 1,5,-1
 232 -224 l 1,6,7
 192 -233 192 -233 169 -233 c 0,8,9
 107 -233 107 -233 71 -207 c 128,-1,10
 35 -181 35 -181 35 -136 c 0,11,12
 35 -65 35 -65 145 0 c 1,13,-1
 68 0 l 1,14,-1
 68 540 l 1,15,-1
 208 540 l 1,16,-1
 208 0 l 1,17,18
 125 -58 125 -58 125 -128 c 0,0,1
208 729 m 1,19,-1
 208 604 l 1,20,-1
 68 604 l 1,21,-1
 68 729 l 1,22,-1
 208 729 l 1,19,-1
EndSplineSet
MultipleSubs2: "Multiple Substitution lookup 5 subtable" dotlessi ogonekcmb
EndChar

StartChar: dotlessi
Encoding: 305 305 243
Width: 280
GlyphClass: 2
Flags: W
AnchorPoint: "Anchor-3" 144 550 basechar 0
AnchorPoint: "Anchor-2" 140 0 basechar 0
LayerCount: 2
Fore
SplineSet
210 540 m 1,0,-1
 210 0 l 1,1,-1
 70 0 l 1,2,-1
 70 540 l 1,3,-1
 210 540 l 1,0,-1
EndSplineSet
Substitution2: "'smcp' Lowercase to Small Capitals in Latin lookup 1 subtable" sc.i
EndChar

StartChar: IJ
Encoding: 306 306 244
Width: 622
GlyphClass: 3
Flags: W
LayerCount: 2
Fore
SplineSet
230 729 m 1,0,-1
 230 360 l 1,1,-1
 80 360 l 1,2,-1
 80 729 l 1,3,-1
 230 729 l 1,0,-1
308 -23 m 0,4,5
 267 -23 267 -23 229.5 -13 c 128,-1,6
 192 -3 192 -3 157 20.5 c 128,-1,7
 122 44 122 44 101 89.5 c 128,-1,8
 80 135 80 135 80 198 c 2,9,-1
 80 270 l 1,10,-1
 230 270 l 1,11,-1
 230 200 l 2,12,13
 230 150 230 150 249 127.5 c 128,-1,14
 268 105 268 105 311 105 c 0,15,16
 350 105 350 105 371 127 c 128,-1,17
 392 149 392 149 392 190 c 2,18,-1
 392 729 l 1,19,-1
 542 729 l 1,20,-1
 542 190 l 2,21,22
 542 88 542 88 481 32.5 c 128,-1,23
 420 -23 420 -23 308 -23 c 0,4,5
EndSplineSet
Ligature2: "'liga' Standard Ligatures in Latin lookup 12 subtable" I J
EndChar

StartChar: Lslash
Encoding: 321 321 259
Width: 637
GlyphClass: 2
Flags: W
LayerCount: 2
Fore
SplineSet
240 423 m 1,0,-1
 405 535 l 1,1,-1
 405 447 l 1,2,-1
 240 334 l 1,3,-1
 240 125 l 1,4,-1
 607 125 l 1,5,-1
 607 0 l 1,6,-1
 90 0 l 1,7,-1
 90 257 l 1,8,-1
 10 201 l 1,9,-1
 10 290 l 1,10,-1
 90 346 l 1,11,-1
 90 729 l 1,12,-1
 240 729 l 1,13,-1
 240 423 l 1,0,-1
EndSplineSet
Substitution2: "'c2sc' Capitals to Small Capitals in Latin lookup 4 subtable" sc.lslash
EndChar

StartChar: lslash
Encoding: 322 322 260
Width: 278
GlyphClass: 2
Flags: W
LayerCount: 2
Fore
SplineSet
206 442 m 1,0,-1
 262 482 l 1,1,-1
 262 403 l 1,2,-1
 206 363 l 1,3,-1
 206 0 l 1,4,-1
 66 0 l 1,5,-1
 66 294 l 1,6,-1
 10 254 l 1,7,-1
 10 333 l 1,8,-1
 66 373 l 1,9,-1
 66 729 l 1,10,-1
 206 729 l 1,11,-1
 206 442 l 1,0,-1
EndSplineSet
Substitution2: "'smcp' Lowercase to Small Capitals in Latin lookup 2 subtable" sc.lslash
EndChar

StartChar: Eng
Encoding: 330 330 268
Width: 752
GlyphClass: 2
Flags: W
LayerCount: 2
Fore
SplineSet
439 -16 m 0,0,1
 418 -16 418 -16 398 -13.5 c 128,-1,2
 378 -11 378 -11 367.5 -8.5 c 128,-1,3
 357 -6 357 -6 346.5 -3 c 128,-1,4
 336 0 336 0 335 0 c 1,5,-1
 335 123 l 1,6,7
 338 123 338 123 371 116 c 128,-1,8
 404 109 404 109 431 109 c 0,9,10
 482 109 482 109 522 185 c 128,-1,11
 562 261 562 261 562 391 c 0,12,13
 562 437 562 437 555.5 473 c 128,-1,14
 549 509 549 509 539.5 532.5 c 128,-1,15
 530 556 530 556 514 572.5 c 128,-1,16
 498 589 498 589 484 597 c 128,-1,17
 470 605 470 605 450 609.5 c 128,-1,18
 430 614 430 614 418 615 c 128,-1,19
 406 616 406 616 387 616 c 0,20,21
 321 616 321 616 275.5 567 c 128,-1,22
 230 518 230 518 230 439 c 2,23,-1
 230 0 l 1,24,-1
 80 0 l 1,25,-1
 80 729 l 1,26,-1
 230 729 l 1,27,-1
 230 652 l 1,28,29
 262 704 262 704 305 722.5 c 128,-1,30
 348 741 348 741 412 741 c 0,31,32
 444 741 444 741 482 730.5 c 128,-1,33
 520 720 520 720 561 695.5 c 128,-1,34
 602 671 602 671 635.5 635.5 c 128,-1,35
 669 600 669 600 690.5 545 c 128,-1,36
 712 490 712 490 712 424 c 0,37,38
 712 308 712 308 688 219.5 c 128,-1,39
 664 131 664 131 623.5 81.5 c 128,-1,40
 583 32 583 32 536.5 8 c 128,-1,41
 490 -16 490 -16 439 -16 c 0,0,1
EndSplineSet
Substitution2: "'locl' Localized Forms in Latin lookup 15 subtable" Engsami
EndChar

StartChar: eng
Encoding: 331 331 269
Width: 613
GlyphClass: 2
Flags: W
AnchorPoint: "Anchor-5" 465 550 basechar 0
LayerCount: 2
Fore
SplineSet
65 540 m 1,0,-1
 205 540 l 1,1,-1
 205 462 l 1,2,3
 263 549 263 549 367 549 c 0,4,5
 453 549 453 549 500.5 500 c 128,-1,6
 548 451 548 451 548 362 c 2,7,-1
 548 -94 l 2,8,9
 548 -160 548 -160 519 -189 c 128,-1,10
 490 -218 490 -218 425 -218 c 0,11,12
 389 -218 389 -218 342 -213 c 1,13,-1
 342 -101 l 1,14,15
 355 -105 355 -105 367 -105 c 0,16,17
 390 -105 390 -105 399 -95.5 c 128,-1,18
 408 -86 408 -86 408 -63 c 2,19,-1
 408 333 l 2,20,21
 408 430 408 430 318 430 c 0,22,23
 267 430 267 430 236 401 c 128,-1,24
 205 372 205 372 205 324 c 2,25,-1
 205 0 l 1,26,-1
 65 0 l 1,27,-1
 65 540 l 1,0,-1
EndSplineSet
EndChar

StartChar: OE
Encoding: 338 338 276
Width: 1012
GlyphClass: 2
Flags: W
LayerCount: 2
Fore
SplineSet
636 314 m 1,0,-1
 636 125 l 1,1,-1
 982 125 l 1,2,-1
 982 0 l 1,3,-1
 492 0 l 1,4,-1
 492 59 l 1,5,6
 455 13 455 13 421.5 -5 c 128,-1,7
 388 -23 388 -23 337 -23 c 0,8,9
 207 -23 207 -23 123.5 84.5 c 128,-1,10
 40 192 40 192 40 359 c 0,11,12
 40 528 40 528 124 634.5 c 128,-1,13
 208 741 208 741 341 741 c 0,14,15
 389 741 389 741 422.5 726.5 c 128,-1,16
 456 712 456 712 492 677 c 1,17,-1
 492 729 l 1,18,-1
 963 729 l 1,19,-1
 963 604 l 1,20,-1
 636 604 l 1,21,-1
 636 439 l 1,22,-1
 935 439 l 1,23,-1
 935 314 l 1,24,-1
 636 314 l 1,0,-1
486 178 m 1,25,-1
 486 540 l 1,26,27
 444 613 444 613 368 613 c 0,28,29
 288 613 288 613 239 543.5 c 128,-1,30
 190 474 190 474 190 359 c 0,31,32
 190 245 190 245 239 175 c 128,-1,33
 288 105 288 105 367 105 c 0,34,35
 444 105 444 105 486 178 c 1,25,-1
EndSplineSet
EndChar

StartChar: oe
Encoding: 339 339 277
Width: 977
GlyphClass: 2
Flags: W
LayerCount: 2
Fore
SplineSet
574 226 m 1,0,1
 577 84 577 84 688 84 c 0,2,3
 725 84 725 84 754 103 c 128,-1,4
 783 122 783 122 793 152 c 1,5,-1
 931 152 l 1,6,7
 907 72 907 72 839 24.5 c 128,-1,8
 771 -23 771 -23 681 -23 c 0,9,10
 568 -23 568 -23 502 52 c 1,11,12
 426 -23 426 -23 307 -23 c 0,13,14
 182 -23 182 -23 111 53.5 c 128,-1,15
 40 130 40 130 40 263 c 128,-1,16
 40 396 40 396 111 472.5 c 128,-1,17
 182 549 182 549 307 549 c 0,18,19
 429 549 429 549 502 473 c 1,20,21
 567 549 567 549 682 549 c 0,22,23
 718 549 718 549 751.5 541 c 128,-1,24
 785 533 785 533 819.5 512 c 128,-1,25
 854 491 854 491 879.5 458.5 c 128,-1,26
 905 426 905 426 921 372.5 c 128,-1,27
 937 319 937 319 937 250 c 0,28,29
 937 238 937 238 936 226 c 1,30,-1
 574 226 l 1,0,1
307 436 m 0,31,32
 250 436 250 436 215 388 c 128,-1,33
 180 340 180 340 180 263 c 128,-1,34
 180 186 180 186 215 138 c 128,-1,35
 250 90 250 90 307 90 c 0,36,37
 363 90 363 90 398.5 137.5 c 128,-1,38
 434 185 434 185 434 261 c 0,39,40
 434 341 434 341 399.5 388.5 c 128,-1,41
 365 436 365 436 307 436 c 0,31,32
791 319 m 1,42,43
 785 379 785 379 757.5 410.5 c 128,-1,44
 730 442 730 442 683 442 c 0,45,46
 587 442 587 442 576 319 c 1,47,-1
 791 319 l 1,42,43
EndSplineSet
EndChar

StartChar: Scedilla
Encoding: 350 350 288
Width: 681
GlyphClass: 2
Flags: W
LayerCount: 2
Fore
SplineSet
348 -23 m 1,0,-1
 331 -62 l 1,1,2
 353 -56 353 -56 372 -56 c 0,3,4
 408 -56 408 -56 428.5 -75 c 128,-1,5
 449 -94 449 -94 449 -127 c 0,6,7
 449 -172 449 -172 415.5 -196 c 128,-1,8
 382 -220 382 -220 320 -220 c 0,9,10
 263 -220 263 -220 182 -192 c 1,11,-1
 201 -140 l 1,12,13
 269 -170 269 -170 306 -170 c 0,14,15
 330 -170 330 -170 346.5 -158 c 128,-1,16
 363 -146 363 -146 363 -129 c 0,17,18
 363 -113 363 -113 349 -103.5 c 128,-1,19
 335 -94 335 -94 312 -94 c 0,20,21
 288 -94 288 -94 263 -106 c 1,22,-1
 305 -23 l 1,23,24
 177 -10 177 -10 112.5 49 c 128,-1,25
 48 108 48 108 40 218 c 1,26,-1
 186 218 l 1,27,28
 190 159 190 159 232 128 c 128,-1,29
 274 97 274 97 350 97 c 0,30,31
 418 97 418 97 457.5 123 c 128,-1,32
 497 149 497 149 497 195 c 0,33,34
 497 239 497 239 466 263 c 128,-1,35
 435 287 435 287 360 301 c 2,36,-1
 258 321 l 2,37,38
 147 342 147 342 100 387 c 128,-1,39
 53 432 53 432 53 517 c 0,40,41
 53 624 53 624 125.5 682.5 c 128,-1,42
 198 741 198 741 329 741 c 0,43,44
 367 741 367 741 402.5 736 c 128,-1,45
 438 731 438 731 478 715.5 c 128,-1,46
 518 700 518 700 547 675.5 c 128,-1,47
 576 651 576 651 595.5 607.5 c 128,-1,48
 615 564 615 564 615 507 c 1,49,-1
 475 507 l 1,50,51
 467 621 467 621 322 621 c 0,52,53
 264 621 264 621 230 596.5 c 128,-1,54
 196 572 196 572 196 531 c 0,55,56
 196 491 196 491 225 471.5 c 128,-1,57
 254 452 254 452 334 436 c 2,58,-1
 448 414 l 2,59,60
 549 394 549 394 595 346.5 c 128,-1,61
 641 299 641 299 641 214 c 0,62,63
 641 -9 641 -9 348 -23 c 1,0,-1
EndSplineSet
EndChar

StartChar: scedilla
Encoding: 351 351 289
Width: 556
GlyphClass: 2
Flags: W
LayerCount: 2
Fore
SplineSet
167 157 m 1,0,1
 174 123 174 123 195.5 105 c 128,-1,2
 217 87 217 87 277 87 c 0,3,4
 326 87 326 87 353.5 101 c 128,-1,5
 381 115 381 115 381 140 c 0,6,7
 381 156 381 156 370.5 166 c 128,-1,8
 360 176 360 176 334 184 c 2,9,-1
 167 236 l 2,10,11
 166 236 166 236 155 239.5 c 128,-1,12
 144 243 144 243 139.5 245 c 128,-1,13
 135 247 135 247 123 251.5 c 128,-1,14
 111 256 111 256 104.5 261 c 128,-1,15
 98 266 98 266 88 273.5 c 128,-1,16
 78 281 78 281 72.5 290 c 128,-1,17
 67 299 67 299 61 310.5 c 128,-1,18
 55 322 55 322 52 337 c 128,-1,19
 49 352 49 352 49 369 c 0,20,21
 49 452 49 452 108.5 500.5 c 128,-1,22
 168 549 168 549 271 549 c 0,23,24
 380 549 380 549 442 500.5 c 128,-1,25
 504 452 504 452 506 366 c 1,26,-1
 371 366 l 1,27,28
 370 439 370 439 270 439 c 0,29,30
 233 439 233 439 211 425.5 c 128,-1,31
 189 412 189 412 189 389 c 0,32,33
 189 373 189 373 199 364.5 c 128,-1,34
 209 356 209 356 238 347 c 2,35,-1
 415 296 l 2,36,37
 521 265 521 265 521 160 c 0,38,39
 521 79 521 79 460 28 c 128,-1,40
 399 -23 399 -23 302 -23 c 2,41,-1
 284 -23 l 1,42,-1
 265 -63 l 1,43,44
 286 -56 286 -56 307 -56 c 0,45,46
 342 -56 342 -56 362.5 -75 c 128,-1,47
 383 -94 383 -94 383 -127 c 0,48,49
 383 -172 383 -172 350 -196 c 128,-1,50
 317 -220 317 -220 255 -220 c 0,51,52
 199 -220 199 -220 116 -192 c 1,53,-1
 135 -140 l 1,54,55
 204 -170 204 -170 240 -170 c 0,56,57
 264 -170 264 -170 280.5 -158 c 128,-1,58
 297 -146 297 -146 297 -129 c 0,59,60
 297 -113 297 -113 283 -103.5 c 128,-1,61
 269 -94 269 -94 246 -94 c 0,62,63
 222 -94 222 -94 197 -106 c 1,64,-1
 240 -22 l 1,65,66
 133 -9 133 -9 83.5 33 c 128,-1,67
 34 75 34 75 30 157 c 1,68,-1
 167 157 l 1,0,1
EndSplineSet
EndChar

StartChar: Tcedilla
Encoding: 354 354 292
Width: 644
GlyphClass: 2
Flags: W
LayerCount: 2
Fore
SplineSet
401 604 m 1,0,-1
 401 0 l 1,1,-1
 371 0 l 1,2,-1
 342 -63 l 1,3,4
 363 -56 363 -56 384 -56 c 0,5,6
 419 -56 419 -56 439.5 -75 c 128,-1,7
 460 -94 460 -94 460 -127 c 0,8,9
 460 -172 460 -172 426.5 -196 c 128,-1,10
 393 -220 393 -220 331 -220 c 0,11,12
 276 -220 276 -220 193 -192 c 1,13,-1
 212 -140 l 1,14,15
 281 -170 281 -170 317 -170 c 0,16,17
 341 -170 341 -170 357.5 -158 c 128,-1,18
 374 -146 374 -146 374 -129 c 0,19,20
 374 -113 374 -113 360 -103.5 c 128,-1,21
 346 -94 346 -94 323 -94 c 0,22,23
 299 -94 299 -94 274 -106 c 1,24,-1
 328 0 l 1,25,-1
 251 0 l 1,26,-1
 251 604 l 1,27,-1
 30 604 l 1,28,-1
 30 729 l 1,29,-1
 614 729 l 1,30,-1
 614 604 l 1,31,-1
 401 604 l 1,0,-1
EndSplineSet
EndChar

StartChar: tcedilla
Encoding: 355 355 293
Width: 333
GlyphClass: 2
Flags: W
LayerCount: 2
Fore
SplineSet
301 529 m 1,0,-1
 301 436 l 1,1,-1
 223 436 l 1,2,-1
 223 142 l 2,3,4
 223 106 223 106 232 94.5 c 128,-1,5
 241 83 241 83 269 83 c 0,6,7
 280 83 280 83 301 86 c 1,8,-1
 301 -12 l 1,9,10
 271 -21 271 -21 236 -23 c 1,11,-1
 208 -84 l 1,12,13
 229 -77 229 -77 250 -77 c 0,14,15
 285 -77 285 -77 305.5 -96 c 128,-1,16
 326 -115 326 -115 326 -148 c 0,17,18
 326 -193 326 -193 292.5 -217 c 128,-1,19
 259 -241 259 -241 197 -241 c 0,20,21
 142 -241 142 -241 59 -213 c 1,22,-1
 78 -161 l 1,23,24
 147 -191 147 -191 183 -191 c 0,25,26
 207 -191 207 -191 223.5 -179 c 128,-1,27
 240 -167 240 -167 240 -150 c 0,28,29
 240 -134 240 -134 226 -124.5 c 128,-1,30
 212 -115 212 -115 189 -115 c 0,31,32
 165 -115 165 -115 140 -127 c 1,33,-1
 194 -22 l 1,34,35
 83 -10 83 -10 83 104 c 2,36,-1
 83 436 l 1,37,-1
 14 436 l 1,38,-1
 14 529 l 1,39,-1
 83 529 l 1,40,-1
 83 674 l 1,41,-1
 223 674 l 1,42,-1
 223 529 l 1,43,-1
 301 529 l 1,0,-1
EndSplineSet
EndChar

StartChar: Tbar
Encoding: 358 358 296
Width: 644
GlyphClass: 2
Flags: W
LayerCount: 2
Fore
SplineSet
136 304 m 1,0,-1
 136 429 l 1,1,-1
 251 429 l 1,2,-1
 251 604 l 1,3,-1
 30 604 l 1,4,-1
 30 729 l 1,5,-1
 614 729 l 1,6,-1
 614 604 l 1,7,-1
 401 604 l 1,8,-1
 401 429 l 1,9,-1
 511 429 l 1,10,-1
 511 304 l 1,11,-1
 401 304 l 1,12,-1
 401 0 l 1,13,-1
 251 0 l 1,14,-1
 251 304 l 1,15,-1
 136 304 l 1,0,-1
EndSplineSet
EndChar

StartChar: tbar
Encoding: 359 359 297
Width: 333
GlyphClass: 2
Flags: W
LayerCount: 2
Fore
SplineSet
301 529 m 1,0,-1
 301 436 l 1,1,-1
 223 436 l 1,2,-1
 223 312 l 1,3,-1
 296 312 l 1,4,-1
 296 219 l 1,5,-1
 223 219 l 1,6,-1
 223 142 l 2,7,8
 223 106 223 106 232 94.5 c 128,-1,9
 241 83 241 83 269 83 c 0,10,11
 280 83 280 83 301 86 c 1,12,-1
 301 -12 l 1,13,14
 267 -23 267 -23 220 -23 c 0,15,16
 83 -23 83 -23 83 104 c 2,17,-1
 83 219 l 1,18,-1
 9 219 l 1,19,-1
 9 312 l 1,20,-1
 83 312 l 1,21,-1
 83 436 l 1,22,-1
 14 436 l 1,23,-1
 14 529 l 1,24,-1
 83 529 l 1,25,-1
 83 674 l 1,26,-1
 223 674 l 1,27,-1
 223 529 l 1,28,-1
 301 529 l 1,0,-1
EndSplineSet
EndChar

StartChar: Uogonek
Encoding: 370 370 308
Width: 738
GlyphClass: 2
Flags: W
AnchorPoint: "Anchor-3" 365 730 basechar 0
LayerCount: 2
Fore
SplineSet
658 235 m 2,0,1
 658 175 658 175 638 127 c 128,-1,2
 618 79 618 79 590 47.5 c 128,-1,3
 562 16 562 16 534 -11 c 128,-1,4
 506 -38 506 -38 486 -68.5 c 128,-1,5
 466 -99 466 -99 466 -132 c 0,6,7
 466 -183 466 -183 543 -183 c 0,8,9
 572 -183 572 -183 601 -177 c 1,10,-1
 601 -224 l 1,11,12
 562 -234 562 -234 521 -234 c 0,13,14
 487 -234 487 -234 457 -226.5 c 128,-1,15
 427 -219 427 -219 402 -196.5 c 128,-1,16
 377 -174 377 -174 377 -138 c 128,-1,17
 377 -102 377 -102 400.5 -72.5 c 128,-1,18
 424 -43 424 -43 481 -7 c 1,19,20
 422 -23 422 -23 372 -23 c 0,21,22
 319 -23 319 -23 271.5 -11 c 128,-1,23
 224 1 224 1 179 28 c 128,-1,24
 134 55 134 55 107 108.5 c 128,-1,25
 80 162 80 162 80 235 c 2,26,-1
 80 729 l 1,27,-1
 230 729 l 1,28,-1
 230 235 l 2,29,30
 230 105 230 105 369 105 c 128,-1,31
 508 105 508 105 508 235 c 2,32,-1
 508 729 l 1,33,-1
 658 729 l 1,34,-1
 658 235 l 2,0,1
EndSplineSet
EndChar

StartChar: uogonek
Encoding: 371 371 309
Width: 611
GlyphClass: 2
Flags: W
AnchorPoint: "Anchor-3" 301 550 basechar 0
LayerCount: 2
Fore
SplineSet
340 -138 m 0,0,1
 340 -109 340 -109 353.5 -84 c 128,-1,2
 367 -59 367 -59 389.5 -42.5 c 128,-1,3
 412 -26 412 -26 429.5 -16.5 c 128,-1,4
 447 -7 447 -7 465 0 c 1,5,-1
 401 0 l 1,6,-1
 401 64 l 1,7,8
 343 -23 343 -23 239 -23 c 0,9,10
 153 -23 153 -23 105.5 26 c 128,-1,11
 58 75 58 75 58 164 c 2,12,-1
 58 540 l 1,13,-1
 198 540 l 1,14,-1
 198 193 l 2,15,16
 198 96 198 96 288 96 c 0,17,18
 339 96 339 96 370 125 c 128,-1,19
 401 154 401 154 401 202 c 2,20,-1
 401 540 l 1,21,-1
 541 540 l 1,22,-1
 541 0 l 1,23,24
 430 -56 430 -56 430 -129 c 0,25,26
 430 -182 430 -182 506 -182 c 0,27,28
 532 -182 532 -182 564 -177 c 1,29,-1
 564 -224 l 1,30,31
 528 -233 528 -233 489 -233 c 0,32,33
 418 -233 418 -233 379 -208 c 128,-1,34
 340 -183 340 -183 340 -138 c 0,0,1
EndSplineSet
EndChar

StartChar: longs
Encoding: 383 383 321
Width: 333
GlyphClass: 2
Flags: W
LayerCount: 2
Fore
SplineSet
230 0 m 1,0,-1
 90 0 l 1,1,-1
 90 436 l 1,2,-1
 14 436 l 1,3,-1
 14 529 l 1,4,-1
 90 529 l 1,5,-1
 90 594 l 2,6,7
 90 729 90 729 228 729 c 0,8,9
 269 729 269 729 308 726 c 1,10,-1
 308 621 l 1,11,12
 290 624 290 624 268 624 c 0,13,14
 230 624 230 624 230 582 c 2,15,-1
 230 0 l 1,0,-1
EndSplineSet
EndChar

StartChar: uni0180
Encoding: 384 384 322
Width: 621
GlyphClass: 2
Flags: W
LayerCount: 2
Fore
SplineSet
323 432 m 128,-1,1
 271 432 271 432 238 385.5 c 128,-1,2
 205 339 205 339 205 265 c 0,3,4
 205 188 205 188 237.5 141 c 128,-1,5
 270 94 270 94 323 94 c 0,6,7
 375 94 375 94 408 141 c 128,-1,8
 441 188 441 188 441 262 c 0,9,10
 441 337 441 337 408 384.5 c 128,-1,0
 375 432 375 432 323 432 c 128,-1,1
354 549 m 0,11,12
 451 549 451 549 516 468.5 c 128,-1,13
 581 388 581 388 581 263 c 0,14,15
 581 141 581 141 516 59 c 128,-1,16
 451 -23 451 -23 354 -23 c 0,17,18
 255 -23 255 -23 205 55 c 1,19,-1
 205 0 l 1,20,-1
 65 0 l 1,21,-1
 65 596 l 1,22,-1
 5 596 l 1,23,-1
 5 663 l 1,24,-1
 65 663 l 1,25,-1
 65 729 l 1,26,-1
 205 729 l 1,27,-1
 205 663 l 1,28,-1
 338 663 l 1,29,-1
 338 596 l 1,30,-1
 205 596 l 1,31,-1
 205 470 l 1,32,33
 255 549 255 549 354 549 c 0,11,12
EndSplineSet
EndChar

StartChar: uni0181
Encoding: 385 385 323
Width: 903
GlyphClass: 2
Flags: W
LayerCount: 2
Fore
SplineSet
429 314 m 1,0,-1
 429 125 l 1,1,-1
 608 125 l 2,2,3
 719 125 719 125 719 219 c 0,4,5
 719 314 719 314 608 314 c 2,6,-1
 429 314 l 1,0,-1
429 604 m 1,7,-1
 429 439 l 1,8,-1
 592 439 l 2,9,10
 698 439 698 439 698 521 c 0,11,12
 698 604 698 604 592 604 c 2,13,-1
 429 604 l 1,7,-1
223 316 m 1,14,15
 127 316 127 316 83.5 373 c 128,-1,16
 40 430 40 430 40 520 c 0,17,18
 40 620 40 620 95.5 674.5 c 128,-1,19
 151 729 151 729 253 729 c 2,20,-1
 604 729 l 2,21,22
 672 729 672 729 721.5 709 c 128,-1,23
 771 689 771 689 795.5 657.5 c 128,-1,24
 820 626 820 626 831 596 c 128,-1,25
 842 566 842 566 842 537 c 0,26,27
 842 490 842 490 819 455.5 c 128,-1,28
 796 421 796 421 742 387 c 1,29,30
 863 316 863 316 863 210 c 0,31,32
 863 174 863 174 851 140 c 128,-1,33
 839 106 839 106 812.5 73 c 128,-1,34
 786 40 786 40 733 20 c 128,-1,35
 680 0 680 0 607 0 c 2,36,-1
 279 0 l 1,37,-1
 279 579 l 1,38,-1
 243 579 l 2,39,40
 168 579 168 579 168 514 c 0,41,42
 168 485 168 485 185 465.5 c 128,-1,43
 202 446 202 446 223 446 c 1,44,-1
 223 316 l 1,14,15
EndSplineSet
EndChar

StartChar: uni0183
Encoding: 387 387 325
Width: 636
GlyphClass: 2
Flags: W
LayerCount: 2
Fore
SplineSet
338 432 m 128,-1,1
 286 432 286 432 253 385.5 c 128,-1,2
 220 339 220 339 220 265 c 0,3,4
 220 188 220 188 252.5 141 c 128,-1,5
 285 94 285 94 338 94 c 0,6,7
 390 94 390 94 423 141 c 128,-1,8
 456 188 456 188 456 262 c 0,9,10
 456 337 456 337 423 384.5 c 128,-1,0
 390 432 390 432 338 432 c 128,-1,1
369 549 m 0,11,12
 466 549 466 549 531 468.5 c 128,-1,13
 596 388 596 388 596 263 c 0,14,15
 596 141 596 141 531 59 c 128,-1,16
 466 -23 466 -23 369 -23 c 0,17,18
 270 -23 270 -23 220 55 c 1,19,-1
 220 0 l 1,20,-1
 80 0 l 1,21,-1
 80 729 l 1,22,-1
 459 729 l 1,23,-1
 459 604 l 1,24,-1
 220 604 l 1,25,-1
 220 470 l 1,26,27
 270 549 270 549 369 549 c 0,11,12
EndSplineSet
EndChar

StartChar: uni0184
Encoding: 388 388 326
Width: 690
GlyphClass: 2
Flags: W
LayerCount: 2
Fore
SplineSet
247 729 m 1,0,-1
 247 469 l 1,1,-1
 434 469 l 2,2,3
 534 469 534 469 594 403 c 128,-1,4
 654 337 654 337 654 226 c 0,5,6
 654 116 654 116 593.5 58 c 128,-1,7
 533 0 533 0 419 0 c 2,8,-1
 97 0 l 1,9,-1
 97 468 l 1,10,-1
 0 543 l 1,11,-1
 247 729 l 1,0,-1
247 344 m 1,12,-1
 247 125 l 1,13,-1
 387 125 l 2,14,15
 447 125 447 125 475.5 152 c 128,-1,16
 504 179 504 179 504 235 c 0,17,18
 504 344 504 344 387 344 c 2,19,-1
 247 344 l 1,12,-1
EndSplineSet
EndChar

StartChar: uni0185
Encoding: 389 389 327
Width: 653
GlyphClass: 2
Flags: W
LayerCount: 2
Fore
SplineSet
355 432 m 128,-1,1
 303 432 303 432 270 385.5 c 128,-1,2
 237 339 237 339 237 265 c 0,3,4
 237 188 237 188 269.5 141 c 128,-1,5
 302 94 302 94 355 94 c 0,6,7
 407 94 407 94 440 141 c 128,-1,8
 473 188 473 188 473 262 c 0,9,10
 473 337 473 337 440 384.5 c 128,-1,0
 407 432 407 432 355 432 c 128,-1,1
386 549 m 0,11,12
 483 549 483 549 548 468.5 c 128,-1,13
 613 388 613 388 613 263 c 0,14,15
 613 141 613 141 548 59 c 128,-1,16
 483 -23 483 -23 386 -23 c 0,17,18
 287 -23 287 -23 237 55 c 1,19,-1
 237 0 l 1,20,-1
 97 0 l 1,21,-1
 97 493 l 1,22,-1
 0 574 l 1,23,-1
 237 729 l 1,24,-1
 237 470 l 1,25,26
 287 549 287 549 386 549 c 0,11,12
EndSplineSet
EndChar

StartChar: uni0187
Encoding: 391 391 329
Width: 754
GlyphClass: 2
Flags: W
LayerCount: 2
Fore
SplineSet
535 482 m 1,0,1
 507 613 507 613 379 613 c 0,2,3
 290 613 290 613 240 545 c 128,-1,4
 190 477 190 477 190 356 c 0,5,6
 190 237 190 237 238.5 170 c 128,-1,7
 287 103 287 103 374 103 c 0,8,9
 446 103 446 103 490.5 142 c 128,-1,10
 535 181 535 181 535 249 c 1,11,-1
 681 249 l 1,12,13
 681 125 681 125 594.5 51 c 128,-1,14
 508 -23 508 -23 370 -23 c 0,15,16
 218 -23 218 -23 129 79.5 c 128,-1,17
 40 182 40 182 40 358 c 0,18,19
 40 535 40 535 130 638 c 128,-1,20
 220 741 220 741 374 741 c 0,21,22
 474 741 474 741 548 697 c 1,23,24
 569 748 569 748 652 748 c 0,25,26
 688 748 688 748 735 743 c 1,27,-1
 735 631 l 1,28,29
 722 635 722 635 720 635 c 0,30,31
 697 635 697 635 687.5 625.5 c 128,-1,32
 678 616 678 616 678 593 c 2,33,-1
 678 482 l 1,34,-1
 535 482 l 1,0,1
EndSplineSet
EndChar

StartChar: uni0188
Encoding: 392 392 330
Width: 613
GlyphClass: 2
Flags: W
LayerCount: 2
Fore
SplineSet
294 436 m 0,0,1
 180 436 180 436 180 259 c 0,2,3
 180 180 180 180 210.5 135 c 128,-1,4
 241 90 241 90 294 90 c 0,5,6
 335 90 335 90 358 112.5 c 128,-1,7
 381 135 381 135 394 187 c 1,8,-1
 528 187 l 1,9,10
 518 90 518 90 454.5 33.5 c 128,-1,11
 391 -23 391 -23 293 -23 c 0,12,13
 173 -23 173 -23 106.5 51 c 128,-1,14
 40 125 40 125 40 259 c 0,15,16
 40 397 40 397 107 473 c 128,-1,17
 174 549 174 549 295 549 c 0,18,19
 365 549 365 549 416 522 c 1,20,21
 443 558 443 558 516 558 c 0,22,23
 546 558 546 558 593 553 c 1,24,-1
 593 441 l 1,25,26
 580 445 580 445 568 445 c 0,27,28
 545 445 545 445 536 435.5 c 128,-1,29
 527 426 527 426 527 403 c 2,30,-1
 528 338 l 1,31,-1
 394 338 l 1,32,33
 382 391 382 391 359.5 413.5 c 128,-1,34
 337 436 337 436 294 436 c 0,0,1
EndSplineSet
EndChar

StartChar: uni018A
Encoding: 394 394 332
Width: 923
GlyphClass: 2
Flags: W
LayerCount: 2
Fore
SplineSet
429 125 m 1,0,-1
 564 125 l 2,1,2
 733 125 733 125 733 364 c 0,3,4
 733 604 733 604 564 604 c 2,5,-1
 429 604 l 1,6,-1
 429 125 l 1,0,-1
223 316 m 1,7,8
 127 316 127 316 83.5 373 c 128,-1,9
 40 430 40 430 40 520 c 0,10,11
 40 620 40 620 95.5 674.5 c 128,-1,12
 151 729 151 729 253 729 c 2,13,-1
 564 729 l 2,14,15
 724 729 724 729 794 645 c 0,16,17
 883 538 883 538 883 365 c 0,18,19
 883 189 883 189 794 85 c 0,20,21
 723 0 723 0 564 0 c 2,22,-1
 279 0 l 1,23,-1
 279 579 l 1,24,-1
 243 578 l 2,25,26
 168 578 168 578 168 514 c 0,27,28
 168 485 168 485 185 465.5 c 128,-1,29
 202 446 202 446 223 446 c 1,30,-1
 223 316 l 1,7,8
EndSplineSet
EndChar

StartChar: uni018B
Encoding: 395 395 333
Width: 722
GlyphClass: 2
Flags: W
LayerCount: 2
Fore
SplineSet
52 222 m 0,0,1
 52 247 52 247 58.5 275 c 128,-1,2
 65 303 65 303 83.5 337.5 c 128,-1,3
 102 372 102 372 131 399 c 128,-1,4
 160 426 160 426 210 444.5 c 128,-1,5
 260 463 260 463 323 463 c 2,6,-1
 486 463 l 1,7,-1
 486 604 l 1,8,-1
 124 604 l 1,9,-1
 124 729 l 1,10,-1
 636 729 l 1,11,-1
 636 0 l 1,12,-1
 308 0 l 2,13,14
 235 0 235 0 182 20.5 c 128,-1,15
 129 41 129 41 102.5 75.5 c 128,-1,16
 76 110 76 110 64 146 c 128,-1,17
 52 182 52 182 52 222 c 0,0,1
486 338 m 1,18,-1
 307 338 l 2,19,20
 254 338 254 338 225 308.5 c 128,-1,21
 196 279 196 279 196 231 c 0,22,23
 196 184 196 184 225 154.5 c 128,-1,24
 254 125 254 125 307 125 c 2,25,-1
 486 125 l 1,26,-1
 486 338 l 1,18,-1
EndSplineSet
EndChar

StartChar: uni018C
Encoding: 396 396 334
Width: 621
GlyphClass: 2
Flags: W
LayerCount: 2
Fore
SplineSet
298 432 m 128,-1,1
 246 432 246 432 213 384.5 c 128,-1,2
 180 337 180 337 180 262 c 0,3,4
 180 188 180 188 213 141 c 128,-1,5
 246 94 246 94 298 94 c 0,6,7
 351 94 351 94 383.5 141 c 128,-1,8
 416 188 416 188 416 265 c 0,9,10
 416 339 416 339 383 385.5 c 128,-1,0
 350 432 350 432 298 432 c 128,-1,1
267 549 m 0,11,12
 366 549 366 549 416 470 c 1,13,-1
 416 604 l 1,14,-1
 177 604 l 1,15,-1
 177 729 l 1,16,-1
 556 729 l 1,17,-1
 556 0 l 1,18,-1
 416 0 l 1,19,-1
 416 55 l 1,20,21
 366 -23 366 -23 267 -23 c 0,22,23
 170 -23 170 -23 105 59 c 128,-1,24
 40 141 40 141 40 263 c 0,25,26
 40 388 40 388 105 468.5 c 128,-1,27
 170 549 170 549 267 549 c 0,11,12
EndSplineSet
EndChar

StartChar: uni018E
Encoding: 398 398 336
Width: 665
GlyphClass: 2
Flags: W
LayerCount: 2
Fore
SplineSet
435 314 m 1,0,-1
 86 314 l 1,1,-1
 86 439 l 1,2,-1
 435 439 l 1,3,-1
 435 604 l 1,4,-1
 58 604 l 1,5,-1
 58 729 l 1,6,-1
 585 729 l 1,7,-1
 585 0 l 1,8,-1
 40 0 l 1,9,-1
 40 125 l 1,10,-1
 435 125 l 1,11,-1
 435 314 l 1,0,-1
EndSplineSet
EndChar

StartChar: uni018F
Encoding: 399 399 337
Width: 782
GlyphClass: 2
Flags: W
LayerCount: 2
Fore
SplineSet
195 293 m 1,0,1
 210 206 210 206 262 155.5 c 128,-1,2
 314 105 314 105 391 105 c 0,3,4
 467 105 467 105 520 156 c 128,-1,5
 573 207 573 207 587 293 c 1,6,-1
 195 293 l 1,0,1
391 -23 m 0,7,8
 233 -23 233 -23 136.5 84.5 c 128,-1,9
 40 192 40 192 40 359 c 0,10,11
 40 393 40 393 44 418 c 1,12,-1
 194 418 l 1,13,-1
 587 418 l 1,14,15
 573 509 573 509 521.5 561 c 128,-1,16
 470 613 470 613 391 613 c 0,17,18
 274 613 274 613 220 504 c 1,19,-1
 63 504 l 1,20,21
 92 591 92 591 148.5 646.5 c 128,-1,22
 205 702 205 702 264 721.5 c 128,-1,23
 323 741 323 741 390 741 c 0,24,25
 548 741 548 741 645 634.5 c 128,-1,26
 742 528 742 528 742 354 c 0,27,28
 742 193 742 193 646 85 c 128,-1,29
 550 -23 550 -23 391 -23 c 0,7,8
EndSplineSet
EndChar

StartChar: uni0190
Encoding: 400 400 338
Width: 681
GlyphClass: 2
Flags: W
LayerCount: 2
Fore
SplineSet
628 507 m 1,0,-1
 488 507 l 1,1,2
 480 621 480 621 335 621 c 0,3,4
 277 621 277 621 243 596.5 c 128,-1,5
 209 572 209 572 209 531 c 0,6,7
 209 428 209 428 347 428 c 2,8,-1
 423 428 l 1,9,-1
 423 308 l 1,10,-1
 321 308 l 2,11,12
 250 308 250 308 217 276 c 128,-1,13
 184 244 184 244 184 195 c 0,14,15
 184 149 184 149 223.5 123 c 128,-1,16
 263 97 263 97 331 97 c 0,17,18
 407 97 407 97 449 128 c 128,-1,19
 491 159 491 159 495 218 c 1,20,-1
 641 218 l 1,21,22
 634 101 634 101 556.5 39 c 128,-1,23
 479 -23 479 -23 339 -23 c 0,24,25
 198 -23 198 -23 119 39.5 c 128,-1,26
 40 102 40 102 40 213 c 0,27,28
 40 328 40 328 129 377 c 1,29,30
 66 424 66 424 66 517 c 0,31,32
 66 624 66 624 138.5 682.5 c 128,-1,33
 211 741 211 741 342 741 c 0,34,35
 381 741 381 741 416 736 c 128,-1,36
 451 731 451 731 491.5 715.5 c 128,-1,37
 532 700 532 700 561 675.5 c 128,-1,38
 590 651 590 651 609 607.5 c 128,-1,39
 628 564 628 564 628 507 c 1,0,-1
EndSplineSet
EndChar

StartChar: uni0191
Encoding: 401 401 339
Width: 611
GlyphClass: 2
Flags: W
LayerCount: 2
Fore
SplineSet
225 439 m 1,0,-1
 544 439 l 1,1,-1
 544 314 l 1,2,-1
 226 314 l 1,3,-1
 226 -94 l 2,4,5
 226 -160 226 -160 197 -189 c 128,-1,6
 168 -218 168 -218 103 -218 c 0,7,8
 67 -218 67 -218 20 -213 c 1,9,-1
 20 -101 l 1,10,11
 33 -105 33 -105 34 -105 c 0,12,13
 57 -105 57 -105 66 -95.5 c 128,-1,14
 75 -86 75 -86 75 -63 c 2,15,-1
 75 729 l 1,16,-1
 587 729 l 1,17,-1
 587 604 l 1,18,-1
 225 604 l 1,19,-1
 225 439 l 1,0,-1
EndSplineSet
EndChar

StartChar: florin
Encoding: 402 402 340
Width: 333
GlyphClass: 2
Flags: W
LayerCount: 2
Fore
SplineSet
313 529 m 1,0,-1
 313 436 l 1,1,-1
 230 436 l 1,2,-1
 230 -94 l 2,3,4
 230 -160 230 -160 201 -189 c 128,-1,5
 172 -218 172 -218 107 -218 c 0,6,7
 71 -218 71 -218 24 -213 c 1,8,-1
 24 -101 l 1,9,10
 37 -105 37 -105 49 -105 c 0,11,12
 72 -105 72 -105 81 -95.5 c 128,-1,13
 90 -86 90 -86 90 -63 c 2,14,-1
 90 436 l 1,15,-1
 14 436 l 1,16,-1
 14 529 l 1,17,-1
 90 529 l 1,18,-1
 90 594 l 2,19,20
 90 729 90 729 228 729 c 0,21,22
 269 729 269 729 308 726 c 1,23,-1
 308 621 l 1,24,25
 290 624 290 624 268 624 c 0,26,27
 230 624 230 624 230 582 c 2,28,-1
 230 529 l 1,29,-1
 313 529 l 1,0,-1
EndSplineSet
EndChar

StartChar: uni0193
Encoding: 403 403 341
Width: 786
GlyphClass: 2
Flags: W
LayerCount: 2
Fore
SplineSet
568 496 m 1,0,1
 528 613 528 613 394 613 c 0,2,3
 299 613 299 613 244.5 546 c 128,-1,4
 190 479 190 479 190 361 c 0,5,6
 190 249 190 249 248.5 177 c 128,-1,7
 307 105 307 105 398 105 c 0,8,9
 478 105 478 105 530.5 157 c 128,-1,10
 583 209 583 209 583 267 c 1,11,-1
 417 267 l 1,12,-1
 417 392 l 1,13,-1
 709 392 l 1,14,-1
 709 0 l 1,15,-1
 619 0 l 1,16,-1
 601 94 l 1,17,18
 559 33 559 33 507 5 c 128,-1,19
 455 -23 455 -23 381 -23 c 0,20,21
 233 -23 233 -23 136.5 85 c 128,-1,22
 40 193 40 193 40 359 c 0,23,24
 40 529 40 529 138 635 c 128,-1,25
 236 741 236 741 393 741 c 0,26,27
 500 741 500 741 579 696 c 1,28,29
 601 748 601 748 683 748 c 0,30,31
 719 748 719 748 766 743 c 1,32,-1
 766 631 l 1,33,34
 753 635 753 635 751 635 c 0,35,36
 728 635 728 635 718.5 625.5 c 128,-1,37
 709 616 709 616 709 593 c 2,38,-1
 709 496 l 1,39,-1
 568 496 l 1,0,1
EndSplineSet
EndChar

StartChar: uni0194
Encoding: 404 404 342
Width: 657
GlyphClass: 2
Flags: W
LayerCount: 2
Fore
SplineSet
333 136 m 1,0,1
 313 116 313 116 313 100 c 0,2,3
 313 91 313 91 319 85.5 c 128,-1,4
 325 80 325 80 333 80 c 0,5,6
 353 80 353 80 353 100 c 0,7,8
 353 116 353 116 333 136 c 1,0,1
409 270 m 1,9,10
 441 219 441 219 462 166 c 128,-1,11
 483 113 483 113 483 81 c 0,12,13
 483 38 483 38 441 9 c 128,-1,14
 399 -20 399 -20 333 -20 c 0,15,16
 263 -20 263 -20 223 7.5 c 128,-1,17
 183 35 183 35 183 81 c 0,18,19
 183 148 183 148 259 270 c 1,20,-1
 17 729 l 1,21,-1
 184 729 l 1,22,-1
 333 407 l 1,23,-1
 472 729 l 1,24,-1
 640 729 l 1,25,-1
 409 270 l 1,9,10
EndSplineSet
EndChar

StartChar: uni0195
Encoding: 405 405 343
Width: 949
GlyphClass: 2
Flags: W
LayerCount: 2
Fore
SplineSet
414 330 m 2,0,1
 414 430 414 430 328 430 c 0,2,3
 281 430 281 430 250.5 400 c 128,-1,4
 220 370 220 370 220 324 c 2,5,-1
 220 0 l 1,6,-1
 80 0 l 1,7,-1
 80 729 l 1,8,-1
 220 729 l 1,9,-1
 220 462 l 1,10,11
 278 549 278 549 378 549 c 0,12,13
 410 549 410 549 438.5 540.5 c 128,-1,14
 467 532 467 532 494.5 512.5 c 128,-1,15
 522 493 522 493 538 454 c 128,-1,16
 554 415 554 415 554 362 c 2,17,-1
 554 238 l 2,18,19
 554 166 554 166 573 135.5 c 128,-1,20
 592 105 592 105 651 105 c 0,21,22
 706 105 706 105 726 138.5 c 128,-1,23
 746 172 746 172 746 244 c 2,24,-1
 746 540 l 1,25,-1
 884 540 l 1,26,-1
 884 212 l 2,27,28
 884 107 884 107 829.5 45.5 c 128,-1,29
 775 -16 775 -16 653 -16 c 0,30,31
 580 -16 580 -16 531 0.5 c 128,-1,32
 482 17 482 17 457.5 50 c 128,-1,33
 433 83 433 83 423.5 121 c 128,-1,34
 414 159 414 159 414 212 c 2,35,-1
 414 330 l 2,0,1
EndSplineSet
EndChar

StartChar: uni0196
Encoding: 406 406 344
Width: 299
GlyphClass: 2
Flags: W
LayerCount: 2
Fore
SplineSet
198 97 m 2,0,1
 199 80 199 80 201 77 c 0,2,3
 205 75 205 75 219 75 c 0,4,5
 230 75 230 75 238.5 76 c 128,-1,6
 247 77 247 77 252 78 c 2,7,-1
 284 87 l 1,8,-1
 284 -37 l 1,9,-1
 263 -41 l 2,10,11
 222 -48 222 -48 191 -48 c 0,12,13
 131 -48 131 -48 98 -19 c 128,-1,14
 65 10 65 10 65 60 c 2,15,-1
 65 754 l 1,16,-1
 198 754 l 1,17,-1
 198 97 l 2,0,1
EndSplineSet
EndChar

StartChar: uni0197
Encoding: 407 407 345
Width: 433
GlyphClass: 2
Flags: W
LayerCount: 2
Fore
SplineSet
143 293 m 1,0,-1
 21 293 l 1,1,-1
 20 418 l 1,2,-1
 143 418 l 1,3,-1
 143 729 l 1,4,-1
 293 729 l 1,5,-1
 293 418 l 1,6,-1
 413 418 l 1,7,-1
 413 293 l 1,8,-1
 293 293 l 1,9,-1
 293 0 l 1,10,-1
 143 0 l 1,11,-1
 143 293 l 1,0,-1
EndSplineSet
EndChar

StartChar: uni0198
Encoding: 408 408 346
Width: 784
GlyphClass: 2
Flags: W
LayerCount: 2
Fore
SplineSet
664 559 m 0,0,1
 664 577 664 577 648.5 593 c 128,-1,2
 633 609 633 609 612 609 c 0,3,4
 594 609 594 609 571 594 c 1,5,-1
 401 415 l 1,6,-1
 723 0 l 1,7,-1
 544 0 l 1,8,-1
 305 322 l 1,9,-1
 230 244 l 1,10,-1
 230 0 l 1,11,-1
 80 0 l 1,12,-1
 80 729 l 1,13,-1
 230 729 l 1,14,-1
 230 409 l 1,15,-1
 454 657 l 2,16,17
 537 745 537 745 611 745 c 0,18,19
 673 745 673 745 735 687 c 0,20,21
 767 657 767 657 775.5 632.5 c 128,-1,22
 784 608 784 608 784 563 c 0,23,24
 784 483 784 483 711 405 c 1,25,-1
 623 487 l 1,26,27
 664 531 664 531 664 559 c 0,0,1
EndSplineSet
EndChar

StartChar: uni0199
Encoding: 409 409 347
Width: 564
GlyphClass: 2
Flags: W
LayerCount: 2
Fore
SplineSet
205 330 m 1,0,-1
 382 540 l 1,1,-1
 541 540 l 1,2,-1
 357 336 l 1,3,-1
 554 0 l 1,4,-1
 390 0 l 1,5,-1
 261 238 l 1,6,-1
 205 177 l 1,7,-1
 205 0 l 1,8,-1
 65 0 l 1,9,-1
 65 605 l 2,10,11
 65 671 65 671 94 700 c 128,-1,12
 123 729 123 729 188 729 c 0,13,14
 224 729 224 729 271 724 c 1,15,-1
 271 612 l 1,16,17
 258 616 258 616 246 616 c 0,18,19
 223 616 223 616 214 606.5 c 128,-1,20
 205 597 205 597 205 574 c 2,21,-1
 205 330 l 1,0,-1
EndSplineSet
EndChar

StartChar: uni019a
Encoding: 410 410 348
Width: 393
GlyphClass: 2
Flags: W
LayerCount: 2
Fore
SplineSet
129 314 m 1,0,-1
 5 314 l 1,1,-1
 5 431 l 1,2,-1
 129 431 l 1,3,-1
 129 754 l 1,4,-1
 263 754 l 1,5,-1
 263 431 l 1,6,-1
 388 431 l 1,7,-1
 388 314 l 1,8,-1
 263 314 l 1,9,-1
 263 -25 l 1,10,-1
 129 -25 l 1,11,-1
 129 314 l 1,0,-1
EndSplineSet
EndChar

StartChar: lambdastroke
Encoding: 411 411 349
Width: 600
GlyphClass: 2
Flags: W
AnchorPoint: "Anchor-5" 475 550 basechar 0
AnchorPoint: "Anchor-3" 363 670 basechar 0
LayerCount: 2
Fore
SplineSet
283 334 m 1,0,-1
 161 -2 l 1,1,-1
 17 -2 l 1,2,-1
 195 462 l 1,3,-1
 50 371 l 1,4,-1
 50 460 l 1,5,-1
 203 555 l 1,6,7
 189 589 189 589 174.5 599.5 c 128,-1,8
 160 610 160 610 138 610 c 0,9,10
 122 610 122 610 101.5 605.5 c 128,-1,11
 81 601 81 601 59 599 c 1,12,-1
 74 721 l 1,13,14
 123 739 123 739 150 739 c 0,15,16
 209 739 209 739 245 707.5 c 128,-1,17
 281 676 281 676 307 619 c 1,18,-1
 445 705 l 1,19,-1
 445 617 l 1,20,-1
 335 548 l 1,21,-1
 341 532 l 1,22,-1
 487 143 l 2,23,24
 498 113 498 113 505 113 c 0,25,26
 518 113 518 113 553 134 c 1,27,-1
 586 22 l 1,28,29
 519 -13 519 -13 479 -13 c 0,30,31
 456 -13 456 -13 439.5 -6.5 c 128,-1,32
 423 0 423 0 411.5 14 c 128,-1,33
 400 28 400 28 393.5 41 c 128,-1,34
 387 54 387 54 379 76 c 0,35,36
 287 323 287 323 283 334 c 1,0,-1
EndSplineSet
EndChar

StartChar: uni019C
Encoding: 412 412 350
Width: 978
GlyphClass: 2
Flags: W
LayerCount: 2
Fore
SplineSet
898 0 m 1,0,-1
 749 0 l 1,1,-1
 749 72 l 1,2,3
 712 28 712 28 676 9 c 128,-1,4
 640 -10 640 -10 591 -10 c 0,5,6
 477 -10 477 -10 433 76 c 1,7,8
 368 -10 368 -10 264 -10 c 0,9,10
 177 -10 177 -10 128.5 37.5 c 128,-1,11
 80 85 80 85 80 169 c 2,12,-1
 80 729 l 1,13,-1
 230 729 l 1,14,-1
 230 193 l 2,15,16
 230 158 230 158 252 138 c 128,-1,17
 274 118 274 118 311 118 c 0,18,19
 359 118 359 118 386.5 148 c 128,-1,20
 414 178 414 178 414 231 c 2,21,-1
 414 729 l 1,22,-1
 564 729 l 1,23,-1
 564 193 l 2,24,25
 564 158 564 158 586 138 c 128,-1,26
 608 118 608 118 645 118 c 0,27,28
 694 118 694 118 721 148 c 128,-1,29
 748 178 748 178 748 231 c 2,30,-1
 748 729 l 1,31,-1
 898 729 l 1,32,-1
 898 0 l 1,0,-1
EndSplineSet
EndChar

StartChar: uni019D
Encoding: 413 413 351
Width: 748
GlyphClass: 2
Flags: W
LayerCount: 2
Fore
SplineSet
77 729 m 1,0,-1
 229 729 l 1,1,-1
 518 233 l 1,2,-1
 518 729 l 1,3,-1
 668 729 l 1,4,-1
 668 0 l 1,5,-1
 518 0 l 1,6,-1
 226 502 l 1,7,-1
 226 -94 l 2,8,9
 226 -160 226 -160 197 -189 c 128,-1,10
 168 -218 168 -218 103 -218 c 0,11,12
 67 -218 67 -218 20 -213 c 1,13,-1
 20 -101 l 1,14,15
 33 -105 33 -105 36 -105 c 0,16,17
 59 -105 59 -105 68 -95.5 c 128,-1,18
 77 -86 77 -86 77 -63 c 2,19,-1
 77 729 l 1,0,-1
EndSplineSet
EndChar

StartChar: uni019E
Encoding: 414 414 352
Width: 613
GlyphClass: 2
Flags: W
LayerCount: 2
Fore
SplineSet
65 540 m 1,0,-1
 205 540 l 1,1,-1
 205 462 l 1,2,3
 263 549 263 549 367 549 c 0,4,5
 453 549 453 549 500.5 500 c 128,-1,6
 548 451 548 451 548 362 c 2,7,-1
 548 -201 l 1,8,-1
 408 -201 l 1,9,-1
 408 333 l 2,10,11
 408 430 408 430 318 430 c 0,12,13
 267 430 267 430 236 401 c 128,-1,14
 205 372 205 372 205 324 c 2,15,-1
 205 0 l 1,16,-1
 65 0 l 1,17,-1
 65 540 l 1,0,-1
EndSplineSet
EndChar

StartChar: Obar
Encoding: 415 415 353
Width: 782
GlyphClass: 2
Flags: W
LayerCount: 2
Fore
SplineSet
390 741 m 0,0,1
 462 741 462 741 521.5 719 c 128,-1,2
 581 697 581 697 621.5 659.5 c 128,-1,3
 662 622 662 622 689.5 571.5 c 128,-1,4
 717 521 717 521 729.5 466.5 c 128,-1,5
 742 412 742 412 742 354 c 0,6,7
 742 311 742 311 733 265 c 128,-1,8
 724 219 724 219 699 166 c 128,-1,9
 674 113 674 113 636.5 72.5 c 128,-1,10
 599 32 599 32 535 4.5 c 128,-1,11
 471 -23 471 -23 391 -23 c 0,12,13
 302 -23 302 -23 232 11 c 128,-1,14
 162 45 162 45 121.5 101 c 128,-1,15
 81 157 81 157 60.5 223 c 128,-1,16
 40 289 40 289 40 359 c 0,17,18
 40 431 40 431 61.5 497.5 c 128,-1,19
 83 564 83 564 124 619.5 c 128,-1,20
 165 675 165 675 234 708 c 128,-1,21
 303 741 303 741 390 741 c 0,0,1
195 293 m 1,22,23
 210 206 210 206 262 155.5 c 128,-1,24
 314 105 314 105 391 105 c 0,25,26
 467 105 467 105 520 156 c 128,-1,27
 573 207 573 207 587 293 c 1,28,-1
 195 293 l 1,22,23
587 418 m 1,29,30
 573 509 573 509 521.5 561 c 128,-1,31
 470 613 470 613 391 613 c 0,32,33
 313 613 313 613 260.5 560.5 c 128,-1,34
 208 508 208 508 194 418 c 1,35,-1
 587 418 l 1,29,30
EndSplineSet
EndChar

StartChar: Ohorn
Encoding: 416 416 354
Width: 791
GlyphClass: 3
Flags: W
AnchorPoint: "Anchor-4" 463 0 basechar 0
AnchorPoint: "Anchor-3" 391 730 basechar 0
AnchorPoint: "Anchor-2" 394 0 basechar 0
LayerCount: 2
Fore
SplineSet
391 613 m 0,0,1
 300 613 300 613 245 543.5 c 128,-1,2
 190 474 190 474 190 359 c 128,-1,3
 190 244 190 244 245 174.5 c 128,-1,4
 300 105 300 105 391 105 c 0,5,6
 481 105 481 105 536.5 174 c 128,-1,7
 592 243 592 243 592 355 c 0,8,9
 592 473 592 473 537.5 543 c 128,-1,10
 483 613 483 613 391 613 c 0,0,1
40 359 m 128,-1,12
 40 527 40 527 136.5 634 c 128,-1,13
 233 741 233 741 390 741 c 0,14,15
 464 741 464 741 526.5 716 c 128,-1,16
 589 691 589 691 635 645 c 1,17,18
 652 674 652 674 652 719 c 0,19,20
 652 738 652 738 648 763 c 1,21,-1
 790 763 l 1,22,23
 791 755 791 755 791 746 c 0,24,25
 791 698 791 698 760.5 658 c 128,-1,26
 730 618 730 618 675 596 c 1,27,28
 742 496 742 496 742 354 c 0,29,30
 742 192 742 192 646.5 84.5 c 128,-1,31
 551 -23 551 -23 391 -23 c 0,32,33
 232 -23 232 -23 136 84 c 128,-1,11
 40 191 40 191 40 359 c 128,-1,12
EndSplineSet
Ligature2: "'ccmp' Glyph Composition/Decomposition in Latin lookup 10 per glyph data 0" O horncomb
Substitution2: "'c2sc' Capitals to Small Capitals in Latin lookup 4 subtable" sc.ohorn
EndChar

StartChar: ohorn
Encoding: 417 417 355
Width: 658
GlyphClass: 3
Flags: W
AnchorPoint: "Anchor-4" 384 0 basechar 0
AnchorPoint: "Anchor-3" 310 550 basechar 0
AnchorPoint: "Anchor-2" 312 0 basechar 0
LayerCount: 2
Fore
SplineSet
307 436 m 0,0,1
 250 436 250 436 215 388 c 128,-1,2
 180 340 180 340 180 263 c 128,-1,3
 180 186 180 186 215 138 c 128,-1,4
 250 90 250 90 307 90 c 0,5,6
 363 90 363 90 398.5 137.5 c 128,-1,7
 434 185 434 185 434 261 c 0,8,9
 434 341 434 341 399.5 388.5 c 128,-1,10
 365 436 365 436 307 436 c 0,0,1
541 418 m 1,11,12
 574 354 574 354 574 259 c 0,13,14
 574 129 574 129 502 53 c 128,-1,15
 430 -23 430 -23 307 -23 c 0,16,17
 182 -23 182 -23 111 53.5 c 128,-1,18
 40 130 40 130 40 263 c 128,-1,19
 40 396 40 396 111 472.5 c 128,-1,20
 182 549 182 549 306 549 c 0,21,22
 433 549 433 549 505 471 c 1,23,24
 519 496 519 496 519 541 c 0,25,26
 519 560 519 560 515 585 c 1,27,-1
 657 585 l 1,28,29
 658 577 658 577 658 568 c 0,30,31
 658 520 658 520 628 480 c 128,-1,32
 598 440 598 440 543 418 c 1,33,-1
 541 418 l 1,11,12
EndSplineSet
Ligature2: "'ccmp' Glyph Composition/Decomposition in Latin lookup 10 per glyph data 0" o horncomb
Substitution2: "'smcp' Lowercase to Small Capitals in Latin lookup 2 subtable" sc.ohorn
EndChar

StartChar: uni01A2
Encoding: 418 418 356
Width: 1076
GlyphClass: 2
Flags: W
LayerCount: 2
Fore
SplineSet
391 613 m 0,0,1
 300 613 300 613 245 543.5 c 128,-1,2
 190 474 190 474 190 359 c 128,-1,3
 190 244 190 244 245 174.5 c 128,-1,4
 300 105 300 105 391 105 c 0,5,6
 481 105 481 105 536.5 174 c 128,-1,7
 592 243 592 243 592 355 c 0,8,9
 592 473 592 473 537.5 543 c 128,-1,10
 483 613 483 613 391 613 c 0,0,1
40 359 m 0,11,12
 40 527 40 527 136.5 634 c 128,-1,13
 233 741 233 741 390 741 c 0,14,15
 528 741 528 741 615 664 c 1,16,17
 633 686 633 686 649 700.5 c 128,-1,18
 665 715 665 715 701.5 729.5 c 128,-1,19
 738 744 738 744 785 744 c 0,20,21
 884 744 884 744 940 691.5 c 128,-1,22
 996 639 996 639 996 539 c 2,23,-1
 996 -200 l 1,24,-1
 846 -200 l 1,25,-1
 846 539 l 2,26,27
 846 583 846 583 833.5 603.5 c 128,-1,28
 821 624 821 624 788 624 c 0,29,30
 758 624 758 624 744 601.5 c 128,-1,31
 730 579 730 579 730 529 c 2,32,-1
 730 463 l 1,33,34
 742 412 742 412 742 354 c 0,35,36
 742 193 742 193 646 85 c 128,-1,37
 550 -23 550 -23 391 -23 c 0,38,39
 233 -23 233 -23 136.5 84.5 c 128,-1,40
 40 192 40 192 40 359 c 0,11,12
EndSplineSet
EndChar

StartChar: uni01a3
Encoding: 419 419 357
Width: 847
GlyphClass: 2
Flags: W
AnchorPoint: "Anchor-3" 277 538 basechar 0
AnchorPoint: "Anchor-2" 278 0 basechar 0
LayerCount: 2
Fore
SplineSet
782 319 m 2,0,-1
 782 -218 l 1,1,-1
 648 -218 l 1,2,-1
 648 339 l 2,3,4
 648 375 648 375 633.5 403 c 128,-1,5
 619 431 619 431 597 431 c 0,6,7
 594 431 594 431 591 430.5 c 128,-1,8
 588 430 588 430 585.5 429.5 c 128,-1,9
 583 429 583 429 580 427.5 c 128,-1,10
 577 426 577 426 574.5 424.5 c 128,-1,11
 572 423 572 423 569.5 421.5 c 128,-1,12
 567 420 567 420 564.5 418.5 c 128,-1,13
 562 417 562 417 559.5 415 c 128,-1,14
 557 413 557 413 555 411 c 128,-1,15
 553 409 553 409 551 407 c 128,-1,16
 549 405 549 405 548 403 c 0,17,18
 574 341 574 341 574 259 c 0,19,20
 574 129 574 129 502 53 c 128,-1,21
 430 -23 430 -23 307 -23 c 0,22,23
 182 -23 182 -23 111 53.5 c 128,-1,24
 40 130 40 130 40 263 c 128,-1,25
 40 396 40 396 111 472.5 c 128,-1,26
 182 549 182 549 306 549 c 0,27,28
 437 549 437 549 508 468 c 1,29,30
 531 502 531 502 562.5 526 c 128,-1,31
 594 550 594 550 623 550 c 0,32,33
 701 550 701 550 741.5 485 c 128,-1,34
 782 420 782 420 782 319 c 2,0,-1
307 436 m 0,35,36
 250 436 250 436 215 388 c 128,-1,37
 180 340 180 340 180 263 c 128,-1,38
 180 186 180 186 215 138 c 128,-1,39
 250 90 250 90 307 90 c 0,40,41
 363 90 363 90 398.5 137.5 c 128,-1,42
 434 185 434 185 434 261 c 0,43,44
 434 341 434 341 399.5 388.5 c 128,-1,45
 365 436 365 436 307 436 c 0,35,36
EndSplineSet
EndChar

StartChar: uni01A4
Encoding: 420 420 358
Width: 876
GlyphClass: 2
Flags: W
LayerCount: 2
Fore
SplineSet
429 385 m 1,0,-1
 569 385 l 2,1,2
 686 385 686 385 686 494 c 0,3,4
 686 550 686 550 657.5 577 c 128,-1,5
 629 604 629 604 569 604 c 2,6,-1
 429 604 l 1,7,-1
 429 385 l 1,0,-1
223 316 m 1,8,9
 127 316 127 316 83.5 373 c 128,-1,10
 40 430 40 430 40 520 c 0,11,12
 40 623 40 623 97.5 676 c 128,-1,13
 155 729 155 729 263 729 c 2,14,-1
 601 729 l 2,15,16
 715 729 715 729 775.5 671 c 128,-1,17
 836 613 836 613 836 503 c 0,18,19
 836 392 836 392 776 326 c 128,-1,20
 716 260 716 260 616 260 c 2,21,-1
 429 260 l 1,22,-1
 429 0 l 1,23,-1
 279 0 l 1,24,-1
 279 579 l 1,25,-1
 263 579 l 2,26,27
 214 579 214 579 191 564 c 128,-1,28
 168 549 168 549 168 514 c 0,29,30
 168 485 168 485 185 465.5 c 128,-1,31
 202 446 202 446 223 446 c 1,32,-1
 223 316 l 1,8,9
EndSplineSet
EndChar

StartChar: uni01A5
Encoding: 421 421 359
Width: 621
GlyphClass: 2
Flags: W
LayerCount: 2
Fore
SplineSet
323 432 m 128,-1,1
 270 432 270 432 237.5 385 c 128,-1,2
 205 338 205 338 205 262 c 128,-1,3
 205 186 205 186 237.5 139.5 c 128,-1,4
 270 93 270 93 323 93 c 0,5,6
 375 93 375 93 408 140 c 128,-1,7
 441 187 441 187 441 260 c 0,8,9
 441 337 441 337 408.5 384.5 c 128,-1,0
 376 432 376 432 323 432 c 128,-1,1
355 549 m 0,10,11
 457 549 457 549 519 467 c 128,-1,12
 581 385 581 385 581 262 c 128,-1,13
 581 139 581 139 516.5 57.5 c 128,-1,14
 452 -24 452 -24 355 -24 c 0,15,16
 255 -24 255 -24 205 64 c 1,17,-1
 205 -218 l 1,18,-1
 65 -218 l 1,19,-1
 65 564 l 2,20,21
 65 629 65 629 95.5 658.5 c 128,-1,22
 126 688 126 688 192 688 c 0,23,24
 222 688 222 688 269 683 c 1,25,-1
 269 571 l 1,26,27
 256 575 256 575 246 575 c 0,28,29
 205 575 205 575 205 540 c 2,30,-1
 205 460 l 1,31,32
 255 549 255 549 355 549 c 0,10,11
EndSplineSet
EndChar

StartChar: uni01A6
Encoding: 422 422 360
Width: 647
GlyphClass: 2
Flags: W
LayerCount: 2
Fore
SplineSet
230 297 m 1,0,-1
 352 297 l 2,1,2
 393 297 393 297 412 311.5 c 128,-1,3
 431 326 431 326 431 360 c 0,4,5
 431 430 431 430 352 430 c 2,6,-1
 230 430 l 1,7,-1
 230 297 l 1,0,-1
230 187 m 1,8,-1
 230 0 l 1,9,-1
 80 0 l 1,10,-1
 80 729 l 1,11,-1
 230 729 l 1,12,-1
 230 540 l 1,13,-1
 381 540 l 2,14,15
 435 540 435 540 474 524 c 128,-1,16
 513 508 513 508 532.5 482 c 128,-1,17
 552 456 552 456 561 429.5 c 128,-1,18
 570 403 570 403 570 375 c 0,19,20
 570 333 570 333 555 296 c 128,-1,21
 540 259 540 259 516 238 c 1,22,23
 593 204 593 204 593 77 c 2,24,-1
 593 -92 l 2,25,26
 593 -116 593 -116 599 -131.5 c 128,-1,27
 605 -147 605 -147 610.5 -151.5 c 128,-1,28
 616 -156 616 -156 627 -163 c 1,29,-1
 627 -190 l 1,30,-1
 466 -190 l 1,31,32
 443 -148 443 -148 443 -85 c 2,33,-1
 443 89 l 2,34,35
 443 130 443 130 408.5 158.5 c 128,-1,36
 374 187 374 187 330 187 c 2,37,-1
 230 187 l 1,8,-1
EndSplineSet
EndChar

StartChar: uni01A7
Encoding: 423 423 361
Width: 681
GlyphClass: 2
Flags: W
LayerCount: 2
Fore
SplineSet
66 507 m 1,0,1
 66 564 66 564 85.5 607.5 c 128,-1,2
 105 651 105 651 134 675.5 c 128,-1,3
 163 700 163 700 203 715.5 c 128,-1,4
 243 731 243 731 278.5 736 c 128,-1,5
 314 741 314 741 352 741 c 0,6,7
 483 741 483 741 555.5 682.5 c 128,-1,8
 628 624 628 624 628 517 c 0,9,10
 628 432 628 432 581 387 c 128,-1,11
 534 342 534 342 423 321 c 2,12,-1
 321 301 l 2,13,14
 246 287 246 287 215 263 c 128,-1,15
 184 239 184 239 184 195 c 0,16,17
 184 149 184 149 223.5 123 c 128,-1,18
 263 97 263 97 331 97 c 0,19,20
 407 97 407 97 449 128 c 128,-1,21
 491 159 491 159 495 218 c 1,22,-1
 641 218 l 1,23,24
 634 101 634 101 556.5 39 c 128,-1,25
 479 -23 479 -23 339 -23 c 0,26,27
 198 -23 198 -23 119 39.5 c 128,-1,28
 40 102 40 102 40 213 c 0,29,30
 40 299 40 299 86 346.5 c 128,-1,31
 132 394 132 394 233 414 c 2,32,-1
 347 436 l 2,33,34
 427 452 427 452 456 471.5 c 128,-1,35
 485 491 485 491 485 531 c 0,36,37
 485 572 485 572 451 596.5 c 128,-1,38
 417 621 417 621 359 621 c 0,39,40
 214 621 214 621 206 507 c 1,41,-1
 66 507 l 1,0,1
EndSplineSet
EndChar

StartChar: uni01A8
Encoding: 424 424 362
Width: 561
GlyphClass: 2
Flags: W
LayerCount: 2
Fore
SplineSet
389 157 m 1,0,-1
 526 157 l 1,1,2
 520 -23 520 -23 271 -23 c 0,3,4
 204 -23 204 -23 155 -5.5 c 128,-1,5
 106 12 106 12 81.5 41 c 128,-1,6
 57 70 57 70 46 99.5 c 128,-1,7
 35 129 35 129 35 160 c 0,8,9
 35 265 35 265 141 296 c 2,10,-1
 318 347 l 2,11,12
 347 356 347 356 357 364.5 c 128,-1,13
 367 373 367 373 367 389 c 0,14,15
 367 412 367 412 345 425.5 c 128,-1,16
 323 439 323 439 286 439 c 0,17,18
 186 439 186 439 185 366 c 1,19,-1
 50 366 l 1,20,21
 52 452 52 452 114 500.5 c 128,-1,22
 176 549 176 549 285 549 c 0,23,24
 388 549 388 549 447.5 500.5 c 128,-1,25
 507 452 507 452 507 369 c 0,26,27
 507 352 507 352 504 337 c 128,-1,28
 501 322 501 322 495 310.5 c 128,-1,29
 489 299 489 299 483.5 290 c 128,-1,30
 478 281 478 281 468 273.5 c 128,-1,31
 458 266 458 266 451.5 261 c 128,-1,32
 445 256 445 256 433 251.5 c 128,-1,33
 421 247 421 247 416.5 245 c 128,-1,34
 412 243 412 243 401 239.5 c 128,-1,35
 390 236 390 236 389 236 c 2,36,-1
 222 184 l 2,37,38
 196 176 196 176 185.5 166 c 128,-1,39
 175 156 175 156 175 140 c 0,40,41
 175 115 175 115 202.5 101 c 128,-1,42
 230 87 230 87 279 87 c 0,43,44
 339 87 339 87 360.5 105 c 128,-1,45
 382 123 382 123 389 157 c 1,0,-1
EndSplineSet
EndChar

StartChar: uni01aa
Encoding: 426 426 364
Width: 441
GlyphClass: 2
Flags: W
LayerCount: 2
Fore
SplineSet
184 628 m 0,0,1
 169 628 169 628 158 617.5 c 128,-1,2
 147 607 147 607 147 593 c 128,-1,3
 147 579 147 579 158 568 c 128,-1,4
 169 557 169 557 184 557 c 128,-1,5
 199 557 199 557 210 567.5 c 128,-1,6
 221 578 221 578 221 592 c 0,7,8
 221 608 221 608 210.5 618 c 128,-1,9
 200 628 200 628 184 628 c 0,0,1
184 445 m 0,10,11
 123 445 123 445 79.5 488.5 c 128,-1,12
 36 532 36 532 36 593 c 0,13,14
 36 653 36 653 79.5 696.5 c 128,-1,15
 123 740 123 740 184 740 c 0,16,17
 251 740 251 740 291.5 699.5 c 128,-1,18
 332 659 332 659 332 591 c 2,19,-1
 332 -46 l 2,20,21
 332 -72 332 -72 341 -81 c 128,-1,22
 350 -90 350 -90 376 -90 c 0,23,24
 378 -90 378 -90 421 -87 c 1,25,-1
 421 -205 l 1,26,-1
 401 -210 l 2,27,28
 383 -213 383 -213 368 -213 c 0,29,30
 287 -213 287 -213 243 -178 c 128,-1,31
 199 -143 199 -143 199 -79 c 2,32,-1
 199 446 l 1,33,34
 192 445 192 445 184 445 c 0,10,11
EndSplineSet
EndChar

StartChar: uni01AB
Encoding: 427 427 365
Width: 333
GlyphClass: 2
Flags: W
LayerCount: 2
Fore
SplineSet
301 529 m 1,0,-1
 301 436 l 1,1,-1
 223 436 l 1,2,-1
 223 142 l 2,3,4
 223 106 223 106 232 94.5 c 128,-1,5
 241 83 241 83 269 83 c 0,6,7
 280 83 280 83 301 86 c 1,8,-1
 301 -94 l 2,9,10
 301 -160 301 -160 272 -189 c 128,-1,11
 243 -218 243 -218 178 -218 c 0,12,13
 142 -218 142 -218 95 -213 c 1,14,-1
 95 -101 l 1,15,16
 108 -105 108 -105 120 -105 c 0,17,18
 143 -105 143 -105 152 -95.5 c 128,-1,19
 161 -86 161 -86 161 -63 c 2,20,-1
 161 -15 l 1,21,22
 83 8 83 8 83 104 c 2,23,-1
 83 436 l 1,24,-1
 14 436 l 1,25,-1
 14 529 l 1,26,-1
 83 529 l 1,27,-1
 83 674 l 1,28,-1
 223 674 l 1,29,-1
 223 529 l 1,30,-1
 301 529 l 1,0,-1
EndSplineSet
EndChar

StartChar: uni01AC
Encoding: 428 428 366
Width: 715
GlyphClass: 2
Flags: W
LayerCount: 2
Fore
SplineSet
225 604 m 2,0,1
 205 604 205 604 192.5 600 c 128,-1,2
 180 596 180 596 174.5 587.5 c 128,-1,3
 169 579 169 579 167.5 570.5 c 128,-1,4
 166 562 166 562 166 549 c 0,5,6
 166 535 166 535 167.5 527 c 128,-1,7
 169 519 169 519 175 509.5 c 128,-1,8
 181 500 181 500 196 495.5 c 128,-1,9
 211 491 211 491 235 491 c 1,10,-1
 235 366 l 1,11,12
 144 366 144 366 92 413.5 c 128,-1,13
 40 461 40 461 40 550 c 0,14,15
 40 628 40 628 85 678.5 c 128,-1,16
 130 729 130 729 225 729 c 2,17,-1
 695 729 l 1,18,-1
 695 604 l 1,19,-1
 482 604 l 1,20,-1
 482 0 l 1,21,-1
 332 0 l 1,22,-1
 332 604 l 1,23,-1
 225 604 l 2,0,1
EndSplineSet
EndChar

StartChar: uni01AD
Encoding: 429 429 367
Width: 333
GlyphClass: 2
Flags: W
LayerCount: 2
Fore
SplineSet
301 529 m 1,0,-1
 301 436 l 1,1,-1
 223 436 l 1,2,-1
 223 142 l 2,3,4
 223 106 223 106 232 94.5 c 128,-1,5
 241 83 241 83 269 83 c 0,6,7
 280 83 280 83 301 86 c 1,8,-1
 301 -12 l 1,9,10
 267 -23 267 -23 220 -23 c 0,11,12
 83 -23 83 -23 83 104 c 2,13,-1
 83 436 l 1,14,-1
 14 436 l 1,15,-1
 14 529 l 1,16,-1
 83 529 l 1,17,-1
 83 605 l 2,18,19
 83 671 83 671 112 700 c 128,-1,20
 141 729 141 729 206 729 c 0,21,22
 242 729 242 729 289 724 c 1,23,-1
 289 612 l 1,24,25
 276 616 276 616 264 616 c 0,26,27
 241 616 241 616 232 606.5 c 128,-1,28
 223 597 223 597 223 574 c 2,29,-1
 223 529 l 1,30,-1
 301 529 l 1,0,-1
EndSplineSet
EndChar

StartChar: uni01AE
Encoding: 430 430 368
Width: 624
GlyphClass: 2
Flags: W
LayerCount: 2
Fore
SplineSet
241 -94 m 2,0,-1
 241 604 l 1,1,-1
 20 604 l 1,2,-1
 20 729 l 1,3,-1
 604 729 l 1,4,-1
 604 604 l 1,5,-1
 391 604 l 1,6,-1
 391 -63 l 2,7,8
 391 -105 391 -105 425 -105 c 0,9,10
 431 -105 431 -105 447 -101 c 1,11,-1
 447 -213 l 1,12,13
 400 -218 400 -218 364 -218 c 0,14,15
 299 -218 299 -218 270 -189 c 128,-1,16
 241 -160 241 -160 241 -94 c 2,0,-1
EndSplineSet
EndChar

StartChar: Uhorn
Encoding: 431 431 369
Width: 773
GlyphClass: 3
LigCaretCntFixed: 1
Flags: W
AnchorPoint: "Anchor-4" 455 0 basechar 0
AnchorPoint: "Anchor-3" 366 730 basechar 0
AnchorPoint: "Anchor-2" 374 1 basechar 0
LayerCount: 2
Fore
SplineSet
369 -23 m 128,-1,1
 329 -23 329 -23 291.5 -16 c 128,-1,2
 254 -9 254 -9 214.5 9 c 128,-1,3
 175 27 175 27 146 55 c 128,-1,4
 117 83 117 83 98.5 129.5 c 128,-1,5
 80 176 80 176 80 235 c 2,6,-1
 80 729 l 1,7,-1
 230 729 l 1,8,-1
 230 235 l 2,9,10
 230 105 230 105 369 105 c 128,-1,11
 508 105 508 105 508 235 c 2,12,-1
 508 729 l 1,13,-1
 511 729 l 2,14,15
 634 729 634 729 634 852 c 0,16,17
 634 871 634 871 630 896 c 1,18,-1
 772 896 l 1,19,20
 773 888 773 888 773 879 c 0,21,22
 773 831 773 831 743 791 c 128,-1,23
 713 751 713 751 658 729 c 1,24,-1
 658 235 l 2,25,26
 658 176 658 176 639.5 129.5 c 128,-1,27
 621 83 621 83 592 55 c 128,-1,28
 563 27 563 27 523.5 9 c 128,-1,29
 484 -9 484 -9 446.5 -16 c 128,-1,0
 409 -23 409 -23 369 -23 c 128,-1,1
EndSplineSet
Ligature2: "'ccmp' Glyph Composition/Decomposition in Latin lookup 10 per glyph data 0" U horncomb
Substitution2: "'c2sc' Capitals to Small Capitals in Latin lookup 4 subtable" sc.uhorn
LCarets2: 1 15248
EndChar

StartChar: uhorn
Encoding: 432 432 370
Width: 666
GlyphClass: 3
LigCaretCntFixed: 1
Flags: W
AnchorPoint: "Anchor-4" 488 0 basechar 0 {150-150 0} {}
AnchorPoint: "Anchor-3" 313 550 basechar 0
AnchorPoint: "Anchor-2" 295 0 basechar 0
LayerCount: 2
Fore
SplineSet
548 0 m 1,0,-1
 408 0 l 1,1,-1
 408 64 l 1,2,3
 350 -23 350 -23 246 -23 c 0,4,5
 160 -23 160 -23 112.5 26 c 128,-1,6
 65 75 65 75 65 164 c 2,7,-1
 65 540 l 1,8,-1
 205 540 l 1,9,-1
 205 193 l 2,10,11
 205 96 205 96 295 96 c 0,12,13
 346 96 346 96 377 125 c 128,-1,14
 408 154 408 154 408 202 c 2,15,-1
 408 540 l 1,16,17
 469 540 469 540 496.5 570.5 c 128,-1,18
 524 601 524 601 524 663 c 0,19,20
 524 682 524 682 520 707 c 1,21,-1
 662 707 l 1,22,23
 663 699 663 699 663 690 c 0,24,25
 663 642 663 642 633 602 c 128,-1,26
 603 562 603 562 548 540 c 1,27,-1
 548 0 l 1,0,-1
EndSplineSet
Ligature2: "'ccmp' Glyph Composition/Decomposition in Latin lookup 10 per glyph data 0" u horncomb
Substitution2: "'smcp' Lowercase to Small Capitals in Latin lookup 2 subtable" sc.uhorn
LCarets2: 1 -11392
EndChar

StartChar: uni01b2
Encoding: 434 434 372
Width: 722
GlyphClass: 2
Flags: W
LayerCount: 2
Fore
SplineSet
65 243 m 2,0,-1
 65 731 l 1,1,-1
 208 731 l 1,2,-1
 208 203 l 2,3,4
 208 164 208 164 240.5 142 c 128,-1,5
 273 120 273 120 309 120 c 0,6,7
 334 120 334 120 357.5 123.5 c 128,-1,8
 381 127 381 127 407 135 c 128,-1,9
 433 143 433 143 454 159 c 128,-1,10
 475 175 475 175 492.5 197.5 c 128,-1,11
 510 220 510 220 520 255 c 128,-1,12
 530 290 530 290 530 334 c 2,13,-1
 530 336 l 2,14,15
 530 390 530 390 522.5 433 c 128,-1,16
 515 476 515 476 494.5 521 c 128,-1,17
 474 566 474 566 454.5 598.5 c 128,-1,18
 435 631 435 631 394 692 c 2,19,-1
 369 731 l 1,20,-1
 536 731 l 1,21,-1
 543 721 l 2,22,23
 612 628 612 628 642.5 538.5 c 128,-1,24
 673 449 673 449 673 346 c 0,25,26
 673 162 673 162 586 75 c 128,-1,27
 499 -12 499 -12 339 -12 c 0,28,29
 65 -12 65 -12 65 243 c 2,0,-1
EndSplineSet
EndChar

StartChar: uni01B3
Encoding: 435 435 373
Width: 839
GlyphClass: 2
Flags: W
LayerCount: 2
Fore
SplineSet
661 546 m 128,-1,1
 661 573 661 573 642 584.5 c 128,-1,2
 623 596 623 596 608 596 c 0,3,4
 571 596 571 596 544 540 c 2,5,-1
 409 270 l 1,6,-1
 409 0 l 1,7,-1
 259 0 l 1,8,-1
 259 270 l 1,9,-1
 17 729 l 1,10,-1
 184 729 l 1,11,-1
 333 407 l 1,12,-1
 417 601 l 1,13,14
 477 729 477 729 592 729 c 0,15,16
 632 729 632 729 668.5 718.5 c 128,-1,17
 705 708 705 708 737.5 685.5 c 128,-1,18
 770 663 770 663 789.5 623 c 128,-1,19
 809 583 809 583 809 530 c 0,20,21
 809 484 809 484 777 415 c 1,22,-1
 642 480 l 1,23,0
 661 519 661 519 661 546 c 128,-1,1
EndSplineSet
EndChar

StartChar: yhook
Encoding: 436 436 374
Width: 643
GlyphClass: 2
Flags: W
LayerCount: 2
Fore
SplineSet
282 147 m 1,0,-1
 408 589 l 2,1,2
 425 650 425 650 466.5 690 c 128,-1,3
 508 730 508 730 556 730 c 0,4,5
 601 730 601 730 638 726 c 1,6,-1
 637 621 l 1,7,8
 618 624 618 624 596 624 c 0,9,10
 582 624 582 624 569 607.5 c 128,-1,11
 556 591 556 591 538 540 c 2,12,-1
 345 -10 l 2,13,14
 340 -23 340 -23 332 -50.5 c 128,-1,15
 324 -78 324 -78 318.5 -93 c 128,-1,16
 313 -108 313 -108 302.5 -131 c 128,-1,17
 292 -154 292 -154 279.5 -167 c 128,-1,18
 267 -180 267 -180 249.5 -193.5 c 128,-1,19
 232 -207 232 -207 207 -213 c 128,-1,20
 182 -219 182 -219 150 -219 c 0,21,22
 119 -219 119 -219 86 -212 c 1,23,-1
 86 -110 l 1,24,25
 108 -116 108 -116 124 -116 c 0,26,27
 154 -116 154 -116 182 -93.5 c 128,-1,28
 210 -71 210 -71 210 -22 c 1,29,-1
 9 540 l 1,30,-1
 163 540 l 1,31,-1
 282 147 l 1,0,-1
EndSplineSet
EndChar

StartChar: uni01B5
Encoding: 437 437 375
Width: 611
GlyphClass: 2
Flags: W
LayerCount: 2
Fore
SplineSet
578 729 m 1,0,-1
 578 604 l 1,1,-1
 419 399 l 1,2,-1
 526 399 l 1,3,-1
 526 332 l 1,4,-1
 367 332 l 1,5,-1
 206 125 l 1,6,-1
 578 125 l 1,7,-1
 578 0 l 1,8,-1
 30 0 l 1,9,-1
 30 125 l 1,10,-1
 191 332 l 1,11,-1
 88 332 l 1,12,-1
 88 399 l 1,13,-1
 243 399 l 1,14,-1
 403 604 l 1,15,-1
 30 604 l 1,16,-1
 30 729 l 1,17,-1
 578 729 l 1,0,-1
EndSplineSet
EndChar

StartChar: uni01B6
Encoding: 438 438 376
Width: 500
GlyphClass: 2
Flags: W
AnchorPoint: "Anchor-3" 250 550 basechar 0
LayerCount: 2
Fore
SplineSet
459 540 m 1,0,-1
 459 427 l 1,1,-1
 363 313 l 1,2,-1
 414 313 l 1,3,-1
 414 246 l 1,4,-1
 306 246 l 1,5,-1
 194 113 l 1,6,-1
 468 113 l 1,7,-1
 468 0 l 1,8,-1
 21 0 l 1,9,-1
 21 113 l 1,10,-1
 134 246 l 1,11,-1
 81 246 l 1,12,-1
 81 313 l 1,13,-1
 191 313 l 1,14,-1
 288 427 l 1,15,-1
 39 427 l 1,16,-1
 39 540 l 1,17,-1
 459 540 l 1,0,-1
EndSplineSet
EndChar

StartChar: Yogh
Encoding: 439 439 377
Width: 567
GlyphClass: 2
Flags: W
LayerCount: 2
Fore
SplineSet
367 393 m 1,0,1
 449 372 449 372 488 319.5 c 128,-1,2
 527 267 527 267 527 204 c 0,3,4
 527 100 527 100 459.5 38.5 c 128,-1,5
 392 -23 392 -23 279 -23 c 0,6,7
 170 -23 170 -23 105.5 39.5 c 128,-1,8
 41 102 41 102 40 208 c 1,9,-1
 176 208 l 1,10,11
 182 97 182 97 282 97 c 0,12,13
 328 97 328 97 357.5 127 c 128,-1,14
 387 157 387 157 387 204 c 0,15,16
 387 243 387 243 366 271.5 c 128,-1,17
 345 300 345 300 310 310 c 0,18,19
 282 317 282 317 228 317 c 1,20,-1
 228 411 l 1,21,-1
 336 604 l 1,22,-1
 81 604 l 1,23,-1
 81 729 l 1,24,-1
 482 729 l 1,25,-1
 482 604 l 1,26,-1
 367 393 l 1,0,1
EndSplineSet
EndChar

StartChar: uni01B8
Encoding: 440 440 378
Width: 556
GlyphClass: 2
Flags: W
LayerCount: 2
Fore
SplineSet
29 204 m 0,0,1
 29 265 29 265 67.5 318.5 c 128,-1,2
 106 372 106 372 189 393 c 1,3,-1
 74 604 l 1,4,-1
 74 729 l 1,5,-1
 475 729 l 1,6,-1
 475 604 l 1,7,-1
 220 604 l 1,8,-1
 328 411 l 1,9,-1
 328 317 l 1,10,11
 274 317 274 317 246 310 c 0,12,13
 211 300 211 300 190 271.5 c 128,-1,14
 169 243 169 243 169 204 c 0,15,16
 169 157 169 157 198.5 127 c 128,-1,17
 228 97 228 97 274 97 c 0,18,19
 374 97 374 97 380 208 c 1,20,-1
 516 208 l 1,21,22
 515 102 515 102 450.5 39.5 c 128,-1,23
 386 -23 386 -23 277 -23 c 0,24,25
 164 -23 164 -23 96.5 38.5 c 128,-1,26
 29 100 29 100 29 204 c 0,0,1
EndSplineSet
EndChar

StartChar: uni01b9
Encoding: 441 441 379
Width: 645
GlyphClass: 2
Flags: W
LayerCount: 2
Fore
SplineSet
208 293 m 1,0,-1
 78 425 l 1,1,-1
 78 524 l 1,2,-1
 569 524 l 1,3,-1
 569 401 l 1,4,-1
 273 401 l 1,5,-1
 408 289 l 1,6,-1
 408 180 l 1,7,-1
 322 180 l 2,8,9
 244 180 244 180 211 153.5 c 128,-1,10
 178 127 178 127 178 77 c 0,11,12
 178 54 178 54 188 36.5 c 128,-1,13
 198 19 198 19 217 8 c 128,-1,14
 236 -3 236 -3 262 -9 c 128,-1,15
 288 -15 288 -15 322 -15 c 0,16,17
 391 -15 391 -15 427 8 c 128,-1,18
 463 31 463 31 468 89 c 2,19,-1
 469 136 l 1,20,-1
 611 136 l 1,21,-1
 609 86 l 2,22,23
 606 47 606 47 596.5 15 c 128,-1,24
 587 -17 587 -17 570.5 -42.5 c 128,-1,25
 554 -68 554 -68 531 -87 c 128,-1,26
 508 -106 508 -106 477.5 -118.5 c 128,-1,27
 447 -131 447 -131 409 -137 c 128,-1,28
 371 -143 371 -143 325 -143 c 0,29,30
 188 -143 188 -143 111.5 -83 c 128,-1,31
 35 -23 35 -23 35 78 c 0,32,33
 35 164 35 164 79 218.5 c 128,-1,34
 123 273 123 273 208 293 c 1,0,-1
EndSplineSet
EndChar

StartChar: uni01ba
Encoding: 442 442 380
Width: 569
GlyphClass: 2
Flags: W
LayerCount: 2
Fore
SplineSet
529 108 m 0,0,1
 529 18 529 18 458.5 -38.5 c 128,-1,2
 388 -95 388 -95 280 -95 c 0,3,4
 272 -95 272 -95 259.5 -93 c 128,-1,5
 247 -91 247 -91 234 -87.5 c 128,-1,6
 221 -84 221 -84 209 -81 c 128,-1,7
 197 -78 197 -78 186 -76 c 128,-1,8
 175 -74 175 -74 169 -74 c 0,9,10
 161 -74 161 -74 161 -78 c 0,11,12
 161 -95 161 -95 189 -113 c 128,-1,13
 217 -131 217 -131 249 -131 c 0,14,15
 331 -131 331 -131 425 -95 c 2,16,-1
 449 -85 l 1,17,-1
 488 -202 l 1,18,-1
 466 -210 l 2,19,20
 428 -224 428 -224 410.5 -230 c 128,-1,21
 393 -236 393 -236 345 -245 c 128,-1,22
 297 -254 297 -254 249 -254 c 0,23,24
 144 -254 144 -254 87 -197 c 128,-1,25
 30 -140 30 -140 30 -60 c 0,26,27
 30 -43 30 -43 34 -27.5 c 128,-1,28
 38 -12 38 -12 49.5 5.5 c 128,-1,29
 61 23 61 23 87 33.5 c 128,-1,30
 113 44 113 44 151 44 c 0,31,32
 182 44 182 44 228 36 c 128,-1,33
 274 28 274 28 280 28 c 0,34,35
 317 28 317 28 358.5 47.5 c 128,-1,36
 400 67 400 67 400 103 c 0,37,38
 400 137 400 137 363.5 158.5 c 128,-1,39
 327 180 327 180 270 180 c 2,40,-1
 197 180 l 1,41,-1
 197 289 l 1,42,-1
 312 426 l 1,43,-1
 48 426 l 1,44,-1
 48 549 l 1,45,-1
 489 549 l 1,46,-1
 489 441 l 1,47,-1
 368 293 l 1,48,49
 448 275 448 275 488.5 227.5 c 128,-1,50
 529 180 529 180 529 108 c 0,0,1
EndSplineSet
EndChar

StartChar: uni01bb
Encoding: 443 443 381
Width: 579
GlyphClass: 2
Flags: W
LayerCount: 2
Fore
SplineSet
297 740 m 0,0,1
 408 740 408 740 478.5 675 c 128,-1,2
 549 610 549 610 549 507 c 0,3,4
 549 391 549 391 446 310 c 1,5,-1
 506 286 l 1,6,-1
 506 155 l 1,7,-1
 315 232 l 1,8,-1
 286 217 l 2,9,10
 283 215 283 215 277 212 c 0,11,12
 241 193 241 193 226.5 184 c 128,-1,13
 212 175 212 175 198 161.5 c 128,-1,14
 184 148 184 148 178 132 c 1,15,-1
 544 132 l 1,16,-1
 544 1 l 1,17,-1
 21 1 l 1,18,-1
 22 27 l 2,19,20
 26 98 26 98 41.5 144.5 c 128,-1,21
 57 191 57 191 85.5 223.5 c 128,-1,22
 114 256 114 256 167 293 c 1,23,-1
 123 310 l 1,24,-1
 123 441 l 1,25,-1
 297 371 l 1,26,-1
 326 387 l 2,27,28
 409 434 409 434 409 505 c 0,29,30
 409 552 409 552 376.5 582.5 c 128,-1,31
 344 613 344 613 294 613 c 0,32,33
 259 613 259 613 235 600.5 c 128,-1,34
 211 588 211 588 199.5 565 c 128,-1,35
 188 542 188 542 183 520 c 128,-1,36
 178 498 178 498 176 467 c 2,37,-1
 175 444 l 1,38,-1
 37 444 l 1,39,-1
 38 470 l 2,40,41
 39 504 39 504 44 534 c 128,-1,42
 49 564 49 564 60.5 595.5 c 128,-1,43
 72 627 72 627 91.5 652 c 128,-1,44
 111 677 111 677 138.5 697.5 c 128,-1,45
 166 718 166 718 206.5 729 c 128,-1,46
 247 740 247 740 297 740 c 0,0,1
EndSplineSet
EndChar

StartChar: wynn
Encoding: 447 447 383
Width: 627
GlyphClass: 2
Flags: W
LayerCount: 2
Fore
SplineSet
205 350 m 1,0,-1
 205 32 l 1,1,2
 239 55 239 55 273 84 c 128,-1,3
 307 113 307 113 339.5 148.5 c 128,-1,4
 372 184 372 184 397 221 c 128,-1,5
 422 258 422 258 437.5 298.5 c 128,-1,6
 453 339 453 339 453 376 c 0,7,8
 453 433 453 433 381 433 c 0,9,10
 288 433 288 433 205 350 c 1,0,-1
205 -77 m 1,11,-1
 205 -218 l 1,12,-1
 65 -218 l 1,13,-1
 65 540 l 1,14,-1
 205 540 l 1,15,-1
 205 460 l 1,16,17
 252 506 252 506 296.5 529 c 128,-1,18
 341 552 341 552 414 552 c 0,19,20
 490 552 490 552 541 499.5 c 128,-1,21
 592 447 592 447 592 358 c 0,22,23
 592 149 592 149 266 -43 c 0,24,25
 263 -44 263 -44 205 -77 c 1,11,-1
EndSplineSet
EndChar

StartChar: uni01c2
Encoding: 450 450 386
Width: 584
GlyphClass: 2
Flags: W
LayerCount: 2
Fore
SplineSet
255 731 m 1,0,-1
 325 731 l 1,1,-1
 325 358 l 1,2,-1
 539 358 l 1,3,-1
 539 278 l 1,4,-1
 325 278 l 1,5,-1
 325 186 l 1,6,-1
 539 186 l 1,7,-1
 539 106 l 1,8,-1
 325 106 l 1,9,-1
 325 -200 l 1,10,-1
 255 -200 l 1,11,-1
 255 106 l 1,12,-1
 45 106 l 1,13,-1
 45 186 l 1,14,-1
 255 186 l 1,15,-1
 255 278 l 1,16,-1
 45 278 l 1,17,-1
 45 358 l 1,18,-1
 255 358 l 1,19,-1
 255 731 l 1,0,-1
EndSplineSet
EndChar

StartChar: uni01E4
Encoding: 484 484 420
Width: 804
GlyphClass: 2
Flags: W
LayerCount: 2
Fore
SplineSet
417 149 m 1,0,-1
 417 229 l 1,1,-1
 576 229 l 1,2,3
 581 245 581 245 583 267 c 1,4,-1
 417 267 l 1,5,-1
 417 392 l 1,6,-1
 709 392 l 1,7,-1
 709 229 l 1,8,-1
 794 229 l 1,9,-1
 794 149 l 1,10,-1
 709 149 l 1,11,-1
 709 -2 l 1,12,-1
 619 -2 l 1,13,-1
 601 94 l 1,14,15
 559 33 559 33 507 5 c 128,-1,16
 455 -23 455 -23 381 -23 c 0,17,18
 233 -23 233 -23 136.5 85 c 128,-1,19
 40 193 40 193 40 359 c 0,20,21
 40 529 40 529 138 635 c 128,-1,22
 236 741 236 741 393 741 c 0,23,24
 525 741 525 741 610 675 c 128,-1,25
 695 609 695 609 709 496 c 1,26,-1
 568 496 l 1,27,28
 551 545 551 545 523 569 c 0,29,30
 473 613 473 613 394 613 c 0,31,32
 299 613 299 613 244.5 546 c 128,-1,33
 190 479 190 479 190 361 c 0,34,35
 190 249 190 249 248.5 177 c 128,-1,36
 307 105 307 105 398 105 c 0,37,38
 468 105 468 105 521 149 c 1,39,-1
 417 149 l 1,0,-1
EndSplineSet
EndChar

StartChar: uni01E5
Encoding: 485 485 421
Width: 652
GlyphClass: 2
Flags: W
LayerCount: 2
Fore
SplineSet
288 432 m 0,0,1
 237 432 237 432 205.5 384 c 128,-1,2
 174 336 174 336 174 259 c 0,3,4
 174 186 174 186 205 140 c 128,-1,5
 236 94 236 94 286 94 c 0,6,7
 341 94 341 94 375.5 140 c 128,-1,8
 410 186 410 186 410 259 c 0,9,10
 410 334 410 334 375.5 383 c 128,-1,11
 341 432 341 432 288 432 c 0,0,1
408 540 m 1,12,-1
 541 540 l 1,13,-1
 541 -18 l 2,14,15
 541 -33 541 -33 539 -47 c 1,16,-1
 632 -47 l 1,17,-1
 632 -114 l 1,18,-1
 518 -114 l 1,19,20
 461 -218 461 -218 284 -218 c 0,21,22
 176 -218 176 -218 111 -176.5 c 128,-1,23
 46 -135 46 -135 45 -65 c 1,24,-1
 190 -65 l 1,25,26
 207 -128 207 -128 289 -128 c 0,27,28
 324 -128 324 -128 351 -114 c 1,29,-1
 299 -114 l 1,30,-1
 299 -47 l 1,31,-1
 404 -47 l 1,32,33
 408 -33 408 -33 408 -18 c 2,34,-1
 408 55 l 1,35,36
 369 11 369 11 335.5 -6 c 128,-1,37
 302 -23 302 -23 255 -23 c 0,38,39
 155 -23 155 -23 94.5 54 c 128,-1,40
 34 131 34 131 34 257 c 0,41,42
 34 382 34 382 98 465.5 c 128,-1,43
 162 549 162 549 258 549 c 0,44,45
 348 549 348 549 408 457 c 1,46,-1
 408 540 l 1,12,-1
EndSplineSet
EndChar

StartChar: Oogonek
Encoding: 490 490 426
Width: 782
GlyphClass: 2
Flags: W
AnchorPoint: "Anchor-3" 391 730 basechar 0
LayerCount: 2
Fore
SplineSet
391 613 m 0,0,1
 300 613 300 613 245 543.5 c 128,-1,2
 190 474 190 474 190 359 c 128,-1,3
 190 244 190 244 245 174.5 c 128,-1,4
 300 105 300 105 391 105 c 0,5,6
 481 105 481 105 536.5 174 c 128,-1,7
 592 243 592 243 592 355 c 0,8,9
 592 473 592 473 537.5 543 c 128,-1,10
 483 613 483 613 391 613 c 0,0,1
40 359 m 0,11,12
 40 527 40 527 136.5 634 c 128,-1,13
 233 741 233 741 390 741 c 0,14,15
 548 741 548 741 645 634.5 c 128,-1,16
 742 528 742 528 742 354 c 0,17,18
 742 253 742 253 703.5 170.5 c 128,-1,19
 665 88 665 88 590.5 36 c 128,-1,20
 516 -16 516 -16 417 -22 c 1,21,22
 360 -59 360 -59 339.5 -85 c 128,-1,23
 319 -111 319 -111 319 -148 c 0,24,25
 319 -198 319 -198 395 -198 c 0,26,27
 425 -198 425 -198 452 -192 c 1,28,-1
 452 -239 l 1,29,30
 413 -249 413 -249 373 -249 c 0,31,32
 306 -249 306 -249 267.5 -223.5 c 128,-1,33
 229 -198 229 -198 229 -154 c 0,34,35
 229 -133 229 -133 236.5 -113.5 c 128,-1,36
 244 -94 244 -94 258.5 -77 c 128,-1,37
 273 -60 273 -60 293.5 -45.5 c 128,-1,38
 314 -31 314 -31 340 -20 c 1,39,40
 249 -8 249 -8 181 43 c 128,-1,41
 113 94 113 94 76.5 176 c 128,-1,42
 40 258 40 258 40 359 c 0,11,12
EndSplineSet
EndChar

StartChar: oogonek
Encoding: 491 491 427
Width: 611
GlyphClass: 2
Flags: W
AnchorPoint: "Anchor-3" 301 550 basechar 0
LayerCount: 2
Fore
SplineSet
302 436 m 0,0,1
 245 436 245 436 210 388 c 128,-1,2
 175 340 175 340 175 263 c 128,-1,3
 175 186 175 186 210 138 c 128,-1,4
 245 90 245 90 302 90 c 0,5,6
 358 90 358 90 393.5 137.5 c 128,-1,7
 429 185 429 185 429 261 c 0,8,9
 429 341 429 341 394.5 388.5 c 128,-1,10
 360 436 360 436 302 436 c 0,0,1
301 549 m 0,11,12
 428 549 428 549 498.5 472.5 c 128,-1,13
 569 396 569 396 569 259 c 0,14,15
 569 178 569 178 540 116.5 c 128,-1,16
 511 55 511 55 457 19.5 c 128,-1,17
 403 -16 403 -16 329 -22 c 1,18,19
 272 -58 272 -58 251.5 -84.5 c 128,-1,20
 231 -111 231 -111 231 -148 c 0,21,22
 231 -198 231 -198 307 -198 c 0,23,24
 337 -198 337 -198 364 -192 c 1,25,-1
 364 -239 l 1,26,27
 325 -249 325 -249 285 -249 c 0,28,29
 218 -249 218 -249 179.5 -223.5 c 128,-1,30
 141 -198 141 -198 141 -154 c 0,31,32
 141 -66 141 -66 253 -20 c 1,33,34
 150 -5 150 -5 92.5 69.5 c 128,-1,35
 35 144 35 144 35 263 c 0,36,37
 35 396 35 396 106 472.5 c 128,-1,38
 177 549 177 549 301 549 c 0,11,12
EndSplineSet
EndChar

StartChar: Wynn
Encoding: 503 503 438
Width: 659
GlyphClass: 2
Flags: W
LayerCount: 2
Fore
SplineSet
225 520 m 1,0,-1
 225 250 l 1,1,2
 263 276 263 276 293 298.5 c 128,-1,3
 323 321 323 321 358.5 353.5 c 128,-1,4
 394 386 394 386 417.5 416 c 128,-1,5
 441 446 441 446 457 483.5 c 128,-1,6
 473 521 473 521 473 558 c 0,7,8
 473 579 473 579 450 593.5 c 128,-1,9
 427 608 427 608 401 608 c 0,10,11
 366 608 366 608 319.5 588 c 128,-1,12
 273 568 273 568 225 520 c 1,0,-1
225 93 m 1,13,-1
 225 0 l 1,14,-1
 80 0 l 1,15,-1
 80 729 l 1,16,-1
 225 729 l 1,17,-1
 225 678 l 1,18,19
 272 716 272 716 318 729.5 c 128,-1,20
 364 743 364 743 434 743 c 0,21,22
 510 743 510 743 564.5 688.5 c 128,-1,23
 619 634 619 634 619 546 c 0,24,25
 619 499 619 499 601.5 451.5 c 128,-1,26
 584 404 584 404 559.5 367 c 128,-1,27
 535 330 535 330 494.5 290 c 128,-1,28
 454 250 454 250 423 224 c 128,-1,29
 392 198 392 198 346 167.5 c 128,-1,30
 300 137 300 137 279 124.5 c 128,-1,31
 258 112 258 112 225 93 c 1,13,-1
EndSplineSet
EndChar

StartChar: uni021c
Encoding: 540 540 475
Width: 586
GlyphClass: 2
Flags: W
LayerCount: 2
Fore
SplineSet
175 486 m 2,0,-1
 174 462 l 1,1,-1
 36 462 l 1,2,-1
 37 487 l 2,3,4
 39 612 39 612 103.5 676.5 c 128,-1,5
 168 741 168 741 284 741 c 0,6,7
 397 741 397 741 461 682 c 128,-1,8
 525 623 525 623 525 521 c 0,9,10
 525 439 525 439 466 380 c 1,11,12
 546 321 546 321 546 205 c 0,13,14
 546 165 546 165 531 129 c 128,-1,15
 516 93 516 93 494.5 66 c 128,-1,16
 473 39 473 39 434 12 c 128,-1,17
 395 -15 395 -15 363 -32 c 128,-1,18
 331 -49 331 -49 277 -70 c 128,-1,19
 223 -91 223 -91 189.5 -102.5 c 128,-1,20
 156 -114 156 -114 98 -132 c 2,21,-1
 72 -140 l 1,22,-1
 35 6 l 1,23,24
 50 4 50 4 70 4 c 1,25,26
 244 62 244 62 318 105 c 0,27,28
 406 157 406 157 406 204 c 0,29,30
 406 235 406 235 398 253.5 c 128,-1,31
 390 272 390 272 380.5 279 c 128,-1,32
 371 286 371 286 350 295 c 1,33,34
 291 264 291 264 201 237 c 2,35,-1
 177 230 l 1,36,-1
 144 351 l 1,37,-1
 164 359 l 2,38,39
 295 413 295 413 332 439 c 0,40,41
 385 476 385 476 385 518 c 0,42,43
 385 565 385 565 358.5 589.5 c 128,-1,44
 332 614 332 614 285 614 c 0,45,46
 228 614 228 614 202 584.5 c 128,-1,47
 176 555 176 555 175 486 c 2,0,-1
EndSplineSet
EndChar

StartChar: uni021d
Encoding: 541 541 476
Width: 484
GlyphClass: 2
Flags: W
LayerCount: 2
Fore
SplineSet
166 344 m 2,0,-1
 166 319 l 1,1,-1
 30 319 l 1,2,-1
 30 344 l 2,3,4
 30 435 30 435 86.5 493 c 128,-1,5
 143 551 143 551 232 551 c 0,6,7
 318 551 318 551 373.5 500 c 128,-1,8
 429 449 429 449 429 370 c 0,9,10
 429 306 429 306 391 263 c 1,11,12
 415 243 415 243 429.5 211.5 c 128,-1,13
 444 180 444 180 444 132 c 0,14,15
 444 108 444 108 437 86.5 c 128,-1,16
 430 65 430 65 420 47.5 c 128,-1,17
 410 30 410 30 391 13 c 128,-1,18
 372 -4 372 -4 355.5 -16.5 c 128,-1,19
 339 -29 339 -29 311 -42.5 c 128,-1,20
 283 -56 283 -56 264.5 -64.5 c 128,-1,21
 246 -73 246 -73 212.5 -85 c 128,-1,22
 179 -97 179 -97 161 -103 c 128,-1,23
 143 -109 143 -109 108 -120 c 0,24,25
 99 -122 99 -122 95 -124 c 2,26,-1
 69 -132 l 1,27,-1
 46 -32 l 1,28,-1
 49 8 l 1,29,-1
 64 -2 l 1,30,31
 75 0 75 0 111 11.5 c 128,-1,32
 147 23 147 23 192.5 40.5 c 128,-1,33
 238 58 238 58 272.5 83.5 c 128,-1,34
 307 109 307 109 307 132 c 0,35,36
 307 153 307 153 302.5 163 c 128,-1,37
 298 173 298 173 283 184 c 1,38,39
 241 162 241 162 172 142 c 2,40,-1
 147 135 l 1,41,-1
 119 250 l 1,42,-1
 139 258 l 2,43,44
 142 259 142 259 148 262 c 0,45,46
 180 275 180 275 195.5 281.5 c 128,-1,47
 211 288 211 288 233 299.5 c 128,-1,48
 255 311 255 311 265 320 c 128,-1,49
 275 329 275 329 283 341 c 128,-1,50
 291 353 291 353 291 367 c 0,51,52
 291 423 291 423 233 423 c 0,53,54
 204 423 204 423 185 402 c 128,-1,55
 166 381 166 381 166 344 c 2,0,-1
EndSplineSet
EndChar

StartChar: uni0224
Encoding: 548 548 479
Width: 611
GlyphClass: 2
Flags: W
LayerCount: 2
Fore
SplineSet
578 729 m 1,0,-1
 578 604 l 1,1,-1
 206 125 l 1,2,-1
 578 125 l 1,3,-1
 578 -81 l 2,4,5
 578 -104 578 -104 571 -125 c 128,-1,6
 564 -146 564 -146 547 -167.5 c 128,-1,7
 530 -189 530 -189 494.5 -202 c 128,-1,8
 459 -215 459 -215 409 -215 c 0,9,10
 394 -215 394 -215 356 -207 c 1,11,-1
 356 -89 l 1,12,13
 399 -92 399 -92 401 -92 c 0,14,15
 428 -92 428 -92 436 -85 c 128,-1,16
 444 -78 444 -78 444 -48 c 2,17,-1
 444 0 l 1,18,-1
 30 0 l 1,19,-1
 30 125 l 1,20,-1
 403 604 l 1,21,-1
 30 604 l 1,22,-1
 30 729 l 1,23,-1
 578 729 l 1,0,-1
EndSplineSet
EndChar

StartChar: uni0225
Encoding: 549 549 480
Width: 500
GlyphClass: 2
Flags: W
LayerCount: 2
Fore
SplineSet
459 540 m 1,0,-1
 459 427 l 1,1,-1
 194 113 l 1,2,-1
 468 113 l 1,3,4
 468 113 468 113 468 -82 c 0,5,6
 468 -105 468 -105 461 -126 c 128,-1,7
 454 -147 454 -147 437 -168.5 c 128,-1,8
 420 -190 420 -190 384.5 -203 c 128,-1,9
 349 -216 349 -216 299 -216 c 0,10,11
 284 -216 284 -216 246 -208 c 1,12,-1
 246 -90 l 1,13,14
 289 -93 289 -93 291 -93 c 0,15,16
 317 -93 317 -93 325.5 -86 c 128,-1,17
 334 -79 334 -79 334 -49 c 2,18,-1
 334 0 l 1,19,-1
 21 0 l 1,20,-1
 21 113 l 1,21,-1
 288 427 l 1,22,-1
 39 427 l 1,23,-1
 39 540 l 1,24,-1
 459 540 l 1,0,-1
EndSplineSet
EndChar

StartChar: uni0228
Encoding: 552 552 483
Width: 655
GlyphClass: 2
Flags: W
LayerCount: 2
Fore
SplineSet
230 314 m 1,0,-1
 230 125 l 1,1,-1
 625 125 l 1,2,-1
 625 0 l 1,3,-1
 371 0 l 1,4,-1
 345 -56 l 1,5,6
 366 -49 366 -49 387 -49 c 0,7,8
 422 -49 422 -49 442.5 -68 c 128,-1,9
 463 -87 463 -87 463 -120 c 0,10,11
 463 -165 463 -165 429.5 -189 c 128,-1,12
 396 -213 396 -213 334 -213 c 0,13,14
 279 -213 279 -213 196 -185 c 1,15,-1
 215 -133 l 1,16,17
 284 -163 284 -163 320 -163 c 0,18,19
 344 -163 344 -163 360.5 -151 c 128,-1,20
 377 -139 377 -139 377 -122 c 0,21,22
 377 -106 377 -106 363 -96.5 c 128,-1,23
 349 -87 349 -87 326 -87 c 0,24,25
 302 -87 302 -87 277 -99 c 1,26,-1
 327 0 l 1,27,-1
 80 0 l 1,28,-1
 80 729 l 1,29,-1
 607 729 l 1,30,-1
 607 604 l 1,31,-1
 230 604 l 1,32,-1
 230 439 l 1,33,-1
 579 439 l 1,34,-1
 579 314 l 1,35,-1
 230 314 l 1,0,-1
EndSplineSet
EndChar

StartChar: uni0229
Encoding: 553 553 484
Width: 583
GlyphClass: 2
Flags: W
LayerCount: 2
Fore
SplineSet
397 319 m 1,0,1
 392 378 392 378 364.5 410 c 128,-1,2
 337 442 337 442 288 442 c 0,3,4
 196 442 196 442 182 319 c 1,5,-1
 397 319 l 1,0,1
290 549 m 0,6,7
 325 549 325 549 358 541 c 128,-1,8
 391 533 391 533 425.5 512 c 128,-1,9
 460 491 460 491 485.5 458.5 c 128,-1,10
 511 426 511 426 527 372.5 c 128,-1,11
 543 319 543 319 543 250 c 0,12,13
 543 238 543 238 542 226 c 1,14,-1
 180 226 l 1,15,16
 181 195 181 195 185.5 172.5 c 128,-1,17
 190 150 190 150 201.5 128.5 c 128,-1,18
 213 107 213 107 235.5 95.5 c 128,-1,19
 258 84 258 84 292 84 c 0,20,21
 372 84 372 84 399 152 c 1,22,-1
 537 152 l 1,23,24
 522 102 522 102 489 64 c 128,-1,25
 456 26 456 26 409 3.5 c 128,-1,26
 362 -19 362 -19 306 -22 c 1,27,-1
 280 -79 l 1,28,29
 301 -72 301 -72 322 -72 c 0,30,31
 357 -72 357 -72 377.5 -91 c 128,-1,32
 398 -110 398 -110 398 -143 c 0,33,34
 398 -188 398 -188 364.5 -212 c 128,-1,35
 331 -236 331 -236 269 -236 c 0,36,37
 214 -236 214 -236 131 -208 c 1,38,-1
 150 -156 l 1,39,40
 219 -186 219 -186 255 -186 c 0,41,42
 279 -186 279 -186 295.5 -174 c 128,-1,43
 312 -162 312 -162 312 -145 c 0,44,45
 312 -129 312 -129 298 -119.5 c 128,-1,46
 284 -110 284 -110 261 -110 c 0,47,48
 237 -110 237 -110 212 -122 c 1,49,-1
 263 -22 l 1,50,51
 159 -14 159 -14 99.5 59.5 c 128,-1,52
 40 133 40 133 40 256 c 0,53,54
 40 392 40 392 107 470.5 c 128,-1,55
 174 549 174 549 290 549 c 0,6,7
EndSplineSet
EndChar

StartChar: dotlessj
Encoding: 567 567 495
Width: 280
GlyphClass: 2
Flags: W
LayerCount: 2
Fore
SplineSet
210 540 m 1,0,-1
 210 -94 l 2,1,2
 210 -160 210 -160 181 -189 c 128,-1,3
 152 -218 152 -218 87 -218 c 0,4,5
 51 -218 51 -218 4 -213 c 1,6,-1
 4 -101 l 1,7,8
 17 -105 17 -105 29 -105 c 0,9,10
 52 -105 52 -105 61 -95.5 c 128,-1,11
 70 -86 70 -86 70 -63 c 2,12,-1
 70 540 l 1,13,-1
 210 540 l 1,0,-1
EndSplineSet
EndChar

StartChar: uni0251
Encoding: 593 593 497
Width: 687
GlyphClass: 2
Flags: W
LayerCount: 2
Fore
SplineSet
267 -23 m 0,0,1
 167 -23 167 -23 103.5 59 c 128,-1,2
 40 141 40 141 40 262 c 0,3,4
 40 384 40 384 105 466.5 c 128,-1,5
 170 549 170 549 267 549 c 0,6,7
 365 549 365 549 416 470 c 1,8,-1
 416 540 l 1,9,-1
 554 540 l 1,10,-1
 554 142 l 2,11,12
 554 116 554 116 576 116 c 0,13,14
 591 116 591 116 639 141 c 1,15,-1
 687 14 l 1,16,17
 610 -17 610 -17 565 -17 c 0,18,19
 458 -17 458 -17 427 73 c 1,20,21
 375 -23 375 -23 267 -23 c 0,0,1
298 432 m 0,22,23
 246 432 246 432 213 384.5 c 128,-1,24
 180 337 180 337 180 262 c 0,25,26
 180 188 180 188 213 141 c 128,-1,27
 246 94 246 94 298 94 c 128,-1,28
 350 94 350 94 383 140 c 128,-1,29
 416 186 416 186 416 260 c 0,30,31
 416 337 416 337 383.5 384.5 c 128,-1,32
 351 432 351 432 298 432 c 0,22,23
EndSplineSet
EndChar

StartChar: uni0253
Encoding: 595 595 499
Width: 621
GlyphClass: 2
Flags: W
LayerCount: 2
Fore
SplineSet
323 432 m 128,-1,1
 271 432 271 432 238 385.5 c 128,-1,2
 205 339 205 339 205 265 c 0,3,4
 205 188 205 188 237.5 141 c 128,-1,5
 270 94 270 94 323 94 c 0,6,7
 375 94 375 94 408 141 c 128,-1,8
 441 188 441 188 441 262 c 0,9,10
 441 337 441 337 408 384.5 c 128,-1,0
 375 432 375 432 323 432 c 128,-1,1
354 549 m 0,11,12
 451 549 451 549 516 468.5 c 128,-1,13
 581 388 581 388 581 263 c 0,14,15
 581 141 581 141 516 59 c 128,-1,16
 451 -23 451 -23 354 -23 c 0,17,18
 255 -23 255 -23 205 55 c 1,19,-1
 205 0 l 1,20,-1
 65 0 l 1,21,-1
 65 605 l 2,22,23
 65 671 65 671 94 700 c 128,-1,24
 123 729 123 729 188 729 c 0,25,26
 224 729 224 729 271 724 c 1,27,-1
 271 612 l 1,28,29
 258 616 258 616 246 616 c 0,30,31
 223 616 223 616 214 606.5 c 128,-1,32
 205 597 205 597 205 574 c 2,33,-1
 205 470 l 1,34,35
 255 549 255 549 354 549 c 0,11,12
EndSplineSet
EndChar

StartChar: uni0255
Encoding: 597 597 501
Width: 573
GlyphClass: 2
Flags: W
AnchorPoint: "Anchor-3" 300 538 basechar 0
AnchorPoint: "Anchor-2" 328 -9 basechar 0
LayerCount: 2
Fore
SplineSet
309 436 m 0,0,1
 195 436 195 436 195 259 c 0,2,3
 195 213 195 213 206 178 c 1,4,5
 286 231 286 231 338.5 249 c 128,-1,6
 391 267 391 267 443 267 c 0,7,8
 481 267 481 267 511 240.5 c 128,-1,9
 541 214 541 214 541 187 c 0,10,11
 541 134 541 134 523.5 93.5 c 128,-1,12
 506 53 506 53 481.5 32 c 128,-1,13
 457 11 457 11 425 -2.5 c 128,-1,14
 393 -16 393 -16 370.5 -19.5 c 128,-1,15
 348 -23 348 -23 328 -23 c 0,16,17
 279 -23 279 -23 243.5 -17 c 128,-1,18
 208 -11 208 -11 172 10 c 1,19,20
 159 1 159 1 130 -19 c 128,-1,21
 101 -39 101 -39 86 -51 c 1,22,-1
 10 39 l 1,23,-1
 90 97 l 1,24,25
 78 119 78 119 70.5 144.5 c 128,-1,26
 63 170 63 170 59 198.5 c 128,-1,27
 55 227 55 227 55 259 c 0,28,29
 55 397 55 397 122 473 c 128,-1,30
 189 549 189 549 310 549 c 0,31,32
 411 549 411 549 473.5 493 c 128,-1,33
 536 437 536 437 543 338 c 1,34,-1
 409 338 l 1,35,36
 397 391 397 391 374.5 413.5 c 128,-1,37
 352 436 352 436 309 436 c 0,0,1
413 126 m 1,38,39
 406 149 406 149 387 149 c 0,40,41
 382 149 382 149 371.5 144.5 c 128,-1,42
 361 140 361 140 348 133.5 c 128,-1,43
 335 127 335 127 322 119.5 c 128,-1,44
 309 112 309 112 298.5 105 c 128,-1,45
 288 98 288 98 282 94 c 1,46,47
 292 91 292 91 297.5 90.5 c 128,-1,48
 303 90 303 90 308 90 c 0,49,50
 324 90 324 90 340 92.5 c 128,-1,51
 356 95 356 95 377 103.5 c 128,-1,52
 398 112 398 112 413 126 c 1,38,39
EndSplineSet
EndChar

StartChar: uni0256
Encoding: 598 598 502
Width: 636
GlyphClass: 2
Flags: W
LayerCount: 2
Fore
SplineSet
298 432 m 0,0,1
 246 432 246 432 213 384.5 c 128,-1,2
 180 337 180 337 180 262 c 0,3,4
 180 188 180 188 213 141 c 128,-1,5
 246 94 246 94 298 94 c 128,-1,6
 350 94 350 94 383 140 c 128,-1,7
 416 186 416 186 416 260 c 0,8,9
 416 337 416 337 383.5 384.5 c 128,-1,10
 351 432 351 432 298 432 c 0,0,1
267 -23 m 0,11,12
 167 -23 167 -23 103.5 59 c 128,-1,13
 40 141 40 141 40 262 c 0,14,15
 40 384 40 384 105 466.5 c 128,-1,16
 170 549 170 549 267 549 c 0,17,18
 365 549 365 549 416 470 c 1,19,-1
 416 729 l 1,20,-1
 556 729 l 1,21,-1
 556 -63 l 2,22,23
 556 -86 556 -86 565 -95.5 c 128,-1,24
 574 -105 574 -105 597 -105 c 0,25,26
 609 -105 609 -105 622 -101 c 1,27,-1
 622 -213 l 1,28,29
 575 -218 575 -218 539 -218 c 0,30,31
 474 -218 474 -218 445 -189 c 128,-1,32
 416 -160 416 -160 416 -94 c 2,33,-1
 416 55 l 1,34,35
 364 -23 364 -23 267 -23 c 0,11,12
EndSplineSet
EndChar

StartChar: uni0257
Encoding: 599 599 503
Width: 636
GlyphClass: 2
Flags: W
LayerCount: 2
Fore
SplineSet
298 432 m 0,0,1
 246 432 246 432 213 384.5 c 128,-1,2
 180 337 180 337 180 262 c 0,3,4
 180 188 180 188 213 141 c 128,-1,5
 246 94 246 94 298 94 c 128,-1,6
 350 94 350 94 383 140 c 128,-1,7
 416 186 416 186 416 260 c 0,8,9
 416 337 416 337 383.5 384.5 c 128,-1,10
 351 432 351 432 298 432 c 0,0,1
267 -23 m 0,11,12
 167 -23 167 -23 103.5 59 c 128,-1,13
 40 141 40 141 40 262 c 0,14,15
 40 384 40 384 105 466.5 c 128,-1,16
 170 549 170 549 267 549 c 0,17,18
 365 549 365 549 416 470 c 1,19,-1
 416 605 l 2,20,21
 416 671 416 671 445 700 c 128,-1,22
 474 729 474 729 539 729 c 0,23,24
 575 729 575 729 622 724 c 1,25,-1
 622 612 l 1,26,27
 609 616 609 616 597 616 c 0,28,29
 574 616 574 616 565 606.5 c 128,-1,30
 556 597 556 597 556 574 c 2,31,-1
 556 0 l 1,32,-1
 416 0 l 1,33,-1
 416 55 l 1,34,35
 364 -23 364 -23 267 -23 c 0,11,12
EndSplineSet
EndChar

StartChar: uni0258
Encoding: 600 600 504
Width: 583
GlyphClass: 2
Flags: W
LayerCount: 2
Fore
SplineSet
293 549 m 0,0,1
 409 549 409 549 476 470.5 c 128,-1,2
 543 392 543 392 543 256 c 0,3,4
 543 126 543 126 477 51.5 c 128,-1,5
 411 -23 411 -23 296 -23 c 0,6,7
 205 -23 205 -23 137 24.5 c 128,-1,8
 69 72 69 72 46 152 c 1,9,-1
 184 152 l 1,10,11
 211 84 211 84 291 84 c 0,12,13
 325 84 325 84 347.5 95.5 c 128,-1,14
 370 107 370 107 381.5 128.5 c 128,-1,15
 393 150 393 150 397.5 172.5 c 128,-1,16
 402 195 402 195 403 226 c 1,17,-1
 41 226 l 1,18,19
 40 238 40 238 40 250 c 0,20,21
 40 319 40 319 56 372.5 c 128,-1,22
 72 426 72 426 97.5 458.5 c 128,-1,23
 123 491 123 491 157.5 512 c 128,-1,24
 192 533 192 533 225 541 c 128,-1,25
 258 549 258 549 293 549 c 0,0,1
186 319 m 1,26,-1
 401 319 l 1,27,28
 388 442 388 442 295 442 c 0,29,30
 246 442 246 442 218.5 410 c 128,-1,31
 191 378 191 378 186 319 c 1,26,-1
EndSplineSet
EndChar

StartChar: uni025A
Encoding: 602 602 506
Width: 834
GlyphClass: 2
Flags: W
LayerCount: 2
Fore
SplineSet
168 207 m 1,0,1
 173 148 173 148 200.5 116 c 128,-1,2
 228 84 228 84 277 84 c 0,3,4
 370 84 370 84 383 207 c 1,5,-1
 168 207 l 1,0,1
275 -23 m 0,6,7
 240 -23 240 -23 207 -15 c 128,-1,8
 174 -7 174 -7 139.5 14 c 128,-1,9
 105 35 105 35 79.5 67.5 c 128,-1,10
 54 100 54 100 38 153.5 c 128,-1,11
 22 207 22 207 22 276 c 0,12,13
 22 288 22 288 23 300 c 1,14,-1
 385 300 l 1,15,16
 384 331 384 331 379.5 353.5 c 128,-1,17
 375 376 375 376 363.5 397.5 c 128,-1,18
 352 419 352 419 329.5 430.5 c 128,-1,19
 307 442 307 442 273 442 c 0,20,21
 193 442 193 442 166 374 c 1,22,-1
 28 374 l 1,23,24
 51 454 51 454 119 501.5 c 128,-1,25
 187 549 187 549 278 549 c 128,-1,26
 369 549 369 549 430 501 c 1,27,-1
 502 570 l 1,28,-1
 608 570 l 1,29,30
 628 523 628 523 647.5 467.5 c 128,-1,31
 667 412 667 412 678.5 380.5 c 128,-1,32
 690 349 690 349 699 337 c 0,33,34
 703 338 703 338 706 339.5 c 128,-1,35
 709 341 709 341 712 342.5 c 128,-1,36
 715 344 715 344 718.5 348 c 128,-1,37
 722 352 722 352 725.5 355.5 c 128,-1,38
 729 359 729 359 733.5 365.5 c 128,-1,39
 738 372 738 372 742.5 378 c 128,-1,40
 747 384 747 384 754 394 c 128,-1,41
 761 404 761 404 766.5 413 c 128,-1,42
 772 422 772 422 782 436.5 c 128,-1,43
 792 451 792 451 800 463 c 1,44,-1
 800 268 l 1,45,46
 767 238 767 238 743.5 226 c 128,-1,47
 720 214 720 214 688 214 c 0,48,49
 675 214 675 214 664 216.5 c 128,-1,50
 653 219 653 219 635 232 c 128,-1,51
 617 245 617 245 601 266.5 c 128,-1,52
 585 288 585 288 565 329.5 c 128,-1,53
 545 371 545 371 527 428 c 1,54,-1
 500 408 l 1,55,56
 525 348 525 348 525 270 c 0,57,58
 525 134 525 134 458 55.5 c 128,-1,59
 391 -23 391 -23 275 -23 c 0,6,7
EndSplineSet
EndChar

StartChar: uni025D
Encoding: 605 605 509
Width: 820
GlyphClass: 2
Flags: W
LayerCount: 2
Fore
SplineSet
167 157 m 1,0,1
 174 123 174 123 195.5 105 c 128,-1,2
 217 87 217 87 277 87 c 0,3,4
 381 87 381 87 381 143 c 0,5,6
 381 155 381 155 379 163.5 c 128,-1,7
 377 172 377 172 370 183.5 c 128,-1,8
 363 195 363 195 345 201.5 c 128,-1,9
 327 208 327 208 299 208 c 2,10,-1
 207 208 l 1,11,-1
 207 318 l 1,12,-1
 301 318 l 2,13,14
 341 318 341 318 353.5 334.5 c 128,-1,15
 366 351 366 351 366 376 c 0,16,17
 366 389 366 389 362 401 c 128,-1,18
 358 413 358 413 338.5 426 c 128,-1,19
 319 439 319 439 285 439 c 0,20,21
 185 439 185 439 184 366 c 1,22,-1
 49 366 l 1,23,24
 51 452 51 452 113 500.5 c 128,-1,25
 175 549 175 549 284 549 c 0,26,27
 376 549 376 549 432 511 c 1,28,-1
 502 570 l 1,29,-1
 607 570 l 1,30,31
 626 525 626 525 645.5 467.5 c 128,-1,32
 665 410 665 410 677.5 377.5 c 128,-1,33
 690 345 690 345 700 334 c 1,34,35
 712 336 712 336 723 349 c 128,-1,36
 734 362 734 362 767 412 c 0,37,38
 773 422 773 422 777 427.5 c 128,-1,39
 781 433 781 433 787.5 443 c 128,-1,40
 794 453 794 453 800 462 c 1,41,-1
 800 265 l 1,42,43
 766 234 766 234 742.5 221.5 c 128,-1,44
 719 209 719 209 688 209 c 0,45,46
 655 209 655 209 627.5 229 c 128,-1,47
 600 249 600 249 580 288 c 128,-1,48
 560 327 560 327 547.5 360 c 128,-1,49
 535 393 535 393 521 442 c 1,50,-1
 499 422 l 1,51,52
 506 400 506 400 506 369 c 0,53,54
 506 305 506 305 462 271 c 1,55,56
 521 234 521 234 521 160 c 0,57,58
 521 129 521 129 510 99.5 c 128,-1,59
 499 70 499 70 474.5 41 c 128,-1,60
 450 12 450 12 401 -5.5 c 128,-1,61
 352 -23 352 -23 285 -23 c 0,62,63
 36 -23 36 -23 30 157 c 1,64,-1
 167 157 l 1,0,1
EndSplineSet
EndChar

StartChar: uni025E
Encoding: 606 606 510
Width: 570
GlyphClass: 2
Flags: W
LayerCount: 2
Fore
SplineSet
295 103 m 0,0,1
 399 103 399 103 399 156 c 0,2,3
 399 191 399 191 374 204 c 128,-1,4
 349 217 349 217 296 217 c 2,5,-1
 225 217 l 1,6,-1
 225 319 l 1,7,-1
 296 319 l 2,8,9
 348 319 348 319 373.5 332 c 128,-1,10
 399 345 399 345 399 380 c 0,11,12
 399 434 399 434 295 434 c 0,13,14
 257 434 257 434 233 429 c 128,-1,15
 209 424 209 424 194 414.5 c 128,-1,16
 179 405 179 405 172 383 c 128,-1,17
 165 361 165 361 163 337 c 128,-1,18
 161 313 161 313 161 269 c 0,19,20
 161 215 161 215 164 188.5 c 128,-1,21
 167 162 167 162 180.5 139.5 c 128,-1,22
 194 117 194 117 220.5 110 c 128,-1,23
 247 103 247 103 295 103 c 0,0,1
288 547 m 0,24,25
 531 547 531 547 531 386 c 0,26,27
 531 308 531 308 466 268 c 1,28,29
 499 248 499 248 515 221.5 c 128,-1,30
 531 195 531 195 531 151 c 0,31,32
 531 -10 531 -10 292 -10 c 0,33,34
 212 -10 212 -10 160 8 c 128,-1,35
 108 26 108 26 81 65 c 128,-1,36
 54 104 54 104 44 151 c 128,-1,37
 34 198 34 198 34 270 c 0,38,39
 34 338 34 338 43.5 384.5 c 128,-1,40
 53 431 53 431 79.5 470 c 128,-1,41
 106 509 106 509 157.5 528 c 128,-1,42
 209 547 209 547 288 547 c 0,24,25
EndSplineSet
EndChar

StartChar: uni025F
Encoding: 607 607 511
Width: 316
GlyphClass: 2
Flags: W
LayerCount: 2
Fore
SplineSet
237 207 m 1,0,-1
 237 -94 l 2,1,2
 237 -160 237 -160 208 -189 c 128,-1,3
 179 -218 179 -218 114 -218 c 0,4,5
 78 -218 78 -218 31 -213 c 1,6,-1
 31 -101 l 1,7,8
 44 -105 44 -105 56 -105 c 0,9,10
 79 -105 79 -105 88 -95.5 c 128,-1,11
 97 -86 97 -86 97 -63 c 2,12,-1
 97 207 l 1,13,-1
 30 207 l 1,14,-1
 30 342 l 1,15,-1
 97 342 l 1,16,-1
 97 540 l 1,17,-1
 237 540 l 1,18,-1
 237 342 l 1,19,-1
 302 342 l 1,20,-1
 302 207 l 1,21,-1
 237 207 l 1,0,-1
EndSplineSet
EndChar

StartChar: uni0260
Encoding: 608 608 512
Width: 625
GlyphClass: 2
Flags: W
LayerCount: 2
Fore
SplineSet
294 432 m 0,0,1
 243 432 243 432 211.5 384 c 128,-1,2
 180 336 180 336 180 259 c 0,3,4
 180 186 180 186 211 140 c 128,-1,5
 242 94 242 94 292 94 c 0,6,7
 346 94 346 94 380.5 135 c 128,-1,8
 415 176 415 176 415 259 c 0,9,10
 415 346 415 346 380.5 389 c 128,-1,11
 346 432 346 432 294 432 c 0,0,1
547 -18 m 2,12,13
 547 -113 547 -113 479.5 -165.5 c 128,-1,14
 412 -218 412 -218 290 -218 c 0,15,16
 180 -218 180 -218 115.5 -176 c 128,-1,17
 51 -134 51 -134 51 -65 c 1,18,-1
 196 -65 l 1,19,20
 213 -128 213 -128 295 -128 c 0,21,22
 348 -128 348 -128 381 -97.5 c 128,-1,23
 414 -67 414 -67 414 -18 c 2,24,-1
 414 55 l 1,25,26
 375 11 375 11 341.5 -6 c 128,-1,27
 308 -23 308 -23 261 -23 c 0,28,29
 161 -23 161 -23 100.5 54 c 128,-1,30
 40 131 40 131 40 257 c 0,31,32
 40 382 40 382 104 465.5 c 128,-1,33
 168 549 168 549 264 549 c 0,34,35
 354 549 354 549 414 457 c 1,36,-1
 414 564 l 2,37,38
 414 630 414 630 443 659 c 128,-1,39
 472 688 472 688 537 688 c 0,40,41
 564 688 564 688 611 683 c 1,42,-1
 611 571 l 1,43,44
 598 575 598 575 588 575 c 0,45,46
 547 575 547 575 547 540 c 2,47,-1
 547 -18 l 2,12,13
EndSplineSet
EndChar

